%FSLAX25Y25*%
%MOIN*%
G70*
G01*
G75*
G04 Layer_Physical_Order=2*
G04 Layer_Color=16711680*
%ADD10R,0.02992X0.03347*%
%ADD11R,0.04331X0.02362*%
%ADD12O,0.04331X0.02362*%
%ADD13R,0.08661X0.11024*%
%ADD14O,0.07480X0.02362*%
%ADD15R,0.07480X0.02362*%
%ADD16R,0.03347X0.02992*%
%ADD17O,0.03150X0.01102*%
%ADD18R,0.06496X0.09449*%
%ADD19R,0.00866X0.02756*%
%ADD20R,0.01378X0.01969*%
%ADD21R,0.02795X0.01811*%
%ADD22R,0.05709X0.08268*%
%ADD23R,0.10984X0.07539*%
%ADD24R,0.03500X0.05000*%
%ADD25R,0.20866X0.09843*%
%ADD26R,0.07874X0.12992*%
%ADD27R,0.07874X0.03543*%
%ADD28R,0.08268X0.05709*%
%ADD29R,0.04331X0.06890*%
%ADD30R,0.02500X0.04173*%
%ADD31R,0.24803X0.21654*%
%ADD32R,0.10827X0.03543*%
%ADD33R,0.16700X0.15000*%
%ADD34C,0.01000*%
%ADD35C,0.02500*%
%ADD36C,0.01000*%
%ADD37C,0.00800*%
%ADD38R,0.06000X0.06000*%
%ADD39C,0.06000*%
%ADD40C,0.15000*%
%ADD41C,0.07500*%
%ADD42C,0.05118*%
%ADD43R,0.05118X0.05118*%
%ADD44C,0.05906*%
%ADD45R,0.08000X0.08000*%
%ADD46C,0.08000*%
%ADD47R,0.06000X0.06000*%
%ADD48C,0.07000*%
%ADD49R,0.07000X0.07000*%
%ADD50C,0.12000*%
%ADD51C,0.23622*%
%ADD52C,0.27559*%
%ADD53C,0.02000*%
%ADD54C,0.02800*%
%ADD55C,0.05000*%
G36*
X438573Y1427D02*
X1427D01*
Y338573D01*
X438573D01*
Y1427D01*
D02*
G37*
%LPC*%
G36*
X332500Y89934D02*
X331482Y89800D01*
X330533Y89407D01*
X329718Y88781D01*
X329093Y87967D01*
X328700Y87018D01*
X328566Y86000D01*
X328700Y84982D01*
X329093Y84033D01*
X329718Y83218D01*
X330533Y82593D01*
X331482Y82200D01*
X332500Y82066D01*
X333518Y82200D01*
X334467Y82593D01*
X335281Y83218D01*
X335907Y84033D01*
X336300Y84982D01*
X336434Y86000D01*
X336300Y87018D01*
X335907Y87967D01*
X335281Y88781D01*
X334467Y89407D01*
X333518Y89800D01*
X332500Y89934D01*
D02*
G37*
G36*
X322500D02*
X321482Y89800D01*
X320533Y89407D01*
X319719Y88781D01*
X319093Y87967D01*
X318700Y87018D01*
X318566Y86000D01*
X318700Y84982D01*
X319093Y84033D01*
X319719Y83218D01*
X320533Y82593D01*
X321482Y82200D01*
X322500Y82066D01*
X323518Y82200D01*
X324467Y82593D01*
X325282Y83218D01*
X325907Y84033D01*
X326300Y84982D01*
X326434Y86000D01*
X326300Y87018D01*
X325907Y87967D01*
X325282Y88781D01*
X324467Y89407D01*
X323518Y89800D01*
X322500Y89934D01*
D02*
G37*
G36*
X342500D02*
X341482Y89800D01*
X340533Y89407D01*
X339719Y88781D01*
X339093Y87967D01*
X338700Y87018D01*
X338566Y86000D01*
X338700Y84982D01*
X339093Y84033D01*
X339719Y83218D01*
X340533Y82593D01*
X341482Y82200D01*
X342500Y82066D01*
X343518Y82200D01*
X344467Y82593D01*
X345282Y83218D01*
X345907Y84033D01*
X346300Y84982D01*
X346434Y86000D01*
X346300Y87018D01*
X345907Y87967D01*
X345282Y88781D01*
X344467Y89407D01*
X343518Y89800D01*
X342500Y89934D01*
D02*
G37*
G36*
X362500D02*
X361482Y89800D01*
X360533Y89407D01*
X359718Y88781D01*
X359093Y87967D01*
X358700Y87018D01*
X358566Y86000D01*
X358700Y84982D01*
X359093Y84033D01*
X359718Y83218D01*
X360533Y82593D01*
X361482Y82200D01*
X362500Y82066D01*
X363518Y82200D01*
X364467Y82593D01*
X365282Y83218D01*
X365907Y84033D01*
X366300Y84982D01*
X366434Y86000D01*
X366300Y87018D01*
X365907Y87967D01*
X365282Y88781D01*
X364467Y89407D01*
X363518Y89800D01*
X362500Y89934D01*
D02*
G37*
G36*
X352500D02*
X351482Y89800D01*
X350533Y89407D01*
X349718Y88781D01*
X349093Y87967D01*
X348700Y87018D01*
X348566Y86000D01*
X348700Y84982D01*
X349093Y84033D01*
X349718Y83218D01*
X350533Y82593D01*
X351482Y82200D01*
X352500Y82066D01*
X353518Y82200D01*
X354467Y82593D01*
X355281Y83218D01*
X355907Y84033D01*
X356300Y84982D01*
X356434Y86000D01*
X356300Y87018D01*
X355907Y87967D01*
X355281Y88781D01*
X354467Y89407D01*
X353518Y89800D01*
X352500Y89934D01*
D02*
G37*
G36*
X160000Y187434D02*
X158982Y187300D01*
X158033Y186907D01*
X157219Y186282D01*
X156593Y185467D01*
X156200Y184518D01*
X156066Y183500D01*
X156200Y182482D01*
X156593Y181533D01*
X157219Y180719D01*
X158033Y180093D01*
X158982Y179700D01*
X160000Y179566D01*
X161018Y179700D01*
X161557Y179924D01*
X165573Y175909D01*
Y108500D01*
X165573Y108500D01*
X165681Y107954D01*
X165991Y107491D01*
X178073Y95409D01*
Y89942D01*
X177155Y89562D01*
X176184Y88816D01*
X175438Y87845D01*
X174970Y86714D01*
X174810Y85500D01*
X174970Y84286D01*
X175438Y83155D01*
X176184Y82184D01*
X177155Y81438D01*
X178286Y80970D01*
X179500Y80810D01*
X180714Y80970D01*
X181845Y81438D01*
X182816Y82184D01*
X183562Y83155D01*
X184030Y84286D01*
X184190Y85500D01*
X184030Y86714D01*
X183562Y87845D01*
X182816Y88816D01*
X181845Y89562D01*
X180927Y89942D01*
Y96000D01*
X180927Y96000D01*
X180819Y96546D01*
X180509Y97009D01*
X168427Y109091D01*
Y176500D01*
X168319Y177046D01*
X168009Y177509D01*
X168009Y177509D01*
X163576Y181942D01*
X163800Y182482D01*
X163934Y183500D01*
X163800Y184518D01*
X163407Y185467D01*
X162782Y186282D01*
X161967Y186907D01*
X161018Y187300D01*
X160000Y187434D01*
D02*
G37*
G36*
X90400Y77742D02*
X80600D01*
Y67943D01*
X90400D01*
Y77742D01*
D02*
G37*
G36*
X154862Y82707D02*
X153965Y82529D01*
X153204Y82020D01*
X152800Y81416D01*
X152200D01*
X151796Y82020D01*
X151035Y82529D01*
X150138Y82707D01*
X149240Y82529D01*
X148480Y82020D01*
X147971Y81260D01*
X147793Y80362D01*
X147971Y79465D01*
X148480Y78704D01*
X149084Y78300D01*
Y77700D01*
X148480Y77296D01*
X147971Y76535D01*
X147793Y75638D01*
X147971Y74740D01*
X148480Y73980D01*
X149240Y73471D01*
X150138Y73293D01*
X151035Y73471D01*
X151796Y73980D01*
X152200Y74584D01*
X152800D01*
X153204Y73980D01*
X153965Y73471D01*
X154862Y73293D01*
X155760Y73471D01*
X156520Y73980D01*
X157029Y74740D01*
X157207Y75638D01*
X157029Y76535D01*
X156520Y77296D01*
X155916Y77700D01*
Y78300D01*
X156520Y78704D01*
X157029Y79465D01*
X157207Y80362D01*
X157029Y81260D01*
X156520Y82020D01*
X155760Y82529D01*
X154862Y82707D01*
D02*
G37*
G36*
X312500Y89934D02*
X311482Y89800D01*
X310533Y89407D01*
X309718Y88781D01*
X309093Y87967D01*
X308700Y87018D01*
X308566Y86000D01*
X308700Y84982D01*
X309093Y84033D01*
X309718Y83218D01*
X310533Y82593D01*
X311482Y82200D01*
X312500Y82066D01*
X313518Y82200D01*
X314467Y82593D01*
X315282Y83218D01*
X315907Y84033D01*
X316300Y84982D01*
X316434Y86000D01*
X316300Y87018D01*
X315907Y87967D01*
X315282Y88781D01*
X314467Y89407D01*
X313518Y89800D01*
X312500Y89934D01*
D02*
G37*
G36*
X302500D02*
X301482Y89800D01*
X300533Y89407D01*
X299718Y88781D01*
X299093Y87967D01*
X298700Y87018D01*
X298566Y86000D01*
X298700Y84982D01*
X299093Y84033D01*
X299718Y83218D01*
X300533Y82593D01*
X301482Y82200D01*
X302500Y82066D01*
X303518Y82200D01*
X304467Y82593D01*
X305281Y83218D01*
X305907Y84033D01*
X306300Y84982D01*
X306434Y86000D01*
X306300Y87018D01*
X305907Y87967D01*
X305281Y88781D01*
X304467Y89407D01*
X303518Y89800D01*
X302500Y89934D01*
D02*
G37*
G36*
X124400Y104290D02*
X116600D01*
Y96490D01*
X124400D01*
Y104290D01*
D02*
G37*
G36*
X214500Y135437D02*
X213759Y135290D01*
X213130Y134870D01*
X212710Y134241D01*
X212563Y133500D01*
X212710Y132759D01*
X213073Y132216D01*
Y98534D01*
X212710Y97991D01*
X212563Y97250D01*
X212710Y96509D01*
X212744Y96459D01*
X212461Y95929D01*
X199920D01*
X182929Y112920D01*
Y125000D01*
X182812Y125888D01*
X182470Y126715D01*
X181925Y127425D01*
X181215Y127970D01*
X180388Y128313D01*
X179500Y128429D01*
X178612Y128313D01*
X177785Y127970D01*
X177075Y127425D01*
X176530Y126715D01*
X176188Y125888D01*
X176071Y125000D01*
Y111500D01*
X176071Y111500D01*
X176071D01*
X176188Y110612D01*
X176530Y109785D01*
X177075Y109075D01*
X196075Y90075D01*
X196785Y89530D01*
X197612Y89188D01*
X198500Y89071D01*
X242808D01*
Y77500D01*
X242975Y76661D01*
X243450Y75950D01*
X244161Y75475D01*
X245000Y75308D01*
X245839Y75475D01*
X246550Y75950D01*
X247025Y76661D01*
X247192Y77500D01*
Y89071D01*
X256733D01*
X256926Y88503D01*
X256684Y88316D01*
X255938Y87345D01*
X255470Y86214D01*
X255310Y85000D01*
X255470Y83786D01*
X255938Y82655D01*
X256684Y81684D01*
X257655Y80938D01*
X258786Y80470D01*
X260000Y80310D01*
X261214Y80470D01*
X262345Y80938D01*
X263316Y81684D01*
X264062Y82655D01*
X264530Y83786D01*
X264690Y85000D01*
X264530Y86214D01*
X264062Y87345D01*
X263316Y88316D01*
X263074Y88503D01*
X263267Y89071D01*
X274233D01*
X274426Y88503D01*
X274184Y88316D01*
X273438Y87345D01*
X272970Y86214D01*
X272810Y85000D01*
X272970Y83786D01*
X273438Y82655D01*
X274184Y81684D01*
X275155Y80938D01*
X276286Y80470D01*
X277500Y80310D01*
X278714Y80470D01*
X279845Y80938D01*
X280816Y81684D01*
X281562Y82655D01*
X281984Y83675D01*
X286951D01*
X302073Y68552D01*
X302063Y68500D01*
X302210Y67759D01*
X302630Y67130D01*
X303259Y66710D01*
X304000Y66563D01*
X304741Y66710D01*
X305370Y67130D01*
X305790Y67759D01*
X305937Y68500D01*
X305790Y69241D01*
X305370Y69870D01*
X304741Y70290D01*
X304000Y70437D01*
X303948Y70427D01*
X288437Y85937D01*
X288007Y86225D01*
X287500Y86326D01*
X281984D01*
X281562Y87345D01*
X280816Y88316D01*
X280574Y88503D01*
X280767Y89071D01*
X283000D01*
X283888Y89188D01*
X284715Y89530D01*
X285425Y90075D01*
X299921Y104571D01*
X359071D01*
Y97912D01*
X358700Y97018D01*
X358566Y96000D01*
X358700Y94982D01*
X359093Y94033D01*
X359718Y93218D01*
X360533Y92593D01*
X361482Y92200D01*
X362500Y92066D01*
X363518Y92200D01*
X364467Y92593D01*
X365282Y93218D01*
X365907Y94033D01*
X366300Y94982D01*
X366434Y96000D01*
X366300Y97018D01*
X365929Y97912D01*
Y104571D01*
X410000D01*
X410888Y104688D01*
X411715Y105030D01*
X412425Y105575D01*
X412970Y106285D01*
X413312Y107112D01*
X413429Y108000D01*
X413312Y108888D01*
X412970Y109715D01*
X412425Y110425D01*
X411927Y110807D01*
Y111909D01*
X414091Y114073D01*
X426909D01*
X428573Y112409D01*
Y111284D01*
X428210Y110741D01*
X428063Y110000D01*
X428210Y109259D01*
X428630Y108630D01*
X429259Y108210D01*
X430000Y108063D01*
X430741Y108210D01*
X431370Y108630D01*
X431790Y109259D01*
X431937Y110000D01*
X431790Y110741D01*
X431427Y111284D01*
Y113000D01*
X431319Y113546D01*
X431195Y113732D01*
X431009Y114009D01*
X431009Y114009D01*
X428509Y116509D01*
X428046Y116819D01*
X427500Y116927D01*
X427500Y116927D01*
X413500D01*
X413500Y116927D01*
X412954Y116819D01*
X412491Y116509D01*
X412491Y116509D01*
X409491Y113509D01*
X409181Y113046D01*
X409073Y112500D01*
X409073Y112500D01*
Y111429D01*
X298500D01*
X297612Y111312D01*
X296785Y110970D01*
X296075Y110425D01*
X281579Y95929D01*
X280767D01*
X280574Y96497D01*
X280816Y96684D01*
X281562Y97655D01*
X282030Y98786D01*
X282190Y100000D01*
X282030Y101214D01*
X281562Y102345D01*
X280816Y103316D01*
X279845Y104062D01*
X278714Y104530D01*
X277500Y104690D01*
X276286Y104530D01*
X275155Y104062D01*
X274184Y103316D01*
X273438Y102345D01*
X272970Y101214D01*
X272810Y100000D01*
X272970Y98786D01*
X273438Y97655D01*
X274184Y96684D01*
X274426Y96497D01*
X274233Y95929D01*
X263267D01*
X263074Y96497D01*
X263316Y96684D01*
X264062Y97655D01*
X264530Y98786D01*
X264690Y100000D01*
X264530Y101214D01*
X264062Y102345D01*
X263316Y103316D01*
X262345Y104062D01*
X261214Y104530D01*
X260000Y104690D01*
X258786Y104530D01*
X257655Y104062D01*
X256684Y103316D01*
X255938Y102345D01*
X255470Y101214D01*
X255310Y100000D01*
X255470Y98786D01*
X255938Y97655D01*
X256684Y96684D01*
X256926Y96497D01*
X256733Y95929D01*
X216539D01*
X216256Y96459D01*
X216290Y96509D01*
X216437Y97250D01*
X216290Y97991D01*
X215927Y98534D01*
Y132216D01*
X216290Y132759D01*
X216437Y133500D01*
X216290Y134241D01*
X215870Y134870D01*
X215241Y135290D01*
X214500Y135437D01*
D02*
G37*
G36*
X61500Y125937D02*
X60759Y125790D01*
X60130Y125370D01*
X59710Y124741D01*
X59583Y124102D01*
X56991Y121509D01*
X56681Y121046D01*
X56573Y120500D01*
X56573Y120500D01*
Y112784D01*
X56210Y112241D01*
X56063Y111500D01*
X56210Y110759D01*
X56630Y110130D01*
X57259Y109710D01*
X58000Y109563D01*
X58741Y109710D01*
X59370Y110130D01*
X59790Y110759D01*
X59937Y111500D01*
X59790Y112241D01*
X59427Y112784D01*
Y119909D01*
X61602Y122083D01*
X62241Y122210D01*
X62870Y122630D01*
X63290Y123259D01*
X63437Y124000D01*
X63290Y124741D01*
X62870Y125370D01*
X62241Y125790D01*
X61500Y125937D01*
D02*
G37*
G36*
X197000Y143937D02*
X196259Y143790D01*
X195630Y143370D01*
X195210Y142741D01*
X195063Y142000D01*
X195210Y141259D01*
X195573Y140716D01*
Y138000D01*
Y117284D01*
X195210Y116741D01*
X195063Y116000D01*
X195210Y115259D01*
X195630Y114630D01*
X196259Y114210D01*
X197000Y114063D01*
X197741Y114210D01*
X198370Y114630D01*
X198790Y115259D01*
X198937Y116000D01*
X198790Y116741D01*
X198427Y117284D01*
Y138000D01*
Y140716D01*
X198790Y141259D01*
X198937Y142000D01*
X198790Y142741D01*
X198370Y143370D01*
X197741Y143790D01*
X197000Y143937D01*
D02*
G37*
G36*
X277500Y119690D02*
X276286Y119530D01*
X275155Y119062D01*
X274184Y118316D01*
X273438Y117345D01*
X272970Y116214D01*
X272810Y115000D01*
X272970Y113786D01*
X273438Y112655D01*
X274184Y111684D01*
X275155Y110938D01*
X276286Y110470D01*
X277500Y110310D01*
X278714Y110470D01*
X279845Y110938D01*
X280816Y111684D01*
X281562Y112655D01*
X282030Y113786D01*
X282190Y115000D01*
X282030Y116214D01*
X281562Y117345D01*
X280816Y118316D01*
X279845Y119062D01*
X278714Y119530D01*
X277500Y119690D01*
D02*
G37*
G36*
X322500Y99934D02*
X321482Y99800D01*
X320533Y99407D01*
X319719Y98782D01*
X319093Y97967D01*
X318700Y97018D01*
X318566Y96000D01*
X318700Y94982D01*
X319093Y94033D01*
X319719Y93218D01*
X320533Y92593D01*
X321482Y92200D01*
X322500Y92066D01*
X323518Y92200D01*
X324467Y92593D01*
X325282Y93218D01*
X325907Y94033D01*
X326300Y94982D01*
X326434Y96000D01*
X326300Y97018D01*
X325907Y97967D01*
X325282Y98782D01*
X324467Y99407D01*
X323518Y99800D01*
X322500Y99934D01*
D02*
G37*
G36*
X312500D02*
X311482Y99800D01*
X310533Y99407D01*
X309718Y98782D01*
X309093Y97967D01*
X308700Y97018D01*
X308566Y96000D01*
X308700Y94982D01*
X309093Y94033D01*
X309718Y93218D01*
X310533Y92593D01*
X311482Y92200D01*
X312500Y92066D01*
X313518Y92200D01*
X314467Y92593D01*
X315282Y93218D01*
X315907Y94033D01*
X316300Y94982D01*
X316434Y96000D01*
X316300Y97018D01*
X315907Y97967D01*
X315282Y98782D01*
X314467Y99407D01*
X313518Y99800D01*
X312500Y99934D01*
D02*
G37*
G36*
X332500D02*
X331482Y99800D01*
X330533Y99407D01*
X329718Y98782D01*
X329093Y97967D01*
X328700Y97018D01*
X328566Y96000D01*
X328700Y94982D01*
X329093Y94033D01*
X329718Y93218D01*
X330533Y92593D01*
X331482Y92200D01*
X332500Y92066D01*
X333518Y92200D01*
X334467Y92593D01*
X335281Y93218D01*
X335907Y94033D01*
X336300Y94982D01*
X336434Y96000D01*
X336300Y97018D01*
X335907Y97967D01*
X335281Y98782D01*
X334467Y99407D01*
X333518Y99800D01*
X332500Y99934D01*
D02*
G37*
G36*
X352500D02*
X351482Y99800D01*
X350533Y99407D01*
X349718Y98782D01*
X349093Y97967D01*
X348700Y97018D01*
X348566Y96000D01*
X348700Y94982D01*
X349093Y94033D01*
X349718Y93218D01*
X350533Y92593D01*
X351482Y92200D01*
X352500Y92066D01*
X353518Y92200D01*
X354467Y92593D01*
X355281Y93218D01*
X355907Y94033D01*
X356300Y94982D01*
X356434Y96000D01*
X356300Y97018D01*
X355907Y97967D01*
X355281Y98782D01*
X354467Y99407D01*
X353518Y99800D01*
X352500Y99934D01*
D02*
G37*
G36*
X342500D02*
X341482Y99800D01*
X340533Y99407D01*
X339719Y98782D01*
X339093Y97967D01*
X338700Y97018D01*
X338566Y96000D01*
X338700Y94982D01*
X339093Y94033D01*
X339719Y93218D01*
X340533Y92593D01*
X341482Y92200D01*
X342500Y92066D01*
X343518Y92200D01*
X344467Y92593D01*
X345282Y93218D01*
X345907Y94033D01*
X346300Y94982D01*
X346434Y96000D01*
X346300Y97018D01*
X345907Y97967D01*
X345282Y98782D01*
X344467Y99407D01*
X343518Y99800D01*
X342500Y99934D01*
D02*
G37*
G36*
X253748Y35989D02*
X252845Y35870D01*
X252004Y35522D01*
X251281Y34967D01*
X250727Y34244D01*
X250378Y33403D01*
X250259Y32500D01*
X250378Y31597D01*
X250727Y30755D01*
X251281Y30033D01*
X252004Y29478D01*
X252845Y29130D01*
X253748Y29011D01*
X254651Y29130D01*
X255492Y29478D01*
X256215Y30033D01*
X256769Y30755D01*
X257118Y31597D01*
X257237Y32500D01*
X257118Y33403D01*
X256769Y34244D01*
X256215Y34967D01*
X255492Y35522D01*
X254651Y35870D01*
X253748Y35989D01*
D02*
G37*
G36*
X213248D02*
X212345Y35870D01*
X211504Y35522D01*
X210781Y34967D01*
X210226Y34244D01*
X209878Y33403D01*
X209759Y32500D01*
X209878Y31597D01*
X210226Y30755D01*
X210781Y30033D01*
X211504Y29478D01*
X212345Y29130D01*
X213248Y29011D01*
X214151Y29130D01*
X214992Y29478D01*
X215715Y30033D01*
X216269Y30755D01*
X216618Y31597D01*
X216737Y32500D01*
X216618Y33403D01*
X216269Y34244D01*
X215715Y34967D01*
X214992Y35522D01*
X214151Y35870D01*
X213248Y35989D01*
D02*
G37*
G36*
X261622D02*
X260719Y35870D01*
X259878Y35522D01*
X259155Y34967D01*
X258601Y34244D01*
X258252Y33403D01*
X258133Y32500D01*
X258252Y31597D01*
X258601Y30755D01*
X259155Y30033D01*
X259878Y29478D01*
X260719Y29130D01*
X261622Y29011D01*
X262525Y29130D01*
X263367Y29478D01*
X264089Y30033D01*
X264644Y30755D01*
X264992Y31597D01*
X265111Y32500D01*
X264992Y33403D01*
X264644Y34244D01*
X264089Y34967D01*
X263367Y35522D01*
X262525Y35870D01*
X261622Y35989D01*
D02*
G37*
G36*
X168459Y35959D02*
X161541D01*
Y29041D01*
X168459D01*
Y35959D01*
D02*
G37*
G36*
X120459D02*
X113541D01*
Y29041D01*
X120459D01*
Y35959D01*
D02*
G37*
G36*
X80870Y25425D02*
X79517Y25292D01*
X78217Y24898D01*
X77018Y24257D01*
X75967Y23395D01*
X75105Y22344D01*
X74464Y21145D01*
X74070Y19845D01*
X73937Y18492D01*
X74070Y17140D01*
X74464Y15839D01*
X75105Y14640D01*
X75967Y13589D01*
X77018Y12727D01*
X78217Y12087D01*
X79517Y11692D01*
X80870Y11559D01*
X82223Y11692D01*
X83523Y12087D01*
X84722Y12727D01*
X85773Y13589D01*
X86635Y14640D01*
X87276Y15839D01*
X87670Y17140D01*
X87804Y18492D01*
X87670Y19845D01*
X87276Y21145D01*
X86635Y22344D01*
X85773Y23395D01*
X84722Y24257D01*
X83523Y24898D01*
X82223Y25292D01*
X80870Y25425D01*
D02*
G37*
G36*
X52130D02*
X50777Y25292D01*
X49477Y24898D01*
X48278Y24257D01*
X47227Y23395D01*
X46365Y22344D01*
X45724Y21145D01*
X45330Y19845D01*
X45197Y18492D01*
X45330Y17140D01*
X45724Y15839D01*
X46365Y14640D01*
X47227Y13589D01*
X48278Y12727D01*
X49477Y12087D01*
X50777Y11692D01*
X52130Y11559D01*
X53483Y11692D01*
X54783Y12087D01*
X55982Y12727D01*
X57033Y13589D01*
X57895Y14640D01*
X58535Y15839D01*
X58930Y17140D01*
X59063Y18492D01*
X58930Y19845D01*
X58535Y21145D01*
X57895Y22344D01*
X57033Y23395D01*
X55982Y24257D01*
X54783Y24898D01*
X53483Y25292D01*
X52130Y25425D01*
D02*
G37*
G36*
X132748Y35989D02*
X131845Y35870D01*
X131004Y35522D01*
X130281Y34967D01*
X129727Y34244D01*
X129378Y33403D01*
X129259Y32500D01*
X129378Y31597D01*
X129727Y30755D01*
X130281Y30033D01*
X131004Y29478D01*
X131845Y29130D01*
X132748Y29011D01*
X133651Y29130D01*
X134493Y29478D01*
X135215Y30033D01*
X135769Y30755D01*
X136118Y31597D01*
X136237Y32500D01*
X136118Y33403D01*
X135769Y34244D01*
X135215Y34967D01*
X134493Y35522D01*
X133651Y35870D01*
X132748Y35989D01*
D02*
G37*
G36*
X172874D02*
X171971Y35870D01*
X171130Y35522D01*
X170407Y34967D01*
X169852Y34244D01*
X169504Y33403D01*
X169385Y32500D01*
X169504Y31597D01*
X169852Y30755D01*
X170407Y30033D01*
X171130Y29478D01*
X171971Y29130D01*
X172874Y29011D01*
X173777Y29130D01*
X174618Y29478D01*
X175341Y30033D01*
X175896Y30755D01*
X176244Y31597D01*
X176363Y32500D01*
X176244Y33403D01*
X175896Y34244D01*
X175341Y34967D01*
X174618Y35522D01*
X173777Y35870D01*
X172874Y35989D01*
D02*
G37*
G36*
X140622D02*
X139719Y35870D01*
X138878Y35522D01*
X138155Y34967D01*
X137601Y34244D01*
X137252Y33403D01*
X137133Y32500D01*
X137252Y31597D01*
X137601Y30755D01*
X138155Y30033D01*
X138878Y29478D01*
X139719Y29130D01*
X140622Y29011D01*
X141525Y29130D01*
X142367Y29478D01*
X143089Y30033D01*
X143643Y30755D01*
X143992Y31597D01*
X144111Y32500D01*
X143992Y33403D01*
X143643Y34244D01*
X143089Y34967D01*
X142367Y35522D01*
X141525Y35870D01*
X140622Y35989D01*
D02*
G37*
G36*
X294000Y47434D02*
X292982Y47300D01*
X292033Y46907D01*
X291218Y46281D01*
X290593Y45467D01*
X290200Y44518D01*
X290066Y43500D01*
X290200Y42482D01*
X290593Y41533D01*
X291218Y40718D01*
X292033Y40093D01*
X292982Y39700D01*
X294000Y39566D01*
X295018Y39700D01*
X295967Y40093D01*
X296781Y40718D01*
X297407Y41533D01*
X297800Y42482D01*
X297934Y43500D01*
X297800Y44518D01*
X297407Y45467D01*
X296781Y46281D01*
X295967Y46907D01*
X295018Y47300D01*
X294000Y47434D01*
D02*
G37*
G36*
X76806Y39900D02*
X68006D01*
Y31100D01*
X76806D01*
Y39900D01*
D02*
G37*
G36*
X304000Y47434D02*
X302982Y47300D01*
X302033Y46907D01*
X301219Y46281D01*
X300593Y45467D01*
X300200Y44518D01*
X300066Y43500D01*
X300200Y42482D01*
X300593Y41533D01*
X301219Y40718D01*
X302033Y40093D01*
X302982Y39700D01*
X304000Y39566D01*
X305018Y39700D01*
X305967Y40093D01*
X306782Y40718D01*
X307407Y41533D01*
X307800Y42482D01*
X307934Y43500D01*
X307800Y44518D01*
X307407Y45467D01*
X306782Y46281D01*
X305967Y46907D01*
X305018Y47300D01*
X304000Y47434D01*
D02*
G37*
G36*
X260000Y72190D02*
X258786Y72030D01*
X257655Y71562D01*
X256684Y70816D01*
X255938Y69845D01*
X255470Y68714D01*
X255310Y67500D01*
X255470Y66286D01*
X255938Y65155D01*
X256684Y64184D01*
X257655Y63438D01*
X258786Y62970D01*
X260000Y62810D01*
X261214Y62970D01*
X262345Y63438D01*
X263316Y64184D01*
X264062Y65155D01*
X264530Y66286D01*
X264690Y67500D01*
X264530Y68714D01*
X264062Y69845D01*
X263316Y70816D01*
X262345Y71562D01*
X261214Y72030D01*
X260000Y72190D01*
D02*
G37*
G36*
X413010Y61400D02*
X405210D01*
Y53600D01*
X413010D01*
Y61400D01*
D02*
G37*
G36*
X241459Y35959D02*
X234541D01*
Y29041D01*
X241459D01*
Y35959D01*
D02*
G37*
G36*
X200959D02*
X194041D01*
Y29041D01*
X200959D01*
Y35959D01*
D02*
G37*
G36*
X356248Y36489D02*
X355345Y36370D01*
X354504Y36022D01*
X353781Y35467D01*
X353226Y34745D01*
X352878Y33903D01*
X352759Y33000D01*
X352878Y32097D01*
X353226Y31255D01*
X353781Y30533D01*
X354504Y29978D01*
X355345Y29630D01*
X356248Y29511D01*
X357151Y29630D01*
X357993Y29978D01*
X358715Y30533D01*
X359269Y31255D01*
X359618Y32097D01*
X359737Y33000D01*
X359618Y33903D01*
X359269Y34745D01*
X358715Y35467D01*
X357993Y36022D01*
X357151Y36370D01*
X356248Y36489D01*
D02*
G37*
G36*
X343959Y36459D02*
X337041D01*
Y29541D01*
X343959D01*
Y36459D01*
D02*
G37*
G36*
X364122Y36489D02*
X363219Y36370D01*
X362378Y36022D01*
X361655Y35467D01*
X361101Y34745D01*
X360752Y33903D01*
X360633Y33000D01*
X360752Y32097D01*
X361101Y31255D01*
X361655Y30533D01*
X362378Y29978D01*
X363219Y29630D01*
X364122Y29511D01*
X365025Y29630D01*
X365866Y29978D01*
X366589Y30533D01*
X367144Y31255D01*
X367492Y32097D01*
X367611Y33000D01*
X367492Y33903D01*
X367144Y34745D01*
X366589Y35467D01*
X365866Y36022D01*
X365025Y36370D01*
X364122Y36489D01*
D02*
G37*
G36*
X277500Y134690D02*
X276286Y134530D01*
X275155Y134062D01*
X274184Y133316D01*
X273438Y132345D01*
X272970Y131214D01*
X272810Y130000D01*
X272970Y128786D01*
X273438Y127655D01*
X274184Y126684D01*
X275155Y125938D01*
X276286Y125470D01*
X277500Y125310D01*
X278714Y125470D01*
X279845Y125938D01*
X280816Y126684D01*
X281562Y127655D01*
X282030Y128786D01*
X282190Y130000D01*
X282030Y131214D01*
X281562Y132345D01*
X280816Y133316D01*
X279845Y134062D01*
X278714Y134530D01*
X277500Y134690D01*
D02*
G37*
G36*
X160000Y257434D02*
X158982Y257300D01*
X158033Y256907D01*
X157219Y256281D01*
X156593Y255467D01*
X156200Y254518D01*
X156066Y253500D01*
X156200Y252482D01*
X156593Y251533D01*
X157219Y250718D01*
X158033Y250093D01*
X158982Y249700D01*
X160000Y249566D01*
X161018Y249700D01*
X161967Y250093D01*
X162782Y250718D01*
X163407Y251533D01*
X163800Y252482D01*
X163934Y253500D01*
X163800Y254518D01*
X163407Y255467D01*
X162782Y256281D01*
X161967Y256907D01*
X161018Y257300D01*
X160000Y257434D01*
D02*
G37*
G36*
X129000Y248934D02*
X127982Y248800D01*
X127033Y248407D01*
X126218Y247781D01*
X125593Y246967D01*
X125200Y246018D01*
X125066Y245000D01*
X125200Y243982D01*
X125593Y243033D01*
X126218Y242218D01*
X127033Y241593D01*
X127982Y241200D01*
X129000Y241066D01*
X130018Y241200D01*
X130967Y241593D01*
X131781Y242218D01*
X132407Y243033D01*
X132800Y243982D01*
X132934Y245000D01*
X132800Y246018D01*
X132407Y246967D01*
X131781Y247781D01*
X130967Y248407D01*
X130018Y248800D01*
X129000Y248934D01*
D02*
G37*
G36*
X260000Y257434D02*
X258982Y257300D01*
X258033Y256907D01*
X257219Y256281D01*
X256593Y255467D01*
X256200Y254518D01*
X256066Y253500D01*
X256200Y252482D01*
X256593Y251533D01*
X257219Y250718D01*
X258033Y250093D01*
X258982Y249700D01*
X260000Y249566D01*
X261018Y249700D01*
X261967Y250093D01*
X262782Y250718D01*
X263407Y251533D01*
X263800Y252482D01*
X263934Y253500D01*
X263800Y254518D01*
X263407Y255467D01*
X262782Y256281D01*
X261967Y256907D01*
X261018Y257300D01*
X260000Y257434D01*
D02*
G37*
G36*
Y277434D02*
X258982Y277300D01*
X258033Y276907D01*
X257219Y276281D01*
X256593Y275467D01*
X256200Y274518D01*
X256066Y273500D01*
X256200Y272482D01*
X256593Y271533D01*
X257219Y270719D01*
X258033Y270093D01*
X258982Y269700D01*
X260000Y269566D01*
X261018Y269700D01*
X261967Y270093D01*
X262782Y270719D01*
X263407Y271533D01*
X263800Y272482D01*
X263934Y273500D01*
X263800Y274518D01*
X263407Y275467D01*
X262782Y276281D01*
X261967Y276907D01*
X261018Y277300D01*
X260000Y277434D01*
D02*
G37*
G36*
X129000Y258934D02*
X127982Y258800D01*
X127033Y258407D01*
X126218Y257782D01*
X125593Y256967D01*
X125200Y256018D01*
X125066Y255000D01*
X125200Y253982D01*
X125593Y253033D01*
X126218Y252219D01*
X127033Y251593D01*
X127982Y251200D01*
X129000Y251066D01*
X130018Y251200D01*
X130967Y251593D01*
X131781Y252219D01*
X132407Y253033D01*
X132800Y253982D01*
X132934Y255000D01*
X132800Y256018D01*
X132407Y256967D01*
X131781Y257782D01*
X130967Y258407D01*
X130018Y258800D01*
X129000Y258934D01*
D02*
G37*
G36*
X260000Y237434D02*
X258982Y237300D01*
X258033Y236907D01*
X257219Y236281D01*
X256593Y235467D01*
X256200Y234518D01*
X256066Y233500D01*
X256200Y232482D01*
X256593Y231533D01*
X257219Y230718D01*
X258033Y230093D01*
X258982Y229700D01*
X260000Y229566D01*
X261018Y229700D01*
X261967Y230093D01*
X262782Y230718D01*
X263407Y231533D01*
X263800Y232482D01*
X263934Y233500D01*
X263800Y234518D01*
X263407Y235467D01*
X262782Y236281D01*
X261967Y236907D01*
X261018Y237300D01*
X260000Y237434D01*
D02*
G37*
G36*
X160000D02*
X158982Y237300D01*
X158033Y236907D01*
X157219Y236281D01*
X156593Y235467D01*
X156200Y234518D01*
X156066Y233500D01*
X156200Y232482D01*
X156593Y231533D01*
X157219Y230718D01*
X158033Y230093D01*
X158982Y229700D01*
X160000Y229566D01*
X161018Y229700D01*
X161967Y230093D01*
X162782Y230718D01*
X163407Y231533D01*
X163800Y232482D01*
X163934Y233500D01*
X163800Y234518D01*
X163407Y235467D01*
X162782Y236281D01*
X161967Y236907D01*
X161018Y237300D01*
X160000Y237434D01*
D02*
G37*
G36*
X129000Y238934D02*
X127982Y238800D01*
X127033Y238407D01*
X126218Y237782D01*
X125593Y236967D01*
X125200Y236018D01*
X125066Y235000D01*
X125200Y233982D01*
X125593Y233033D01*
X126218Y232219D01*
X127033Y231593D01*
X127982Y231200D01*
X129000Y231066D01*
X130018Y231200D01*
X130967Y231593D01*
X131781Y232219D01*
X132407Y233033D01*
X132800Y233982D01*
X132934Y235000D01*
X132800Y236018D01*
X132407Y236967D01*
X131781Y237782D01*
X130967Y238407D01*
X130018Y238800D01*
X129000Y238934D01*
D02*
G37*
G36*
X260000Y247434D02*
X258982Y247300D01*
X258033Y246907D01*
X257219Y246282D01*
X256593Y245467D01*
X256200Y244518D01*
X256066Y243500D01*
X256200Y242482D01*
X256593Y241533D01*
X257219Y240719D01*
X258033Y240093D01*
X258982Y239700D01*
X260000Y239566D01*
X261018Y239700D01*
X261967Y240093D01*
X262782Y240719D01*
X263407Y241533D01*
X263800Y242482D01*
X263934Y243500D01*
X263800Y244518D01*
X263407Y245467D01*
X262782Y246282D01*
X261967Y246907D01*
X261018Y247300D01*
X260000Y247434D01*
D02*
G37*
G36*
X160000D02*
X158982Y247300D01*
X158033Y246907D01*
X157219Y246282D01*
X156593Y245467D01*
X156200Y244518D01*
X156066Y243500D01*
X156200Y242482D01*
X156593Y241533D01*
X157219Y240719D01*
X158033Y240093D01*
X158982Y239700D01*
X160000Y239566D01*
X161018Y239700D01*
X161967Y240093D01*
X162782Y240719D01*
X163407Y241533D01*
X163800Y242482D01*
X163934Y243500D01*
X163800Y244518D01*
X163407Y245467D01*
X162782Y246282D01*
X161967Y246907D01*
X161018Y247300D01*
X160000Y247434D01*
D02*
G37*
G36*
X130000Y329690D02*
X128786Y329530D01*
X127655Y329062D01*
X126684Y328316D01*
X125938Y327345D01*
X125470Y326214D01*
X125310Y325000D01*
X125470Y323786D01*
X125938Y322655D01*
X126684Y321684D01*
X127655Y320938D01*
X128786Y320470D01*
X130000Y320310D01*
X131214Y320470D01*
X132345Y320938D01*
X133316Y321684D01*
X134062Y322655D01*
X134530Y323786D01*
X134690Y325000D01*
X134530Y326214D01*
X134062Y327345D01*
X133316Y328316D01*
X132345Y329062D01*
X131214Y329530D01*
X130000Y329690D01*
D02*
G37*
G36*
X110000D02*
X108786Y329530D01*
X107655Y329062D01*
X106684Y328316D01*
X105938Y327345D01*
X105470Y326214D01*
X105310Y325000D01*
X105470Y323786D01*
X105938Y322655D01*
X106684Y321684D01*
X107655Y320938D01*
X108786Y320470D01*
X110000Y320310D01*
X111214Y320470D01*
X112345Y320938D01*
X113316Y321684D01*
X114062Y322655D01*
X114530Y323786D01*
X114690Y325000D01*
X114530Y326214D01*
X114062Y327345D01*
X113316Y328316D01*
X112345Y329062D01*
X111214Y329530D01*
X110000Y329690D01*
D02*
G37*
G36*
X230000D02*
X228786Y329530D01*
X227655Y329062D01*
X226684Y328316D01*
X225938Y327345D01*
X225470Y326214D01*
X225310Y325000D01*
X225470Y323786D01*
X225938Y322655D01*
X226684Y321684D01*
X227655Y320938D01*
X228786Y320470D01*
X230000Y320310D01*
X231214Y320470D01*
X232345Y320938D01*
X233316Y321684D01*
X234062Y322655D01*
X234530Y323786D01*
X234690Y325000D01*
X234530Y326214D01*
X234062Y327345D01*
X233316Y328316D01*
X232345Y329062D01*
X231214Y329530D01*
X230000Y329690D01*
D02*
G37*
G36*
X194000Y337937D02*
X193259Y337790D01*
X192630Y337370D01*
X192210Y336741D01*
X192083Y336102D01*
X183909Y327927D01*
X159784D01*
X159241Y328290D01*
X158500Y328437D01*
X157759Y328290D01*
X157130Y327870D01*
X156710Y327241D01*
X156563Y326500D01*
X156710Y325759D01*
X157073Y325216D01*
Y277400D01*
X156100D01*
Y276929D01*
X149500D01*
X148612Y276813D01*
X147785Y276470D01*
X147075Y275925D01*
X143075Y271925D01*
X142530Y271215D01*
X142188Y270388D01*
X142071Y269500D01*
Y210267D01*
X142032Y210218D01*
X141325Y209675D01*
X140079Y208429D01*
X130912D01*
X130018Y208800D01*
X129000Y208934D01*
X127982Y208800D01*
X127088Y208429D01*
X106000D01*
X105112Y208313D01*
X104285Y207970D01*
X103575Y207425D01*
X92075Y195925D01*
X91530Y195215D01*
X91188Y194388D01*
X91071Y193500D01*
Y176290D01*
X90600D01*
Y168490D01*
X98400D01*
Y176290D01*
X97929D01*
Y192079D01*
X107421Y201571D01*
X127088D01*
X127982Y201200D01*
X129000Y201066D01*
X130018Y201200D01*
X130912Y201571D01*
X141500D01*
X142388Y201688D01*
X143215Y202030D01*
X143925Y202575D01*
X143925Y202575D01*
X143925Y202575D01*
X146175Y204825D01*
X146718Y205532D01*
X147425Y206075D01*
X147658Y206308D01*
X156560D01*
X156826Y205770D01*
X156593Y205467D01*
X156200Y204518D01*
X156066Y203500D01*
X156200Y202482D01*
X156593Y201533D01*
X157219Y200718D01*
X158033Y200093D01*
X158982Y199700D01*
X160000Y199566D01*
X161018Y199700D01*
X161967Y200093D01*
X162782Y200718D01*
X163407Y201533D01*
X163800Y202482D01*
X163934Y203500D01*
X163800Y204518D01*
X163407Y205467D01*
X163174Y205770D01*
X163440Y206308D01*
X170342D01*
X180308Y196342D01*
Y173500D01*
Y143500D01*
Y137750D01*
X180475Y136911D01*
X180950Y136200D01*
X180950Y136200D01*
X180950Y136200D01*
X187575Y129575D01*
X188286Y129100D01*
X189125Y128933D01*
X189964Y129100D01*
X190675Y129575D01*
X191150Y130286D01*
X191317Y131125D01*
X191150Y131964D01*
X190675Y132675D01*
X184692Y138658D01*
Y143500D01*
Y172073D01*
X240073D01*
Y167784D01*
X239710Y167241D01*
X239563Y166500D01*
X239710Y165759D01*
X240073Y165216D01*
Y149284D01*
X239710Y148741D01*
X239563Y148000D01*
X239710Y147259D01*
X240130Y146630D01*
X240759Y146210D01*
X241500Y146063D01*
X242241Y146210D01*
X242870Y146630D01*
X243290Y147259D01*
X243437Y148000D01*
X243290Y148741D01*
X242927Y149284D01*
Y165216D01*
X243290Y165759D01*
X243437Y166500D01*
X243290Y167241D01*
X242927Y167784D01*
Y173500D01*
Y184716D01*
X243290Y185259D01*
X243437Y186000D01*
X243290Y186741D01*
X242870Y187370D01*
X242241Y187790D01*
X241500Y187937D01*
X240759Y187790D01*
X240130Y187370D01*
X239710Y186741D01*
X239563Y186000D01*
X239710Y185259D01*
X240073Y184716D01*
Y174927D01*
X184692D01*
Y197250D01*
X184525Y198089D01*
X184050Y198800D01*
X172800Y210050D01*
X172089Y210525D01*
X171250Y210692D01*
X163440D01*
X163174Y211230D01*
X163407Y211533D01*
X163800Y212482D01*
X163934Y213500D01*
X163800Y214518D01*
X163407Y215467D01*
X162782Y216282D01*
X161967Y216907D01*
X161018Y217300D01*
X160000Y217434D01*
X158982Y217300D01*
X158033Y216907D01*
X157219Y216282D01*
X156593Y215467D01*
X156200Y214518D01*
X156066Y213500D01*
X156200Y212482D01*
X156593Y211533D01*
X156826Y211230D01*
X156560Y210692D01*
X148929D01*
Y268079D01*
X150920Y270071D01*
X156100D01*
Y269600D01*
X163900D01*
Y277400D01*
X159927D01*
Y325073D01*
X184500D01*
X184500Y325073D01*
X185046Y325181D01*
X185509Y325491D01*
X194102Y334083D01*
X194741Y334210D01*
X195370Y334630D01*
X195790Y335259D01*
X195937Y336000D01*
X195790Y336741D01*
X195370Y337370D01*
X194741Y337790D01*
X194000Y337937D01*
D02*
G37*
G36*
X260000Y329690D02*
X258786Y329530D01*
X257655Y329062D01*
X256684Y328316D01*
X255938Y327345D01*
X255470Y326214D01*
X255310Y325000D01*
X255470Y323786D01*
X255938Y322655D01*
X256684Y321684D01*
X257655Y320938D01*
X258786Y320470D01*
X260000Y320310D01*
X261214Y320470D01*
X262345Y320938D01*
X263316Y321684D01*
X264062Y322655D01*
X264530Y323786D01*
X264690Y325000D01*
X264530Y326214D01*
X264062Y327345D01*
X263316Y328316D01*
X262345Y329062D01*
X261214Y329530D01*
X260000Y329690D01*
D02*
G37*
G36*
X13000Y293441D02*
X11353Y293279D01*
X9770Y292798D01*
X8311Y292018D01*
X7032Y290968D01*
X5982Y289689D01*
X5202Y288230D01*
X4721Y286647D01*
X4559Y285000D01*
X4721Y283353D01*
X5202Y281770D01*
X5982Y280311D01*
X7032Y279032D01*
X8311Y277982D01*
X9770Y277202D01*
X11353Y276722D01*
X13000Y276559D01*
X14647Y276722D01*
X16230Y277202D01*
X17689Y277982D01*
X18968Y279032D01*
X20018Y280311D01*
X20798Y281770D01*
X21279Y283353D01*
X21441Y285000D01*
X21279Y286647D01*
X20798Y288230D01*
X20018Y289689D01*
X18968Y290968D01*
X17689Y292018D01*
X16230Y292798D01*
X14647Y293279D01*
X13000Y293441D01*
D02*
G37*
G36*
X129000Y278934D02*
X127982Y278800D01*
X127033Y278407D01*
X126218Y277782D01*
X125593Y276967D01*
X125200Y276018D01*
X125066Y275000D01*
X125200Y273982D01*
X125593Y273033D01*
X126218Y272218D01*
X127033Y271593D01*
X127982Y271200D01*
X129000Y271066D01*
X130018Y271200D01*
X130967Y271593D01*
X131781Y272218D01*
X132407Y273033D01*
X132800Y273982D01*
X132934Y275000D01*
X132800Y276018D01*
X132407Y276967D01*
X131781Y277782D01*
X130967Y278407D01*
X130018Y278800D01*
X129000Y278934D01*
D02*
G37*
G36*
X132900Y288900D02*
X125100D01*
Y281100D01*
X132900D01*
Y288900D01*
D02*
G37*
G36*
X90000Y329690D02*
X88786Y329530D01*
X87655Y329062D01*
X86684Y328316D01*
X85938Y327345D01*
X85470Y326214D01*
X85310Y325000D01*
X85470Y323786D01*
X85938Y322655D01*
X86684Y321684D01*
X87655Y320938D01*
X88786Y320470D01*
X90000Y320310D01*
X91214Y320470D01*
X92345Y320938D01*
X93316Y321684D01*
X94062Y322655D01*
X94530Y323786D01*
X94690Y325000D01*
X94530Y326214D01*
X94062Y327345D01*
X93316Y328316D01*
X92345Y329062D01*
X91214Y329530D01*
X90000Y329690D01*
D02*
G37*
G36*
X189000Y324736D02*
X188259Y324589D01*
X187630Y324169D01*
X187210Y323540D01*
X187063Y322799D01*
X187210Y322058D01*
X187573Y321516D01*
Y317284D01*
X187210Y316741D01*
X187063Y316000D01*
X187210Y315259D01*
X187630Y314630D01*
X188259Y314210D01*
X189000Y314063D01*
X189741Y314210D01*
X190370Y314630D01*
X190790Y315259D01*
X190937Y316000D01*
X190790Y316741D01*
X190427Y317284D01*
Y321516D01*
X190790Y322058D01*
X190937Y322799D01*
X190790Y323540D01*
X190370Y324169D01*
X189741Y324589D01*
X189000Y324736D01*
D02*
G37*
G36*
X129000Y228934D02*
X127982Y228800D01*
X127033Y228407D01*
X126218Y227782D01*
X125593Y226967D01*
X125200Y226018D01*
X125066Y225000D01*
X125200Y223982D01*
X125593Y223033D01*
X126218Y222218D01*
X127033Y221593D01*
X127982Y221200D01*
X129000Y221066D01*
X130018Y221200D01*
X130967Y221593D01*
X131781Y222218D01*
X132407Y223033D01*
X132800Y223982D01*
X132934Y225000D01*
X132800Y226018D01*
X132407Y226967D01*
X131781Y227782D01*
X130967Y228407D01*
X130018Y228800D01*
X129000Y228934D01*
D02*
G37*
G36*
X160000Y167434D02*
X158982Y167300D01*
X158033Y166907D01*
X157219Y166281D01*
X156593Y165467D01*
X156200Y164518D01*
X156066Y163500D01*
X156200Y162482D01*
X156593Y161533D01*
X157219Y160719D01*
X158033Y160093D01*
X158982Y159700D01*
X160000Y159566D01*
X161018Y159700D01*
X161967Y160093D01*
X162782Y160719D01*
X163407Y161533D01*
X163800Y162482D01*
X163934Y163500D01*
X163800Y164518D01*
X163407Y165467D01*
X162782Y166281D01*
X161967Y166907D01*
X161018Y167300D01*
X160000Y167434D01*
D02*
G37*
G36*
X260000Y157434D02*
X258982Y157300D01*
X258033Y156907D01*
X257219Y156281D01*
X256593Y155467D01*
X256200Y154518D01*
X256066Y153500D01*
X256200Y152482D01*
X256593Y151533D01*
X257219Y150718D01*
X258033Y150093D01*
X258982Y149700D01*
X260000Y149566D01*
X261018Y149700D01*
X261967Y150093D01*
X262782Y150718D01*
X263407Y151533D01*
X263800Y152482D01*
X263934Y153500D01*
X263800Y154518D01*
X263407Y155467D01*
X262782Y156281D01*
X261967Y156907D01*
X261018Y157300D01*
X260000Y157434D01*
D02*
G37*
G36*
Y167434D02*
X258982Y167300D01*
X258033Y166907D01*
X257219Y166281D01*
X256593Y165467D01*
X256200Y164518D01*
X256066Y163500D01*
X256200Y162482D01*
X256593Y161533D01*
X257219Y160719D01*
X258033Y160093D01*
X258982Y159700D01*
X260000Y159566D01*
X261018Y159700D01*
X261967Y160093D01*
X262782Y160719D01*
X263407Y161533D01*
X263800Y162482D01*
X263934Y163500D01*
X263800Y164518D01*
X263407Y165467D01*
X262782Y166281D01*
X261967Y166907D01*
X261018Y167300D01*
X260000Y167434D01*
D02*
G37*
G36*
X160000Y177434D02*
X158982Y177300D01*
X158033Y176907D01*
X157219Y176281D01*
X156593Y175467D01*
X156200Y174518D01*
X156066Y173500D01*
X156200Y172482D01*
X156593Y171533D01*
X156993Y171012D01*
X109759Y123778D01*
X109741Y123790D01*
X109000Y123937D01*
X108259Y123790D01*
X107630Y123370D01*
X107210Y122741D01*
X107063Y122000D01*
X107097Y121827D01*
X106673Y121403D01*
X106500Y121437D01*
X105759Y121290D01*
X105130Y120870D01*
X104710Y120241D01*
X104563Y119500D01*
X104710Y118759D01*
X105130Y118130D01*
X105759Y117710D01*
X106500Y117563D01*
X107241Y117710D01*
X107784Y118073D01*
X110500D01*
X110500Y118073D01*
X111046Y118181D01*
X111509Y118491D01*
X135091Y142073D01*
X156370D01*
X156593Y141533D01*
X157219Y140718D01*
X158033Y140093D01*
X158982Y139700D01*
X160000Y139566D01*
X161018Y139700D01*
X161967Y140093D01*
X162782Y140718D01*
X163407Y141533D01*
X163800Y142482D01*
X163934Y143500D01*
X163800Y144518D01*
X163407Y145467D01*
X162782Y146282D01*
X161967Y146907D01*
X161018Y147300D01*
X160000Y147434D01*
X158982Y147300D01*
X158033Y146907D01*
X157219Y146282D01*
X156593Y145467D01*
X156370Y144927D01*
X135730D01*
X135501Y145482D01*
X159633Y169615D01*
X160000Y169566D01*
X161018Y169700D01*
X161967Y170093D01*
X162782Y170719D01*
X163407Y171533D01*
X163800Y172482D01*
X163934Y173500D01*
X163800Y174518D01*
X163407Y175467D01*
X162782Y176281D01*
X161967Y176907D01*
X161018Y177300D01*
X160000Y177434D01*
D02*
G37*
G36*
X417510Y167900D02*
X409710D01*
Y160100D01*
X417510D01*
Y167900D01*
D02*
G37*
G36*
X160000Y137434D02*
X158982Y137300D01*
X158033Y136907D01*
X157219Y136282D01*
X156593Y135467D01*
X156200Y134518D01*
X156066Y133500D01*
X156200Y132482D01*
X156593Y131533D01*
X157219Y130719D01*
X158033Y130093D01*
X158982Y129700D01*
X160000Y129566D01*
X161018Y129700D01*
X161967Y130093D01*
X162782Y130719D01*
X163407Y131533D01*
X163800Y132482D01*
X163934Y133500D01*
X163800Y134518D01*
X163407Y135467D01*
X162782Y136282D01*
X161967Y136907D01*
X161018Y137300D01*
X160000Y137434D01*
D02*
G37*
G36*
X98400Y133290D02*
X90600D01*
Y125490D01*
X98400D01*
Y133290D01*
D02*
G37*
G36*
X263900Y137400D02*
X256100D01*
Y129600D01*
X263900D01*
Y137400D01*
D02*
G37*
G36*
X160000Y157434D02*
X158982Y157300D01*
X158033Y156907D01*
X157219Y156281D01*
X156593Y155467D01*
X156200Y154518D01*
X156066Y153500D01*
X156200Y152482D01*
X156593Y151533D01*
X157219Y150718D01*
X158033Y150093D01*
X158982Y149700D01*
X160000Y149566D01*
X161018Y149700D01*
X161967Y150093D01*
X162782Y150718D01*
X163407Y151533D01*
X163800Y152482D01*
X163934Y153500D01*
X163800Y154518D01*
X163407Y155467D01*
X162782Y156281D01*
X161967Y156907D01*
X161018Y157300D01*
X160000Y157434D01*
D02*
G37*
G36*
X260000Y147434D02*
X258982Y147300D01*
X258033Y146907D01*
X257219Y146282D01*
X256593Y145467D01*
X256200Y144518D01*
X256066Y143500D01*
X256200Y142482D01*
X256593Y141533D01*
X257219Y140718D01*
X258033Y140093D01*
X258982Y139700D01*
X260000Y139566D01*
X261018Y139700D01*
X261967Y140093D01*
X262782Y140718D01*
X263407Y141533D01*
X263800Y142482D01*
X263934Y143500D01*
X263800Y144518D01*
X263407Y145467D01*
X262782Y146282D01*
X261967Y146907D01*
X261018Y147300D01*
X260000Y147434D01*
D02*
G37*
G36*
Y217434D02*
X258982Y217300D01*
X258033Y216907D01*
X257219Y216282D01*
X256593Y215467D01*
X256200Y214518D01*
X256066Y213500D01*
X256200Y212482D01*
X256593Y211533D01*
X257219Y210718D01*
X258033Y210093D01*
X258982Y209700D01*
X260000Y209566D01*
X261018Y209700D01*
X261967Y210093D01*
X262782Y210718D01*
X263407Y211533D01*
X263800Y212482D01*
X263934Y213500D01*
X263800Y214518D01*
X263407Y215467D01*
X262782Y216282D01*
X261967Y216907D01*
X261018Y217300D01*
X260000Y217434D01*
D02*
G37*
G36*
Y207434D02*
X258982Y207300D01*
X258033Y206907D01*
X257219Y206281D01*
X256593Y205467D01*
X256200Y204518D01*
X256066Y203500D01*
X256200Y202482D01*
X256593Y201533D01*
X257219Y200718D01*
X258033Y200093D01*
X258982Y199700D01*
X260000Y199566D01*
X261018Y199700D01*
X261967Y200093D01*
X262782Y200718D01*
X263407Y201533D01*
X263800Y202482D01*
X263934Y203500D01*
X263800Y204518D01*
X263407Y205467D01*
X262782Y206281D01*
X261967Y206907D01*
X261018Y207300D01*
X260000Y207434D01*
D02*
G37*
G36*
X129000Y218934D02*
X127982Y218800D01*
X127033Y218407D01*
X126218Y217781D01*
X125593Y216967D01*
X125200Y216018D01*
X125066Y215000D01*
X125200Y213982D01*
X125593Y213033D01*
X126218Y212218D01*
X127033Y211593D01*
X127982Y211200D01*
X129000Y211066D01*
X130018Y211200D01*
X130967Y211593D01*
X131781Y212218D01*
X132407Y213033D01*
X132800Y213982D01*
X132934Y215000D01*
X132800Y216018D01*
X132407Y216967D01*
X131781Y217781D01*
X130967Y218407D01*
X130018Y218800D01*
X129000Y218934D01*
D02*
G37*
G36*
X260000Y227434D02*
X258982Y227300D01*
X258033Y226907D01*
X257219Y226281D01*
X256593Y225467D01*
X256200Y224518D01*
X256066Y223500D01*
X256200Y222482D01*
X256593Y221533D01*
X257219Y220719D01*
X258033Y220093D01*
X258982Y219700D01*
X260000Y219566D01*
X261018Y219700D01*
X261967Y220093D01*
X262782Y220719D01*
X263407Y221533D01*
X263800Y222482D01*
X263934Y223500D01*
X263800Y224518D01*
X263407Y225467D01*
X262782Y226281D01*
X261967Y226907D01*
X261018Y227300D01*
X260000Y227434D01*
D02*
G37*
G36*
X160000D02*
X158982Y227300D01*
X158033Y226907D01*
X157219Y226281D01*
X156593Y225467D01*
X156200Y224518D01*
X156066Y223500D01*
X156200Y222482D01*
X156593Y221533D01*
X157219Y220719D01*
X158033Y220093D01*
X158982Y219700D01*
X160000Y219566D01*
X161018Y219700D01*
X161967Y220093D01*
X162782Y220719D01*
X163407Y221533D01*
X163800Y222482D01*
X163934Y223500D01*
X163800Y224518D01*
X163407Y225467D01*
X162782Y226281D01*
X161967Y226907D01*
X161018Y227300D01*
X160000Y227434D01*
D02*
G37*
G36*
X260000Y187434D02*
X258982Y187300D01*
X258033Y186907D01*
X257219Y186282D01*
X256593Y185467D01*
X256200Y184518D01*
X256066Y183500D01*
X256200Y182482D01*
X256593Y181533D01*
X257219Y180719D01*
X258033Y180093D01*
X258982Y179700D01*
X260000Y179566D01*
X261018Y179700D01*
X261967Y180093D01*
X262782Y180719D01*
X263407Y181533D01*
X263800Y182482D01*
X263934Y183500D01*
X263800Y184518D01*
X263407Y185467D01*
X262782Y186282D01*
X261967Y186907D01*
X261018Y187300D01*
X260000Y187434D01*
D02*
G37*
G36*
Y177434D02*
X258982Y177300D01*
X258033Y176907D01*
X257219Y176281D01*
X256593Y175467D01*
X256200Y174518D01*
X256066Y173500D01*
X256200Y172482D01*
X256593Y171533D01*
X257219Y170719D01*
X258033Y170093D01*
X258982Y169700D01*
X260000Y169566D01*
X261018Y169700D01*
X261967Y170093D01*
X262782Y170719D01*
X263407Y171533D01*
X263800Y172482D01*
X263934Y173500D01*
X263800Y174518D01*
X263407Y175467D01*
X262782Y176281D01*
X261967Y176907D01*
X261018Y177300D01*
X260000Y177434D01*
D02*
G37*
G36*
X160000Y197434D02*
X158982Y197300D01*
X158033Y196907D01*
X157219Y196282D01*
X156593Y195467D01*
X156200Y194518D01*
X156066Y193500D01*
X156200Y192482D01*
X156593Y191533D01*
X157219Y190718D01*
X158033Y190093D01*
X158982Y189700D01*
X160000Y189566D01*
X161018Y189700D01*
X161967Y190093D01*
X162782Y190718D01*
X163407Y191533D01*
X163800Y192482D01*
X163934Y193500D01*
X163800Y194518D01*
X163407Y195467D01*
X162782Y196282D01*
X161967Y196907D01*
X161018Y197300D01*
X160000Y197434D01*
D02*
G37*
G36*
X13000Y213441D02*
X11353Y213279D01*
X9770Y212798D01*
X8311Y212018D01*
X7032Y210968D01*
X5982Y209689D01*
X5202Y208230D01*
X4721Y206647D01*
X4559Y205000D01*
X4721Y203353D01*
X5202Y201770D01*
X5982Y200311D01*
X7032Y199032D01*
X8311Y197982D01*
X9770Y197202D01*
X11353Y196721D01*
X13000Y196559D01*
X14647Y196721D01*
X16230Y197202D01*
X17689Y197982D01*
X18968Y199032D01*
X20018Y200311D01*
X20798Y201770D01*
X21279Y203353D01*
X21441Y205000D01*
X21279Y206647D01*
X20798Y208230D01*
X20018Y209689D01*
X18968Y210968D01*
X17689Y212018D01*
X16230Y212798D01*
X14647Y213279D01*
X13000Y213441D01*
D02*
G37*
G36*
X260000Y197434D02*
X258982Y197300D01*
X258033Y196907D01*
X257219Y196282D01*
X256593Y195467D01*
X256200Y194518D01*
X256066Y193500D01*
X256200Y192482D01*
X256593Y191533D01*
X257219Y190718D01*
X258033Y190093D01*
X258982Y189700D01*
X260000Y189566D01*
X261018Y189700D01*
X261967Y190093D01*
X262782Y190718D01*
X263407Y191533D01*
X263800Y192482D01*
X263934Y193500D01*
X263800Y194518D01*
X263407Y195467D01*
X262782Y196282D01*
X261967Y196907D01*
X261018Y197300D01*
X260000Y197434D01*
D02*
G37*
%LPD*%
D34*
X197000Y138000D02*
Y142000D01*
X241500Y173500D02*
Y186000D01*
Y166500D02*
Y173500D01*
X182500D02*
X241500D01*
Y148000D02*
Y166500D01*
X197000Y116000D02*
Y138000D01*
X179500Y85500D02*
Y96000D01*
X167000Y108500D02*
X179500Y96000D01*
X158500Y275000D02*
X160000Y273500D01*
X158500Y275000D02*
Y326500D01*
X184500D01*
X194000Y336000D01*
X160000Y172000D02*
Y173500D01*
X110000Y122000D02*
X160000Y172000D01*
X109000Y122000D02*
X110000D01*
X134500Y143500D02*
X160000D01*
X110500Y119500D02*
X134500Y143500D01*
X106500Y119500D02*
X110500D01*
X214500Y97250D02*
Y133500D01*
X413500Y115500D02*
X427500D01*
X410500Y112500D02*
X413500Y115500D01*
X410500Y109000D02*
Y112500D01*
X427500Y115500D02*
X430000Y113000D01*
Y110000D02*
Y113000D01*
X160000Y183500D02*
X167000Y176500D01*
Y108500D02*
Y176500D01*
X189000Y316000D02*
Y322799D01*
X58000Y120500D02*
X61500Y124000D01*
X58000Y111500D02*
Y120500D01*
D35*
X182500Y137750D02*
X189125Y131125D01*
X182500Y137750D02*
Y143500D01*
X171250Y208500D02*
X182500Y197250D01*
X145000Y208500D02*
X171250D01*
X182500Y143500D02*
Y173500D01*
Y197250D01*
X245000Y77500D02*
Y92500D01*
D37*
X303750Y68250D02*
Y68750D01*
X287500Y85000D02*
X303750Y68750D01*
X277500Y85000D02*
X287500D01*
D38*
X94500Y172390D02*
D03*
X372500Y86000D02*
D03*
X94500Y129390D02*
D03*
X314000Y43500D02*
D03*
X120500Y100390D02*
D03*
D39*
X94500Y158610D02*
D03*
X372500Y96000D02*
D03*
X362500Y86000D02*
D03*
Y96000D02*
D03*
X352500D02*
D03*
Y86000D02*
D03*
X342500Y96000D02*
D03*
Y86000D02*
D03*
X332500Y96000D02*
D03*
Y86000D02*
D03*
X322500D02*
D03*
Y96000D02*
D03*
X312500Y86000D02*
D03*
Y96000D02*
D03*
X302500Y86000D02*
D03*
Y96000D02*
D03*
X94500Y115610D02*
D03*
X304000Y43500D02*
D03*
X294000D02*
D03*
X284000D02*
D03*
X427390Y164000D02*
D03*
X422890Y57500D02*
D03*
X120500Y86610D02*
D03*
X129000Y205000D02*
D03*
Y215000D02*
D03*
Y225000D02*
D03*
Y235000D02*
D03*
Y245000D02*
D03*
Y255000D02*
D03*
Y265000D02*
D03*
Y275000D02*
D03*
X160000Y133500D02*
D03*
Y143500D02*
D03*
Y153500D02*
D03*
Y163500D02*
D03*
Y173500D02*
D03*
Y183500D02*
D03*
Y193500D02*
D03*
Y203500D02*
D03*
Y213500D02*
D03*
Y223500D02*
D03*
Y233500D02*
D03*
Y243500D02*
D03*
Y253500D02*
D03*
Y263500D02*
D03*
X260000Y273500D02*
D03*
Y263500D02*
D03*
Y253500D02*
D03*
Y243500D02*
D03*
Y233500D02*
D03*
Y223500D02*
D03*
Y213500D02*
D03*
Y203500D02*
D03*
Y193500D02*
D03*
Y183500D02*
D03*
Y173500D02*
D03*
Y163500D02*
D03*
Y153500D02*
D03*
Y143500D02*
D03*
D40*
X13000Y285000D02*
D03*
Y205000D02*
D03*
D41*
X260000Y325000D02*
D03*
X230000D02*
D03*
X277500Y130000D02*
D03*
Y115000D02*
D03*
Y100000D02*
D03*
X260000D02*
D03*
Y85000D02*
D03*
X277500Y67500D02*
D03*
X70000Y325000D02*
D03*
X179500Y85500D02*
D03*
X130000Y325000D02*
D03*
X90000D02*
D03*
X260000Y67500D02*
D03*
X277500Y85000D02*
D03*
X110000Y325000D02*
D03*
D42*
X140622Y32500D02*
D03*
X124874D02*
D03*
X132748D02*
D03*
X261622D02*
D03*
X245874D02*
D03*
X253748D02*
D03*
X364122Y33000D02*
D03*
X348374D02*
D03*
X356248D02*
D03*
X371996D02*
D03*
X172874Y32500D02*
D03*
X213248D02*
D03*
X205374D02*
D03*
D43*
X117000D02*
D03*
X238000D02*
D03*
X340500Y33000D02*
D03*
X165000Y32500D02*
D03*
X197500D02*
D03*
D44*
X111094Y23732D02*
D03*
X146528D02*
D03*
X232095D02*
D03*
X267528D02*
D03*
X334594Y24232D02*
D03*
X377902D02*
D03*
X178779Y23732D02*
D03*
X159095D02*
D03*
X219153D02*
D03*
X191595D02*
D03*
D45*
X85500Y72843D02*
D03*
D46*
Y53158D02*
D03*
D47*
X413610Y164000D02*
D03*
X409110Y57500D02*
D03*
X129000Y285000D02*
D03*
X160000Y273500D02*
D03*
X260000Y133500D02*
D03*
D48*
X60594Y35500D02*
D03*
D49*
X72405D02*
D03*
D50*
X52130Y18492D02*
D03*
X80870D02*
D03*
D51*
X286713Y152591D02*
D03*
X388287D02*
D03*
X337500Y301606D02*
D03*
D52*
X20000Y20000D02*
D03*
X420000D02*
D03*
X20000Y320000D02*
D03*
X420000D02*
D03*
D53*
X437500Y300000D02*
D03*
X425000Y275000D02*
D03*
X437500Y250000D02*
D03*
X425000Y225000D02*
D03*
X437500Y200000D02*
D03*
X425000Y175000D02*
D03*
X437500Y150000D02*
D03*
X425000Y125000D02*
D03*
Y75000D02*
D03*
X437500Y50000D02*
D03*
X400000Y325000D02*
D03*
X412500Y300000D02*
D03*
X400000Y275000D02*
D03*
X412500Y250000D02*
D03*
X400000Y225000D02*
D03*
X412500Y200000D02*
D03*
X400000Y175000D02*
D03*
Y25000D02*
D03*
X375000Y325000D02*
D03*
X387500Y300000D02*
D03*
X375000Y275000D02*
D03*
X387500Y250000D02*
D03*
X375000Y225000D02*
D03*
X387500Y200000D02*
D03*
X375000Y175000D02*
D03*
X387500Y100000D02*
D03*
X375000Y75000D02*
D03*
X350000Y325000D02*
D03*
X362500Y300000D02*
D03*
X350000Y275000D02*
D03*
X362500Y250000D02*
D03*
X350000Y225000D02*
D03*
X362500Y200000D02*
D03*
X350000Y175000D02*
D03*
X362500Y150000D02*
D03*
X350000Y125000D02*
D03*
Y75000D02*
D03*
Y25000D02*
D03*
X325000Y325000D02*
D03*
Y275000D02*
D03*
X337500Y250000D02*
D03*
X325000Y225000D02*
D03*
X337500Y200000D02*
D03*
X325000Y175000D02*
D03*
X337500Y150000D02*
D03*
X325000Y125000D02*
D03*
X337500Y100000D02*
D03*
X325000Y25000D02*
D03*
X300000Y325000D02*
D03*
X312500Y300000D02*
D03*
X300000Y275000D02*
D03*
X312500Y250000D02*
D03*
X300000Y225000D02*
D03*
X312500Y200000D02*
D03*
X300000Y175000D02*
D03*
X312500Y150000D02*
D03*
X300000Y125000D02*
D03*
X312500Y50000D02*
D03*
X300000Y25000D02*
D03*
X275000Y325000D02*
D03*
X287500Y300000D02*
D03*
X275000Y275000D02*
D03*
X287500Y250000D02*
D03*
X275000Y225000D02*
D03*
X287500Y200000D02*
D03*
X275000Y175000D02*
D03*
X287500Y50000D02*
D03*
X275000Y25000D02*
D03*
X262500Y300000D02*
D03*
X250000Y275000D02*
D03*
Y225000D02*
D03*
Y125000D02*
D03*
X262500Y50000D02*
D03*
X250000Y25000D02*
D03*
X237500Y300000D02*
D03*
X225000Y275000D02*
D03*
X237500Y250000D02*
D03*
X225000Y225000D02*
D03*
X237500Y200000D02*
D03*
X225000Y125000D02*
D03*
Y75000D02*
D03*
Y25000D02*
D03*
X212500Y300000D02*
D03*
X200000Y275000D02*
D03*
X212500Y250000D02*
D03*
X200000Y225000D02*
D03*
X212500Y200000D02*
D03*
X200000Y25000D02*
D03*
X187500Y300000D02*
D03*
X175000Y275000D02*
D03*
X187500Y250000D02*
D03*
X175000Y225000D02*
D03*
X187500Y200000D02*
D03*
X175000Y75000D02*
D03*
X187500Y50000D02*
D03*
X162500Y300000D02*
D03*
Y100000D02*
D03*
X137500Y300000D02*
D03*
Y250000D02*
D03*
Y200000D02*
D03*
X125000Y175000D02*
D03*
X137500Y100000D02*
D03*
X125000Y25000D02*
D03*
X100000Y325000D02*
D03*
X112500Y300000D02*
D03*
Y250000D02*
D03*
X100000Y225000D02*
D03*
Y75000D02*
D03*
Y25000D02*
D03*
X87500Y300000D02*
D03*
X75000Y275000D02*
D03*
X87500Y250000D02*
D03*
X75000Y225000D02*
D03*
X87500Y200000D02*
D03*
X75000Y75000D02*
D03*
Y25000D02*
D03*
X50000Y325000D02*
D03*
X62500Y300000D02*
D03*
X50000Y275000D02*
D03*
X62500Y250000D02*
D03*
X50000Y225000D02*
D03*
X62500Y200000D02*
D03*
X37500Y300000D02*
D03*
X25000Y275000D02*
D03*
X37500Y250000D02*
D03*
X25000Y225000D02*
D03*
X37500Y200000D02*
D03*
X247500Y100000D02*
D03*
Y122500D02*
D03*
X197000Y142000D02*
D03*
X247750Y56500D02*
D03*
Y51500D02*
D03*
X207250Y56000D02*
D03*
Y51000D02*
D03*
X189125Y131125D02*
D03*
X245000Y77500D02*
D03*
X197000Y116000D02*
D03*
X214500Y97250D02*
D03*
X75000Y127500D02*
D03*
Y106750D02*
D03*
X179500Y125000D02*
D03*
Y122500D02*
D03*
X182500Y173500D02*
D03*
Y143500D02*
D03*
X198500Y92500D02*
D03*
X229500Y186000D02*
D03*
Y166500D02*
D03*
Y148000D02*
D03*
X137500Y75500D02*
D03*
X241500Y186000D02*
D03*
Y166500D02*
D03*
Y148000D02*
D03*
X194000Y336000D02*
D03*
X158500Y326500D02*
D03*
X106500Y119500D02*
D03*
X109000Y122000D02*
D03*
X137500Y70500D02*
D03*
Y80500D02*
D03*
X304000Y68500D02*
D03*
X214500Y133500D02*
D03*
X46000Y158500D02*
D03*
X41000D02*
D03*
X422075Y112256D02*
D03*
X418925D02*
D03*
Y107744D02*
D03*
X422075D02*
D03*
X422500Y78500D02*
D03*
Y86000D02*
D03*
X410500Y107000D02*
D03*
Y109000D02*
D03*
X430000Y110000D02*
D03*
X189000Y316000D02*
D03*
Y322799D02*
D03*
X162000Y335000D02*
D03*
X3500Y155000D02*
D03*
Y157500D02*
D03*
Y160000D02*
D03*
Y162500D02*
D03*
X43000Y118500D02*
D03*
Y121000D02*
D03*
X58000Y111500D02*
D03*
X61500Y124000D02*
D03*
X50500Y120500D02*
D03*
X53650D02*
D03*
Y125012D02*
D03*
X50500D02*
D03*
D54*
X150138Y80362D02*
D03*
X154862D02*
D03*
X150138Y75638D02*
D03*
X154862D02*
D03*
X12206Y24500D02*
D03*
X15500Y27794D02*
D03*
X20000Y29000D02*
D03*
X24500Y27794D02*
D03*
X27794Y24500D02*
D03*
X29000Y20000D02*
D03*
X27794Y15500D02*
D03*
X24500Y12206D02*
D03*
X20000Y11000D02*
D03*
X15500Y12206D02*
D03*
X12206Y15500D02*
D03*
X11000Y20000D02*
D03*
X412206Y24500D02*
D03*
X415500Y27794D02*
D03*
X420000Y29000D02*
D03*
X424500Y27794D02*
D03*
X427794Y24500D02*
D03*
X429000Y20000D02*
D03*
X427794Y15500D02*
D03*
X424500Y12206D02*
D03*
X420000Y11000D02*
D03*
X415500Y12206D02*
D03*
X412206Y15500D02*
D03*
X411000Y20000D02*
D03*
X12206Y324500D02*
D03*
X15500Y327794D02*
D03*
X20000Y329000D02*
D03*
X24500Y327794D02*
D03*
X27794Y324500D02*
D03*
X29000Y320000D02*
D03*
X27794Y315500D02*
D03*
X24500Y312206D02*
D03*
X20000Y311000D02*
D03*
X15500Y312206D02*
D03*
X12206Y315500D02*
D03*
X11000Y320000D02*
D03*
X412206Y324500D02*
D03*
X415500Y327794D02*
D03*
X420000Y329000D02*
D03*
X424500Y327794D02*
D03*
X427794Y324500D02*
D03*
X429000Y320000D02*
D03*
X427794Y315500D02*
D03*
X424500Y312206D02*
D03*
X420000Y311000D02*
D03*
X415500Y312206D02*
D03*
X412206Y315500D02*
D03*
X411000Y320000D02*
D03*
D55*
X145000Y208500D02*
X145500Y209000D01*
X141500Y205000D02*
X143750Y207250D01*
X245000Y92500D02*
X283000D01*
X198500D02*
X245000D01*
X179500Y111500D02*
Y125000D01*
Y111500D02*
X198500Y92500D01*
X149500Y273500D02*
X160000D01*
X145500Y269500D02*
X149500Y273500D01*
X145500Y209000D02*
Y269500D01*
X129000Y205000D02*
X141500D01*
X106000D02*
X129000D01*
X94500Y193500D02*
X106000Y205000D01*
X94500Y172390D02*
Y193500D01*
X283000Y92500D02*
X298500Y108000D01*
X410000D01*
X362500Y96000D02*
Y107000D01*
M02*
