%FSLAX25Y25*%
%MOIN*%
G70*
G01*
G75*
G04 Layer_Color=32768*
%ADD10R,0.02992X0.03347*%
%ADD11R,0.04331X0.02362*%
%ADD12O,0.04331X0.02362*%
%ADD13R,0.08661X0.11024*%
%ADD14O,0.07480X0.02362*%
%ADD15R,0.07480X0.02362*%
%ADD16R,0.03347X0.02992*%
%ADD17O,0.03150X0.01102*%
%ADD18R,0.06496X0.09449*%
%ADD19R,0.00866X0.02756*%
%ADD20R,0.01378X0.01969*%
%ADD21R,0.02795X0.01811*%
%ADD22R,0.05709X0.08268*%
%ADD23R,0.10984X0.07539*%
%ADD24R,0.03500X0.05000*%
%ADD25R,0.20866X0.09843*%
%ADD26R,0.07874X0.12992*%
%ADD27R,0.07874X0.03543*%
%ADD28R,0.08268X0.05709*%
%ADD29R,0.04331X0.06890*%
%ADD30R,0.02500X0.04173*%
%ADD31R,0.24803X0.21654*%
%ADD32R,0.10827X0.03543*%
%ADD33R,0.16700X0.15000*%
%ADD34C,0.01000*%
%ADD35C,0.02500*%
%ADD36C,0.01000*%
%ADD37C,0.00800*%
%ADD38R,0.06000X0.06000*%
%ADD39C,0.06000*%
%ADD40C,0.15000*%
%ADD41C,0.07500*%
%ADD42C,0.05118*%
%ADD43R,0.05118X0.05118*%
%ADD44C,0.05906*%
%ADD45R,0.08000X0.08000*%
%ADD46C,0.08000*%
%ADD47R,0.06000X0.06000*%
%ADD48C,0.07000*%
%ADD49R,0.07000X0.07000*%
%ADD50C,0.12000*%
%ADD51C,0.23622*%
%ADD52C,0.27559*%
%ADD53C,0.02000*%
%ADD54C,0.02800*%
%ADD55C,0.05000*%
%ADD56C,0.00984*%
%ADD57C,0.00600*%
%ADD58C,0.00500*%
%ADD59C,0.01181*%
%ADD60C,0.03937*%
%ADD61C,0.00787*%
%ADD62C,0.00700*%
%ADD63C,0.00900*%
%ADD64R,0.06000X0.05000*%
%ADD65R,0.07700X0.06900*%
%ADD66R,0.05512X0.07874*%
%ADD67R,0.03347X0.06299*%
%ADD68R,0.03292X0.03647*%
%ADD69R,0.04631X0.02662*%
%ADD70O,0.04631X0.02662*%
%ADD71R,0.08961X0.11324*%
%ADD72O,0.07780X0.02662*%
%ADD73R,0.07780X0.02662*%
%ADD74R,0.03647X0.03292*%
%ADD75O,0.03450X0.01402*%
%ADD76R,0.06796X0.09749*%
%ADD77R,0.01678X0.02269*%
%ADD78R,0.03095X0.02111*%
%ADD79R,0.06009X0.08568*%
%ADD80R,0.11284X0.07839*%
%ADD81R,0.03800X0.05300*%
%ADD82R,0.21166X0.10143*%
%ADD83R,0.08174X0.13292*%
%ADD84R,0.08174X0.03843*%
%ADD85R,0.08568X0.06009*%
%ADD86R,0.04631X0.07190*%
%ADD87R,0.02800X0.04473*%
%ADD88R,0.25103X0.21954*%
%ADD89R,0.11127X0.03843*%
%ADD90R,0.17000X0.15300*%
%ADD91R,0.06300X0.06300*%
%ADD92C,0.06300*%
%ADD93C,0.15800*%
%ADD94C,0.07800*%
%ADD95C,0.05418*%
%ADD96R,0.05418X0.05418*%
%ADD97C,0.06206*%
%ADD98R,0.08300X0.08300*%
%ADD99C,0.08300*%
%ADD100R,0.06300X0.06300*%
%ADD101C,0.07300*%
%ADD102R,0.07300X0.07300*%
%ADD103C,0.12300*%
%ADD104C,0.23922*%
%ADD105C,0.27859*%
%ADD106C,0.03600*%
%ADD107C,0.00394*%
%ADD108C,0.00591*%
%ADD109C,0.01575*%
D34*
X374081Y86000D02*
G03*
X374081Y86000I-1581J0D01*
G01*
X163081Y70500D02*
G03*
X163081Y70500I-1581J0D01*
G01*
X315581Y43500D02*
G03*
X315581Y43500I-1581J0D01*
G01*
X35067Y147476D02*
G03*
X35067Y147476I-787J0D01*
G01*
X130581Y285000D02*
G03*
X130581Y285000I-1581J0D01*
G01*
X161581Y273500D02*
G03*
X161581Y273500I-1581J0D01*
G01*
X261581Y133500D02*
G03*
X261581Y133500I-1581J0D01*
G01*
D37*
X92532Y153538D02*
X96530D01*
X92532Y177160D02*
X96530D01*
X94531Y179160D02*
Y175161D01*
X92532Y110538D02*
X96530D01*
X92532Y134160D02*
X96530D01*
X94531Y136160D02*
Y132161D01*
X83531Y78204D02*
X87530D01*
X85531Y80203D02*
Y76204D01*
X83531Y47495D02*
X87530D01*
X432462Y162031D02*
Y166030D01*
X408840Y162031D02*
Y166030D01*
X406840Y164031D02*
X410839D01*
X427962Y55532D02*
Y59530D01*
X404340Y55532D02*
Y59530D01*
X402340Y57531D02*
X406339D01*
X118532Y81538D02*
X122530D01*
X118532Y105160D02*
X122530D01*
X120531Y107160D02*
Y103161D01*
D56*
X231169Y142437D02*
G03*
X231169Y142437I-492J0D01*
G01*
X426504Y105472D02*
G03*
X426504Y105472I-492J0D01*
G01*
X231169Y180937D02*
G03*
X231169Y180937I-492J0D01*
G01*
Y161437D02*
G03*
X231169Y161437I-492J0D01*
G01*
X47055Y127284D02*
G03*
X47055Y127284I-492J0D01*
G01*
D58*
X204700Y322700D02*
G03*
X204700Y322700I-300J0D01*
G01*
X237271Y143618D02*
X234811D01*
X234319Y143126D01*
Y142142D01*
X234811Y141650D01*
X237271D01*
Y138698D02*
X236779Y139682D01*
X235795Y140666D01*
X234811D01*
X234319Y140174D01*
Y139190D01*
X234811Y138698D01*
X235303D01*
X235795Y139190D01*
Y140666D01*
X303334Y20668D02*
X304001Y20001D01*
X305334D01*
X306000Y20668D01*
Y23334D01*
X305334Y24000D01*
X304001D01*
X303334Y23334D01*
X302001Y24000D02*
Y20001D01*
X299336Y24000D01*
Y20001D01*
X296003Y24000D02*
Y20001D01*
X298003Y22001D01*
X295337D01*
X389984Y30937D02*
X388016D01*
Y29953D01*
X388344Y29625D01*
X389656D01*
X389984Y29953D01*
Y30937D01*
X388016Y27985D02*
X389984D01*
X389000Y28969D01*
Y27657D01*
X412547Y86885D02*
X412153Y87279D01*
X411366D01*
X410972Y86885D01*
Y85311D01*
X411366Y84917D01*
X412153D01*
X412547Y85311D01*
X413334Y84917D02*
X414121D01*
X413728D01*
Y87279D01*
X413334Y86885D01*
X415302D02*
X415695Y87279D01*
X416482D01*
X416876Y86885D01*
Y86492D01*
X416482Y86098D01*
X416089D01*
X416482D01*
X416876Y85704D01*
Y85311D01*
X416482Y84917D01*
X415695D01*
X415302Y85311D01*
X412547Y79385D02*
X412153Y79779D01*
X411366D01*
X410972Y79385D01*
Y77811D01*
X411366Y77417D01*
X412153D01*
X412547Y77811D01*
X413334Y77417D02*
X414121D01*
X413728D01*
Y79779D01*
X413334Y79385D01*
X416482Y77417D02*
Y79779D01*
X415302Y78598D01*
X416876D01*
X185984Y71937D02*
X184016D01*
Y70953D01*
X184344Y70625D01*
X185656D01*
X185984Y70953D01*
Y71937D01*
Y69969D02*
Y68657D01*
X185656D01*
X184344Y69969D01*
X184016D01*
X237271Y182118D02*
X234811D01*
X234319Y181626D01*
Y180642D01*
X234811Y180150D01*
X237271D01*
X234319Y179166D02*
Y178182D01*
Y178674D01*
X237271D01*
X236779Y179166D01*
Y176707D02*
X237271Y176215D01*
Y175231D01*
X236779Y174739D01*
X234811D01*
X234319Y175231D01*
Y176215D01*
X234811Y176707D01*
X236779D01*
X237271Y162618D02*
X234811D01*
X234319Y162126D01*
Y161142D01*
X234811Y160650D01*
X237271D01*
X234811Y159666D02*
X234319Y159174D01*
Y158190D01*
X234811Y157698D01*
X236779D01*
X237271Y158190D01*
Y159174D01*
X236779Y159666D01*
X236287D01*
X235795Y159174D01*
Y157698D01*
X66063Y168984D02*
Y167016D01*
X67047D01*
X67375Y167344D01*
Y168656D01*
X67047Y168984D01*
X66063D01*
X68031Y167016D02*
X68687D01*
X68359D01*
Y168984D01*
X68031Y168656D01*
X87578Y98779D02*
X87086Y99271D01*
X86102D01*
X85610Y98779D01*
Y96811D01*
X86102Y96319D01*
X87086D01*
X87578Y96811D01*
X90530Y99271D02*
X89546Y98779D01*
X88562Y97795D01*
Y96811D01*
X89054Y96319D01*
X90038D01*
X90530Y96811D01*
Y97303D01*
X90038Y97795D01*
X88562D01*
X87578Y89779D02*
X87086Y90271D01*
X86102D01*
X85610Y89779D01*
Y87811D01*
X86102Y87319D01*
X87086D01*
X87578Y87811D01*
X88562Y90271D02*
X90530D01*
Y89779D01*
X88562Y87811D01*
Y87319D01*
X144016Y310063D02*
X145984D01*
Y311047D01*
X145656Y311375D01*
X144344D01*
X144016Y311047D01*
Y310063D01*
Y313343D02*
Y312031D01*
X145000D01*
X144672Y312687D01*
Y313015D01*
X145000Y313343D01*
X145656D01*
X145984Y313015D01*
Y312359D01*
X145656Y312031D01*
X130999Y251000D02*
X127666D01*
X127000Y250334D01*
Y249001D01*
X127666Y248334D01*
X130999D01*
Y247001D02*
Y244336D01*
X130332D01*
X127666Y247001D01*
X127000D01*
X161999Y206834D02*
Y208167D01*
Y207501D01*
X158667D01*
X158000Y208167D01*
Y208834D01*
X158667Y209500D01*
X158000Y202835D02*
Y205501D01*
X160666Y202835D01*
X161332D01*
X161999Y203502D01*
Y204835D01*
X161332Y205501D01*
X258001Y200166D02*
Y198833D01*
Y199499D01*
X261334D01*
X262000Y198833D01*
Y198167D01*
X261334Y197500D01*
X262000Y201499D02*
Y202832D01*
Y202165D01*
X258001D01*
X258668Y201499D01*
X66063Y160484D02*
Y158516D01*
X67047D01*
X67375Y158844D01*
Y160156D01*
X67047Y160484D01*
X66063D01*
X69343Y158516D02*
X68031D01*
X69343Y159828D01*
Y160156D01*
X69015Y160484D01*
X68359D01*
X68031Y160156D01*
D59*
X131762Y24627D02*
X132746Y25611D01*
Y27579D01*
X131762Y28563D01*
X127826D01*
X126842Y27579D01*
Y25611D01*
X127826Y24627D01*
X126842Y22659D02*
X132746D01*
X126842Y18724D01*
X132746D01*
X126842Y12820D02*
Y16756D01*
X130778Y12820D01*
X131762D01*
X132746Y13804D01*
Y15772D01*
X131762Y16756D01*
X78937Y65623D02*
X77625Y66935D01*
X75001D01*
X73689Y65623D01*
Y60375D01*
X75001Y59063D01*
X77625D01*
X78937Y60375D01*
X81560Y65623D02*
X82872Y66935D01*
X85496D01*
X86808Y65623D01*
Y64311D01*
X85496Y62999D01*
X84184D01*
X85496D01*
X86808Y61687D01*
Y60375D01*
X85496Y59063D01*
X82872D01*
X81560Y60375D01*
X94680Y66935D02*
X92056Y65623D01*
X89432Y62999D01*
Y60375D01*
X90744Y59063D01*
X93368D01*
X94680Y60375D01*
Y61687D01*
X93368Y62999D01*
X89432D01*
X252762Y24627D02*
X253746Y25611D01*
Y27579D01*
X252762Y28563D01*
X248827D01*
X247843Y27579D01*
Y25611D01*
X248827Y24627D01*
X247843Y22659D02*
X253746D01*
X247843Y18724D01*
X253746D01*
Y16756D02*
Y12820D01*
X252762D01*
X248827Y16756D01*
X247843D01*
X357231Y25127D02*
X358215Y26111D01*
Y28079D01*
X357231Y29063D01*
X353295D01*
X352311Y28079D01*
Y26111D01*
X353295Y25127D01*
X352311Y23159D02*
X358215D01*
X352311Y19224D01*
X358215D01*
Y13320D02*
X357231Y15288D01*
X355263Y17256D01*
X353295D01*
X352311Y16272D01*
Y14304D01*
X353295Y13320D01*
X354279D01*
X355263Y14304D01*
Y17256D01*
X171888Y24627D02*
X172872Y25611D01*
Y27579D01*
X171888Y28563D01*
X167952D01*
X166969Y27579D01*
Y25611D01*
X167952Y24627D01*
X166969Y22659D02*
X172872D01*
X166969Y18724D01*
X172872D01*
X171888Y16756D02*
X172872Y15772D01*
Y13804D01*
X171888Y12820D01*
X170904D01*
X169920Y13804D01*
Y14788D01*
Y13804D01*
X168936Y12820D01*
X167952D01*
X166969Y13804D01*
Y15772D01*
X167952Y16756D01*
X206357Y24627D02*
X207341Y25611D01*
Y27579D01*
X206357Y28563D01*
X202421D01*
X201437Y27579D01*
Y25611D01*
X202421Y24627D01*
X201437Y22659D02*
X207341D01*
X201437Y18724D01*
X207341D01*
X201437Y16756D02*
Y14788D01*
Y15772D01*
X207341D01*
X206357Y16756D01*
X20869Y116405D02*
X28740D01*
Y121653D01*
Y124277D02*
Y126901D01*
Y125589D01*
X20869D01*
X22181Y124277D01*
X16565Y146689D02*
X21485D01*
X22468Y147673D01*
Y149641D01*
X21485Y150625D01*
X16565D01*
X22468Y152593D02*
Y154560D01*
Y153577D01*
X16565D01*
X17549Y152593D01*
X70107Y24347D02*
X71419Y25659D01*
Y28283D01*
X70107Y29594D01*
X64859D01*
X63547Y28283D01*
Y25659D01*
X64859Y24347D01*
X63547Y21723D02*
X71419D01*
X63547Y16475D01*
X71419D01*
X70107Y13851D02*
X71419Y12540D01*
Y9916D01*
X70107Y8604D01*
X68795D01*
X67483Y9916D01*
X66171Y8604D01*
X64859D01*
X63547Y9916D01*
Y12540D01*
X64859Y13851D01*
X66171D01*
X67483Y12540D01*
X68795Y13851D01*
X70107D01*
X67483Y12540D02*
Y9916D01*
X32593Y48205D02*
X40465D01*
Y54108D01*
X36529D01*
X40465D01*
Y60012D01*
X28657D02*
X24722D01*
X26689D01*
Y48205D01*
X28657Y50173D01*
D60*
X286713Y152591D02*
D03*
X388287D02*
D03*
X337500Y301606D02*
D03*
D61*
X89578Y167467D02*
X88594Y168451D01*
X86626D01*
X85642Y167467D01*
Y163531D01*
X86626Y162547D01*
X88594D01*
X89578Y163531D01*
X94497Y162547D02*
Y168451D01*
X91545Y165499D01*
X95481D01*
X89578Y124467D02*
X88594Y125451D01*
X86626D01*
X85642Y124467D01*
Y120531D01*
X86626Y119547D01*
X88594D01*
X89578Y120531D01*
X91545Y124467D02*
X92529Y125451D01*
X94497D01*
X95481Y124467D01*
Y123483D01*
X94497Y122499D01*
X93513D01*
X94497D01*
X95481Y121515D01*
Y120531D01*
X94497Y119547D01*
X92529D01*
X91545Y120531D01*
X97449D02*
X98433Y119547D01*
X100401D01*
X101385Y120531D01*
Y124467D01*
X100401Y125451D01*
X98433D01*
X97449Y124467D01*
Y123483D01*
X98433Y122499D01*
X101385D01*
X149580Y71000D02*
X153680D01*
X154500Y71820D01*
Y73460D01*
X153680Y74280D01*
X149580D01*
X150400Y75920D02*
X149580Y76740D01*
Y78379D01*
X150400Y79199D01*
X151220D01*
X152040Y78379D01*
X152860Y79199D01*
X153680D01*
X154500Y78379D01*
Y76740D01*
X153680Y75920D01*
X152860D01*
X152040Y76740D01*
X151220Y75920D01*
X150400D01*
X152040Y76740D02*
Y78379D01*
X418533Y159078D02*
X417549Y158094D01*
Y156126D01*
X418533Y155142D01*
X422469D01*
X423453Y156126D01*
Y158094D01*
X422469Y159078D01*
X418533Y161045D02*
X417549Y162029D01*
Y163997D01*
X418533Y164981D01*
X419517D01*
X420501Y163997D01*
Y163013D01*
Y163997D01*
X421485Y164981D01*
X422469D01*
X423453Y163997D01*
Y162029D01*
X422469Y161045D01*
X423453Y166949D02*
Y168917D01*
Y167933D01*
X417549D01*
X418533Y166949D01*
X414033Y52578D02*
X413049Y51594D01*
Y49626D01*
X414033Y48642D01*
X417969D01*
X418953Y49626D01*
Y51594D01*
X417969Y52578D01*
X418953Y54545D02*
Y56513D01*
Y55529D01*
X413049D01*
X414033Y54545D01*
X413049Y63401D02*
Y59465D01*
X416001D01*
X415017Y61433D01*
Y62417D01*
X416001Y63401D01*
X417969D01*
X418953Y62417D01*
Y60449D01*
X417969Y59465D01*
X204437Y324926D02*
Y327550D01*
X203912Y328075D01*
X202863D01*
X202338Y327550D01*
Y324926D01*
X199714Y328075D02*
Y324926D01*
X201288Y326501D01*
X199189D01*
X403951Y101736D02*
X398047D01*
Y98784D01*
X399031Y97800D01*
X402967D01*
X403951Y98784D01*
Y101736D01*
X402967Y95833D02*
X403951Y94849D01*
Y92881D01*
X402967Y91897D01*
X401983D01*
X400999Y92881D01*
Y93865D01*
Y92881D01*
X400015Y91897D01*
X399031D01*
X398047Y92881D01*
Y94849D01*
X399031Y95833D01*
X404148Y120740D02*
X398244D01*
Y116804D01*
Y110901D02*
Y114837D01*
X402180Y110901D01*
X403164D01*
X404148Y111885D01*
Y113853D01*
X403164Y114837D01*
X115577Y95467D02*
X114594Y96451D01*
X112626D01*
X111642Y95467D01*
Y91531D01*
X112626Y90547D01*
X114594D01*
X115577Y91531D01*
X117545Y95467D02*
X118529Y96451D01*
X120497D01*
X121481Y95467D01*
Y94483D01*
X120497Y93499D01*
X119513D01*
X120497D01*
X121481Y92515D01*
Y91531D01*
X120497Y90547D01*
X118529D01*
X117545Y91531D01*
X123449Y95467D02*
X124433Y96451D01*
X126401D01*
X127385Y95467D01*
Y91531D01*
X126401Y90547D01*
X124433D01*
X123449Y91531D01*
Y95467D01*
X152736Y54049D02*
Y59953D01*
X149784D01*
X148801Y58969D01*
Y55033D01*
X149784Y54049D01*
X152736D01*
X142897D02*
X144865Y55033D01*
X146833Y57001D01*
Y58969D01*
X145849Y59953D01*
X143881D01*
X142897Y58969D01*
Y57985D01*
X143881Y57001D01*
X146833D01*
X57549Y76764D02*
Y80699D01*
X58533D01*
X62469Y76764D01*
X63453D01*
Y80699D01*
Y86603D02*
Y82667D01*
X59517Y86603D01*
X58533D01*
X57549Y85619D01*
Y83651D01*
X58533Y82667D01*
D107*
X110248Y165500D02*
G03*
X110248Y165500I-15748J0D01*
G01*
Y122500D02*
G03*
X110248Y122500I-15748J0D01*
G01*
X105185Y63000D02*
G03*
X105185Y63000I-19685J0D01*
G01*
X436248Y164000D02*
G03*
X436248Y164000I-15748J0D01*
G01*
X431748Y57500D02*
G03*
X431748Y57500I-15748J0D01*
G01*
X136248Y93500D02*
G03*
X136248Y93500I-15748J0D01*
G01*
X230776Y145835D02*
X240224D01*
X230776D02*
Y150165D01*
X240224D01*
Y145835D02*
Y150165D01*
X228807Y132595D02*
Y144799D01*
X242193D01*
Y132595D02*
Y144799D01*
X228807Y132595D02*
X242193D01*
X139000Y68000D02*
X166000D01*
X139000D02*
Y88000D01*
X166000D01*
Y68000D02*
Y88000D01*
X254909Y320000D02*
Y330000D01*
X265000D01*
Y320000D02*
Y330000D01*
X254909Y320000D02*
X265000D01*
X224909D02*
Y330000D01*
X235000D01*
Y320000D02*
Y330000D01*
X224909Y320000D02*
X235000D01*
X200665Y63276D02*
Y72724D01*
X196335Y63276D02*
Y72724D01*
Y63276D02*
X200665D01*
X196335Y72724D02*
X200665D01*
X272410Y125000D02*
Y135000D01*
X282500D01*
Y125000D02*
Y135000D01*
X272410Y125000D02*
X282500D01*
X272410Y110000D02*
Y120000D01*
X282500D01*
Y110000D02*
Y120000D01*
X272410Y110000D02*
X282500D01*
X272410Y95000D02*
Y105000D01*
X282500D01*
Y95000D02*
Y105000D01*
X272410Y95000D02*
X282500D01*
X254909D02*
Y105000D01*
X265000D01*
Y95000D02*
Y105000D01*
X254909Y95000D02*
X265000D01*
X254909Y80000D02*
Y90000D01*
X265000D01*
Y80000D02*
Y90000D01*
X254909Y80000D02*
X265000D01*
X272410Y62500D02*
Y72500D01*
X282500D01*
Y62500D02*
Y72500D01*
X272410Y62500D02*
X282500D01*
X237276Y59335D02*
X246724D01*
X237276Y63665D02*
X246724D01*
X237276Y59335D02*
Y63665D01*
X246724Y59335D02*
Y63665D01*
X148496Y216D02*
Y46279D01*
X109126D02*
X148496D01*
X109126Y216D02*
Y46279D01*
Y216D02*
X148496D01*
X269496D02*
Y46279D01*
X230126D02*
X269496D01*
X230126Y216D02*
Y46279D01*
Y216D02*
X269496D01*
X379870Y716D02*
Y46780D01*
X332626D02*
X379870D01*
X332626Y716D02*
Y46780D01*
Y716D02*
X379870D01*
X317776Y79665D02*
X327224D01*
X317776Y75335D02*
X327224D01*
Y79665D01*
X317776Y75335D02*
Y79665D01*
Y74165D02*
X327224D01*
X317776Y69835D02*
X327224D01*
Y74165D01*
X317776Y69835D02*
Y74165D01*
X279000Y47500D02*
X319000D01*
X279000Y1000D02*
Y47500D01*
Y1000D02*
X319000D01*
Y47500D01*
X415776Y145665D02*
X425224D01*
Y141335D02*
Y145665D01*
X415776Y141335D02*
X425224D01*
X415776D02*
Y145665D01*
Y140665D02*
X425224D01*
Y136335D02*
Y140665D01*
X415776Y136335D02*
X425224D01*
X415776D02*
Y140665D01*
Y135665D02*
X425224D01*
Y131335D02*
Y135665D01*
X415776Y131335D02*
X425224D01*
X415776D02*
Y135665D01*
Y130665D02*
X425224D01*
Y126335D02*
Y130665D01*
X415776Y126335D02*
X425224D01*
X415776D02*
Y130665D01*
X413610Y104095D02*
X427390D01*
X413610D02*
Y115906D01*
X427390D01*
Y104095D02*
Y115906D01*
X389000Y23063D02*
X390181Y24244D01*
X387819D02*
X390181D01*
X387819D02*
X389000Y23063D01*
X387819Y23063D02*
X390181D01*
X387032Y31724D02*
X390968D01*
X387032Y22276D02*
Y31724D01*
X390968Y22276D02*
Y31724D01*
X387032Y22276D02*
X390968D01*
X157126Y216D02*
X180748D01*
X157126D02*
Y46279D01*
X180748D01*
Y216D02*
Y46279D01*
X56665Y132776D02*
Y142224D01*
X52335Y132776D02*
X56665D01*
X52335D02*
Y142224D01*
X56665D01*
X195776Y338165D02*
X205224D01*
Y333835D02*
Y338165D01*
X195776Y333835D02*
X205224D01*
X195776D02*
Y338165D01*
X200276Y319665D02*
X209724D01*
Y315335D02*
Y319665D01*
X200276Y315335D02*
X209724D01*
X200276D02*
Y319665D01*
X195000Y321100D02*
Y332000D01*
Y321100D02*
X206000D01*
Y332000D01*
X195000D02*
X206000D01*
X172594Y320595D02*
X184406D01*
Y332405D01*
X172594D02*
X184406D01*
X172594Y320595D02*
Y332405D01*
X164835Y324276D02*
Y333724D01*
X169165Y324276D02*
Y333724D01*
X164835D02*
X169165D01*
X164835Y324276D02*
X169165D01*
X159835D02*
Y333724D01*
X164165D01*
Y324276D02*
Y333724D01*
X159835Y324276D02*
X164165D01*
X64909Y320000D02*
Y330000D01*
X75000D01*
Y320000D02*
Y330000D01*
X64909Y320000D02*
X75000D01*
X51665Y132776D02*
Y142224D01*
X47335Y132776D02*
X51665D01*
X47335D02*
Y142224D01*
X51665D01*
X417335Y90776D02*
Y100224D01*
X421665Y90776D02*
Y100224D01*
X417335D02*
X421665D01*
X417335Y90776D02*
X421665D01*
X395094Y103311D02*
X406906D01*
X395094Y79787D02*
Y103311D01*
Y79787D02*
X406906D01*
Y103311D01*
X398047Y81657D02*
X403953D01*
X398047Y84610D02*
X401000Y81657D01*
X398047Y84610D02*
X403953D01*
X401000Y81657D02*
X403953Y84610D01*
X401000Y80673D02*
Y81657D01*
Y84610D02*
Y85594D01*
X390764Y129795D02*
X411236D01*
Y104205D02*
Y129795D01*
X390764Y104205D02*
X411236D01*
X390764D02*
Y129795D01*
X416665Y90776D02*
Y100224D01*
X412335Y90776D02*
X416665D01*
X412335D02*
Y100224D01*
X416665D01*
X386835Y33776D02*
Y43224D01*
X391165Y33776D02*
Y43224D01*
X386835D02*
X391165D01*
X386835Y33776D02*
X391165D01*
X426665Y90776D02*
Y100224D01*
X422335Y90776D02*
Y100224D01*
Y90776D02*
X426665D01*
X422335Y100224D02*
X426665D01*
X427335Y90776D02*
Y100224D01*
X431665Y90776D02*
Y100224D01*
X427335D02*
X431665D01*
X427335Y90776D02*
X431665D01*
X433335D02*
Y100224D01*
X437665D01*
Y90776D02*
Y100224D01*
X433335Y90776D02*
X437665D01*
X409750Y88750D02*
X421250D01*
Y83250D02*
Y88750D01*
X409750Y83250D02*
X421250D01*
X409750D02*
Y88750D01*
Y81250D02*
X421250D01*
Y75750D02*
Y81250D01*
X409750Y75750D02*
X421250D01*
X409750D02*
Y81250D01*
X306165Y57276D02*
Y66724D01*
X301835Y57276D02*
Y66724D01*
Y57276D02*
X306165D01*
X301835Y66724D02*
X306165D01*
X296165Y57276D02*
Y66724D01*
X291835Y57276D02*
Y66724D01*
Y57276D02*
X296165D01*
X291835Y66724D02*
X296165D01*
X196776Y58165D02*
X206224D01*
Y53835D02*
Y58165D01*
X196776Y53835D02*
X206224D01*
X196776D02*
Y58165D01*
Y53165D02*
X206224D01*
Y48835D02*
Y53165D01*
X196776Y48835D02*
X206224D01*
X196776D02*
Y53165D01*
X189626Y216D02*
X221122D01*
X189626D02*
Y46279D01*
X221122D01*
Y216D02*
Y46279D01*
X183031Y72724D02*
X186969D01*
X183031Y63276D02*
Y72724D01*
X186969Y63276D02*
Y72724D01*
X183031Y63276D02*
X186969D01*
X183819Y64063D02*
X186181D01*
X183819Y65244D02*
X185000Y64063D01*
X183819Y65244D02*
X186181D01*
X185000Y64063D02*
X186181Y65244D01*
X177335Y63276D02*
Y72724D01*
X181665Y63276D02*
Y72724D01*
X177335D02*
X181665D01*
X177335Y63276D02*
X181665D01*
X171835D02*
Y72724D01*
X176165Y63276D02*
Y72724D01*
X171835D02*
X176165D01*
X171835Y63276D02*
X176165D01*
X174409Y80500D02*
Y90500D01*
X184500D01*
Y80500D02*
Y90500D01*
X174409Y80500D02*
X184500D01*
X125776Y72665D02*
X135224D01*
Y68335D02*
Y72665D01*
X125776Y68335D02*
X135224D01*
X125776D02*
Y72665D01*
X122665Y117276D02*
Y126724D01*
X118335Y117276D02*
Y126724D01*
Y117276D02*
X122665D01*
X118335Y126724D02*
X122665D01*
X1835Y126776D02*
Y136224D01*
X6165D01*
Y126776D02*
Y136224D01*
X1835Y126776D02*
X6165D01*
X8957Y106858D02*
X41142D01*
X8957D02*
Y139142D01*
X41142D01*
Y106858D02*
Y139142D01*
X4358Y145508D02*
X36642D01*
X4358D02*
Y172181D01*
X36642D01*
Y145508D02*
Y172181D01*
X230776Y183835D02*
X240224D01*
X230776D02*
Y188165D01*
X240224D01*
Y183835D02*
Y188165D01*
X228807Y171095D02*
Y183299D01*
X242193D01*
Y171095D02*
Y183299D01*
X228807Y171095D02*
X242193D01*
X230776Y164335D02*
X240224D01*
X230776D02*
Y168665D01*
X240224D01*
Y164335D02*
Y168665D01*
X228807Y151594D02*
Y163799D01*
X242193D01*
Y151594D02*
Y163799D01*
X228807Y151594D02*
X242193D01*
X242835Y66276D02*
Y75724D01*
X247165Y66276D02*
Y75724D01*
X242835D02*
X247165D01*
X242835Y66276D02*
X247165D01*
X236835D02*
Y75724D01*
X241165Y66276D02*
Y75724D01*
X236835D02*
X241165D01*
X236835Y66276D02*
X241165D01*
X237276Y58665D02*
X246724D01*
Y54335D02*
Y58665D01*
X237276Y54335D02*
X246724D01*
X237276D02*
Y58665D01*
Y53665D02*
X246724D01*
Y49335D02*
Y53665D01*
X237276Y49335D02*
X246724D01*
X237276D02*
Y53665D01*
X215776Y155335D02*
X225224D01*
X215776Y159665D02*
X225224D01*
X215776Y155335D02*
Y159665D01*
X225224Y155335D02*
Y159665D01*
X215776Y164665D02*
X225224D01*
Y160335D02*
Y164665D01*
X215776Y160335D02*
X225224D01*
X215776D02*
Y164665D01*
Y150335D02*
X225224D01*
X215776Y154665D02*
X225224D01*
X215776Y150335D02*
Y154665D01*
X225224Y150335D02*
Y154665D01*
X215776Y136335D02*
X225224D01*
X215776Y140665D02*
X225224D01*
X215776Y136335D02*
Y140665D01*
X225224Y136335D02*
Y140665D01*
X215776Y145665D02*
X225224D01*
Y141335D02*
Y145665D01*
X215776Y141335D02*
X225224D01*
X215776D02*
Y145665D01*
Y131335D02*
X225224D01*
X215776Y135665D02*
X225224D01*
X215776Y131335D02*
Y135665D01*
X225224Y131335D02*
Y135665D01*
X124909Y320000D02*
Y330000D01*
X135000D01*
Y320000D02*
Y330000D01*
X124909Y320000D02*
X135000D01*
X84909D02*
Y330000D01*
X95000D01*
Y320000D02*
Y330000D01*
X84909Y320000D02*
X95000D01*
X141276Y221335D02*
X150724D01*
X141276Y225665D02*
X150724D01*
X141276Y221335D02*
Y225665D01*
X150724Y221335D02*
Y225665D01*
X141276Y211335D02*
X150724D01*
X141276Y215665D02*
X150724D01*
X141276Y211335D02*
Y215665D01*
X150724Y211335D02*
Y215665D01*
X72756Y169181D02*
X73937Y168000D01*
X72756Y166819D02*
Y169181D01*
Y166819D02*
X73937Y168000D01*
X73937Y166819D02*
Y169181D01*
X65276Y166032D02*
Y169968D01*
Y166032D02*
X74724D01*
X65276Y169968D02*
X74724D01*
Y166032D02*
Y169968D01*
X49776Y165835D02*
X59224D01*
X49776Y170165D02*
X59224D01*
X49776Y165835D02*
Y170165D01*
X59224Y165835D02*
Y170165D01*
X154311Y51095D02*
Y62906D01*
X130787D02*
X154311D01*
X130787Y51095D02*
Y62906D01*
Y51095D02*
X154311D01*
X132658Y54047D02*
Y59953D01*
Y57000D02*
X135610Y59953D01*
Y54047D02*
Y59953D01*
X132658Y57000D02*
X135610Y54047D01*
X131673Y57000D02*
X132658D01*
X135610D02*
X136594D01*
X265090Y62500D02*
Y72500D01*
X255000Y62500D02*
X265090D01*
X255000D02*
Y72500D01*
X265090D01*
X282591Y80000D02*
Y90000D01*
X272500Y80000D02*
X282591D01*
X272500D02*
Y90000D01*
X282591D01*
X84626Y101437D02*
X100374D01*
Y93563D02*
Y101437D01*
X84626Y93563D02*
X100374D01*
X84626D02*
Y101437D01*
Y92437D02*
X100374D01*
Y84563D02*
Y92437D01*
X84626Y84563D02*
X100374D01*
X84626D02*
Y92437D01*
X47504Y5874D02*
X53016Y362D01*
X80083D01*
X85496Y5776D01*
Y39339D01*
X47504D02*
X85496D01*
X47504Y5874D02*
Y39339D01*
X216276Y184165D02*
X225724D01*
Y179835D02*
Y184165D01*
X216276Y179835D02*
X225724D01*
X216276D02*
Y184165D01*
X143032Y309276D02*
X146968D01*
Y318724D01*
X143032Y309276D02*
Y318724D01*
X146968D01*
X143819Y317937D02*
X146181D01*
X145000Y317937D02*
X146181Y316756D01*
X143819D02*
X146181D01*
X143819D02*
X145000Y317937D01*
X137335Y309276D02*
Y318724D01*
X141665Y309276D02*
Y318724D01*
X137335D02*
X141665D01*
X137335Y309276D02*
X141665D01*
X134000Y200000D02*
Y290000D01*
X124000Y200000D02*
X134000D01*
X124000D02*
Y290000D01*
X134000D01*
X104910Y320000D02*
Y330000D01*
X115000D01*
Y320000D02*
Y330000D01*
X104910Y320000D02*
X115000D01*
X62850Y104591D02*
X72299D01*
X62850Y108921D02*
X72299D01*
X62850Y104591D02*
Y108921D01*
X72299Y104591D02*
Y108921D01*
X62850Y118921D02*
X72299D01*
Y114591D02*
Y118921D01*
X62850Y114591D02*
X72299D01*
X62850D02*
Y118921D01*
X77165Y114526D02*
Y123974D01*
X72835Y114526D02*
X77165D01*
X72835D02*
Y123974D01*
X77165D01*
X165000Y128500D02*
Y278500D01*
X155000D02*
X165000D01*
X155000Y128500D02*
X165000D01*
X155000D02*
Y278500D01*
X255000Y128500D02*
Y278500D01*
Y128500D02*
X265000D01*
X255000Y278500D02*
X265000D01*
Y128500D02*
Y278500D01*
X54594Y75189D02*
X66405D01*
Y98713D01*
X54594D02*
X66405D01*
X54594Y75189D02*
Y98713D01*
X57547Y96842D02*
X63453D01*
X60500D02*
X63453Y93890D01*
X57547D02*
X63453D01*
X57547D02*
X60500Y96842D01*
Y97827D01*
Y92905D02*
Y93890D01*
X47776Y70835D02*
X57224D01*
X47776Y75165D02*
X57224D01*
X47776Y70835D02*
Y75165D01*
X57224Y70835D02*
Y75165D01*
X52453Y75709D02*
Y89193D01*
X46547Y75709D02*
X52453D01*
X46547D02*
Y89193D01*
X52453D01*
X47039Y85650D02*
X51961D01*
X47039D02*
X49500Y88110D01*
X51961Y85650D01*
X49500Y84665D02*
Y85650D01*
Y88110D02*
Y89095D01*
X47039Y88110D02*
X51961D01*
X216276Y174835D02*
X225724D01*
X216276Y179165D02*
X225724D01*
X216276Y174835D02*
Y179165D01*
X225724Y174835D02*
Y179165D01*
X216276Y169835D02*
X225724D01*
X216276Y174165D02*
X225724D01*
X216276Y169835D02*
Y174165D01*
X225724Y169835D02*
Y174165D01*
X49776Y157335D02*
X59224D01*
X49776Y161665D02*
X59224D01*
X49776Y157335D02*
Y161665D01*
X59224Y157335D02*
Y161665D01*
X72756Y160681D02*
X73937Y159500D01*
X72756Y158319D02*
Y160681D01*
Y158319D02*
X73937Y159500D01*
X73937Y158319D02*
Y160681D01*
X65276Y157531D02*
Y161469D01*
Y157531D02*
X74724D01*
X65276Y161469D02*
X74724D01*
Y157531D02*
Y161469D01*
X43165Y160276D02*
Y169724D01*
X38835Y160276D02*
X43165D01*
X38835D02*
Y169724D01*
X43165D01*
X38835Y147276D02*
Y156724D01*
X43165D01*
Y147276D02*
Y156724D01*
X38835Y147276D02*
X43165D01*
X48165Y160276D02*
Y169724D01*
X43835Y160276D02*
X48165D01*
X43835D02*
Y169724D01*
X48165D01*
X62850Y113921D02*
X72299D01*
X62850Y109591D02*
X72299D01*
Y113921D01*
X62850Y109591D02*
Y113921D01*
Y119591D02*
X72299D01*
X62850Y123921D02*
X72299D01*
X62850Y119591D02*
Y123921D01*
X72299Y119591D02*
Y123921D01*
X47276Y109335D02*
X56724D01*
X47276D02*
Y113665D01*
X56724D01*
Y109335D02*
Y113665D01*
X62776Y125335D02*
X72224D01*
X62776Y129665D02*
X72224D01*
X62776Y125335D02*
Y129665D01*
X72224Y125335D02*
Y129665D01*
X45185Y128661D02*
X58965D01*
Y116850D02*
Y128661D01*
X45185Y116850D02*
X58965D01*
X45185D02*
Y128661D01*
X3000Y96000D02*
X46000D01*
X3000Y69000D02*
Y96000D01*
Y69000D02*
X46000D01*
Y96000D01*
X9953Y64933D02*
X54047D01*
X9953Y44067D02*
Y64933D01*
Y44067D02*
X54047D01*
Y64933D01*
X171276Y145665D02*
X180724D01*
X171276Y141335D02*
X180724D01*
Y145665D01*
X171276Y141335D02*
Y145665D01*
Y175665D02*
X180724D01*
X171276Y171335D02*
X180724D01*
Y175665D01*
X171276Y171335D02*
Y175665D01*
X238256Y147311D02*
X238551Y147016D01*
X239142D01*
X239437Y147311D01*
Y148492D01*
X239142Y148787D01*
X238551D01*
X238256Y148492D01*
X236485Y148787D02*
X237666D01*
X236485Y147607D01*
Y147311D01*
X236780Y147016D01*
X237371D01*
X237666Y147311D01*
X235895Y147016D02*
X234714D01*
Y147311D01*
X235895Y148492D01*
Y148787D01*
X255500Y325968D02*
X256812D01*
X256156D01*
Y324000D01*
X257468D02*
Y325968D01*
X258452D01*
X258780Y325640D01*
Y324984D01*
X258452Y324656D01*
X257468D01*
X259436Y324000D02*
X260092D01*
X259764D01*
Y325968D01*
X259436Y325640D01*
X262387Y324000D02*
X261076D01*
X262387Y325312D01*
Y325640D01*
X262059Y325968D01*
X261404D01*
X261076Y325640D01*
X225500Y325968D02*
X226812D01*
X226156D01*
Y324000D01*
X227468D02*
Y325968D01*
X228452D01*
X228780Y325640D01*
Y324984D01*
X228452Y324656D01*
X227468D01*
X229436Y324000D02*
X230092D01*
X229764D01*
Y325968D01*
X229436Y325640D01*
X231076Y324000D02*
X231732D01*
X231404D01*
Y325968D01*
X231076Y325640D01*
X199484Y70756D02*
Y71937D01*
X198598D01*
Y71347D01*
Y71937D01*
X197713D01*
X199484Y70166D02*
X197713D01*
Y69280D01*
X198008Y68985D01*
X198303D01*
X198598Y69280D01*
Y70166D01*
Y69280D01*
X198893Y68985D01*
X199188D01*
X199484Y69280D01*
Y70166D01*
X197713Y68395D02*
Y67804D01*
Y68100D01*
X199484D01*
X199188Y68395D01*
X273000Y130968D02*
X274312D01*
X273656D01*
Y129000D01*
X274968D02*
Y130968D01*
X275952D01*
X276280Y130640D01*
Y129984D01*
X275952Y129656D01*
X274968D01*
X276936Y129000D02*
X277592D01*
X277264D01*
Y130968D01*
X276936Y130640D01*
X279888Y130968D02*
X278576D01*
Y129984D01*
X279232Y130312D01*
X279559D01*
X279888Y129984D01*
Y129328D01*
X279559Y129000D01*
X278904D01*
X278576Y129328D01*
X273000Y115968D02*
X274312D01*
X273656D01*
Y114000D01*
X274968D02*
Y115968D01*
X275952D01*
X276280Y115640D01*
Y114984D01*
X275952Y114656D01*
X274968D01*
X276936Y114000D02*
X277592D01*
X277264D01*
Y115968D01*
X276936Y115640D01*
X278576D02*
X278904Y115968D01*
X279559D01*
X279888Y115640D01*
Y114328D01*
X279559Y114000D01*
X278904D01*
X278576Y114328D01*
Y115640D01*
X273000Y100968D02*
X274312D01*
X273656D01*
Y99000D01*
X274968D02*
Y100968D01*
X275952D01*
X276280Y100640D01*
Y99984D01*
X275952Y99656D01*
X274968D01*
X276936Y99000D02*
X277592D01*
X277264D01*
Y100968D01*
X276936Y100640D01*
X255500Y100968D02*
X256812D01*
X256156D01*
Y99000D01*
X257468D02*
Y100968D01*
X258452D01*
X258780Y100640D01*
Y99984D01*
X258452Y99656D01*
X257468D01*
X259436Y100640D02*
X259764Y100968D01*
X260420D01*
X260748Y100640D01*
Y100312D01*
X260420Y99984D01*
X260748Y99656D01*
Y99328D01*
X260420Y99000D01*
X259764D01*
X259436Y99328D01*
Y99656D01*
X259764Y99984D01*
X259436Y100312D01*
Y100640D01*
X259764Y99984D02*
X260420D01*
X255500Y85968D02*
X256812D01*
X256156D01*
Y84000D01*
X257468D02*
Y85968D01*
X258452D01*
X258780Y85640D01*
Y84984D01*
X258452Y84656D01*
X257468D01*
X259436Y84328D02*
X259764Y84000D01*
X260420D01*
X260748Y84328D01*
Y85640D01*
X260420Y85968D01*
X259764D01*
X259436Y85640D01*
Y85312D01*
X259764Y84984D01*
X260748D01*
X273000Y68468D02*
X274312D01*
X273656D01*
Y66500D01*
X274968D02*
Y68468D01*
X275952D01*
X276280Y68140D01*
Y67484D01*
X275952Y67156D01*
X274968D01*
X276936Y66500D02*
X277592D01*
X277264D01*
Y68468D01*
X276936Y68140D01*
X279559Y66500D02*
Y68468D01*
X278576Y67484D01*
X279888D01*
X244756Y60516D02*
X245937D01*
Y61402D01*
X245347D01*
X245937D01*
Y62287D01*
X244166Y60516D02*
Y62287D01*
X243280D01*
X242985Y61992D01*
Y61697D01*
X243280Y61402D01*
X244166D01*
X243280D01*
X242985Y61107D01*
Y60812D01*
X243280Y60516D01*
X244166D01*
X242395Y60812D02*
X242100Y60516D01*
X241509D01*
X241214Y60812D01*
Y61107D01*
X241509Y61402D01*
X241805D01*
X241509D01*
X241214Y61697D01*
Y61992D01*
X241509Y62287D01*
X242100D01*
X242395Y61992D01*
X318563Y76713D02*
Y78484D01*
X319448D01*
X319744Y78189D01*
Y77598D01*
X319448Y77303D01*
X318563D01*
X319153D02*
X319744Y76713D01*
X321515D02*
X320334D01*
X321515Y77893D01*
Y78189D01*
X321220Y78484D01*
X320629D01*
X320334Y78189D01*
X322105Y76713D02*
X322695D01*
X322400D01*
Y78484D01*
X322105Y78189D01*
X318563Y71213D02*
Y72984D01*
X319448D01*
X319744Y72689D01*
Y72098D01*
X319448Y71803D01*
X318563D01*
X319153D02*
X319744Y71213D01*
X321515D02*
X320334D01*
X321515Y72393D01*
Y72689D01*
X321220Y72984D01*
X320629D01*
X320334Y72689D01*
X323286Y71213D02*
X322105D01*
X323286Y72393D01*
Y72689D01*
X322991Y72984D01*
X322400D01*
X322105Y72689D01*
X417744Y144188D02*
X417449Y144484D01*
X416858D01*
X416563Y144188D01*
Y143008D01*
X416858Y142713D01*
X417449D01*
X417744Y143008D01*
X418334Y142713D02*
X418924D01*
X418629D01*
Y144484D01*
X418334Y144188D01*
X420991Y144484D02*
X420400Y144188D01*
X419810Y143598D01*
Y143008D01*
X420105Y142713D01*
X420695D01*
X420991Y143008D01*
Y143303D01*
X420695Y143598D01*
X419810D01*
X417744Y139189D02*
X417449Y139484D01*
X416858D01*
X416563Y139189D01*
Y138008D01*
X416858Y137713D01*
X417449D01*
X417744Y138008D01*
X418334Y137713D02*
X418924D01*
X418629D01*
Y139484D01*
X418334Y139189D01*
X419810Y139484D02*
X420991D01*
Y139189D01*
X419810Y138008D01*
Y137713D01*
X417744Y134188D02*
X417449Y134484D01*
X416858D01*
X416563Y134188D01*
Y133008D01*
X416858Y132713D01*
X417449D01*
X417744Y133008D01*
X418334Y132713D02*
X418924D01*
X418629D01*
Y134484D01*
X418334Y134188D01*
X419810D02*
X420105Y134484D01*
X420695D01*
X420991Y134188D01*
Y133893D01*
X420695Y133598D01*
X420991Y133303D01*
Y133008D01*
X420695Y132713D01*
X420105D01*
X419810Y133008D01*
Y133303D01*
X420105Y133598D01*
X419810Y133893D01*
Y134188D01*
X420105Y133598D02*
X420695D01*
X417744Y129189D02*
X417449Y129484D01*
X416858D01*
X416563Y129189D01*
Y128008D01*
X416858Y127713D01*
X417449D01*
X417744Y128008D01*
X418334Y127713D02*
X418924D01*
X418629D01*
Y129484D01*
X418334Y129189D01*
X419810Y128008D02*
X420105Y127713D01*
X420695D01*
X420991Y128008D01*
Y129189D01*
X420695Y129484D01*
X420105D01*
X419810Y129189D01*
Y128893D01*
X420105Y128598D01*
X420991D01*
X55189Y140256D02*
X55484Y140551D01*
Y141142D01*
X55189Y141437D01*
X54008D01*
X53713Y141142D01*
Y140551D01*
X54008Y140256D01*
X53713Y139666D02*
Y139076D01*
Y139371D01*
X55484D01*
X55189Y139666D01*
Y138190D02*
X55484Y137895D01*
Y137304D01*
X55189Y137009D01*
X54008D01*
X53713Y137304D01*
Y137895D01*
X54008Y138190D01*
X55189D01*
X197744Y336688D02*
X197449Y336984D01*
X196858D01*
X196563Y336688D01*
Y335508D01*
X196858Y335213D01*
X197449D01*
X197744Y335508D01*
X199515Y335213D02*
X198334D01*
X199515Y336393D01*
Y336688D01*
X199220Y336984D01*
X198629D01*
X198334Y336688D01*
X201286Y335213D02*
X200105D01*
X201286Y336393D01*
Y336688D01*
X200991Y336984D01*
X200400D01*
X200105Y336688D01*
X202244Y318189D02*
X201948Y318484D01*
X201358D01*
X201063Y318189D01*
Y317008D01*
X201358Y316713D01*
X201948D01*
X202244Y317008D01*
X204015Y316713D02*
X202834D01*
X204015Y317893D01*
Y318189D01*
X203720Y318484D01*
X203129D01*
X202834Y318189D01*
X204605D02*
X204900Y318484D01*
X205491D01*
X205786Y318189D01*
Y317893D01*
X205491Y317598D01*
X205195D01*
X205491D01*
X205786Y317303D01*
Y317008D01*
X205491Y316713D01*
X204900D01*
X204605Y317008D01*
X176533Y322563D02*
X179813D01*
X180468Y323219D01*
Y324531D01*
X179813Y325187D01*
X176533D01*
Y329123D02*
Y326499D01*
X178501D01*
X177845Y327811D01*
Y328467D01*
X178501Y329123D01*
X179813D01*
X180468Y328467D01*
Y327155D01*
X179813Y326499D01*
X167787Y325063D02*
X166016D01*
Y325949D01*
X166312Y326244D01*
X166902D01*
X167197Y325949D01*
Y325063D01*
Y325653D02*
X167787Y326244D01*
Y326834D02*
Y327424D01*
Y327129D01*
X166016D01*
X166312Y326834D01*
X167787Y328310D02*
Y328900D01*
Y328605D01*
X166016D01*
X166312Y328310D01*
X161311Y326244D02*
X161016Y325949D01*
Y325358D01*
X161311Y325063D01*
X162492D01*
X162787Y325358D01*
Y325949D01*
X162492Y326244D01*
X162787Y328015D02*
Y326834D01*
X161607Y328015D01*
X161311D01*
X161016Y327720D01*
Y327129D01*
X161311Y326834D01*
X162787Y329491D02*
X161016D01*
X161902Y328605D01*
Y329786D01*
X65500Y325968D02*
X66812D01*
X66156D01*
Y324000D01*
X67468D02*
Y325968D01*
X68452D01*
X68780Y325640D01*
Y324984D01*
X68452Y324656D01*
X67468D01*
X69436Y324000D02*
X70092D01*
X69764D01*
Y325968D01*
X69436Y325640D01*
X71076D02*
X71404Y325968D01*
X72060D01*
X72387Y325640D01*
Y325312D01*
X72060Y324984D01*
X71732D01*
X72060D01*
X72387Y324656D01*
Y324328D01*
X72060Y324000D01*
X71404D01*
X71076Y324328D01*
X50188Y140256D02*
X50484Y140551D01*
Y141142D01*
X50188Y141437D01*
X49008D01*
X48713Y141142D01*
Y140551D01*
X49008Y140256D01*
Y139666D02*
X48713Y139371D01*
Y138780D01*
X49008Y138485D01*
X50188D01*
X50484Y138780D01*
Y139371D01*
X50188Y139666D01*
X49893D01*
X49598Y139371D01*
Y138485D01*
X420287Y91563D02*
X418516D01*
Y92449D01*
X418812Y92744D01*
X419402D01*
X419697Y92449D01*
Y91563D01*
Y92153D02*
X420287Y92744D01*
Y93334D02*
Y93924D01*
Y93629D01*
X418516D01*
X418812Y93334D01*
Y94810D02*
X418516Y95105D01*
Y95696D01*
X418812Y95991D01*
X419992D01*
X420287Y95696D01*
Y95105D01*
X419992Y94810D01*
X418812D01*
X415189Y98256D02*
X415484Y98551D01*
Y99142D01*
X415189Y99437D01*
X414008D01*
X413713Y99142D01*
Y98551D01*
X414008Y98256D01*
X413713Y96485D02*
Y97666D01*
X414893Y96485D01*
X415189D01*
X415484Y96780D01*
Y97371D01*
X415189Y97666D01*
Y95895D02*
X415484Y95600D01*
Y95009D01*
X415189Y94714D01*
X414008D01*
X413713Y95009D01*
Y95600D01*
X414008Y95895D01*
X415189D01*
X389787Y34563D02*
X388016D01*
Y35449D01*
X388312Y35744D01*
X388902D01*
X389197Y35449D01*
Y34563D01*
Y35153D02*
X389787Y35744D01*
X388312Y36334D02*
X388016Y36629D01*
Y37220D01*
X388312Y37515D01*
X388607D01*
X388902Y37220D01*
X389197Y37515D01*
X389492D01*
X389787Y37220D01*
Y36629D01*
X389492Y36334D01*
X389197D01*
X388902Y36629D01*
X388607Y36334D01*
X388312D01*
X388902Y36629D02*
Y37220D01*
X423713Y99437D02*
X425484D01*
Y98551D01*
X425188Y98256D01*
X424598D01*
X424303Y98551D01*
Y99437D01*
Y98847D02*
X423713Y98256D01*
X425484Y97666D02*
Y96485D01*
X425188D01*
X424008Y97666D01*
X423713D01*
X430287Y91563D02*
X428516D01*
Y92449D01*
X428812Y92744D01*
X429402D01*
X429697Y92449D01*
Y91563D01*
Y92153D02*
X430287Y92744D01*
X429992Y93334D02*
X430287Y93629D01*
Y94220D01*
X429992Y94515D01*
X428812D01*
X428516Y94220D01*
Y93629D01*
X428812Y93334D01*
X429107D01*
X429402Y93629D01*
Y94515D01*
X434811Y92744D02*
X434516Y92449D01*
Y91858D01*
X434811Y91563D01*
X435992D01*
X436287Y91858D01*
Y92449D01*
X435992Y92744D01*
X436287Y94515D02*
Y93334D01*
X435107Y94515D01*
X434811D01*
X434516Y94220D01*
Y93629D01*
X434811Y93334D01*
X436287Y95105D02*
Y95696D01*
Y95400D01*
X434516D01*
X434811Y95105D01*
X303213Y65937D02*
X304984D01*
Y65052D01*
X304689Y64756D01*
X304098D01*
X303803Y65052D01*
Y65937D01*
Y65347D02*
X303213Y64756D01*
Y64166D02*
Y63576D01*
Y63871D01*
X304984D01*
X304689Y64166D01*
X303508Y62690D02*
X303213Y62395D01*
Y61804D01*
X303508Y61509D01*
X304689D01*
X304984Y61804D01*
Y62395D01*
X304689Y62690D01*
X304393D01*
X304098Y62395D01*
Y61509D01*
X293213Y65937D02*
X294984D01*
Y65052D01*
X294689Y64756D01*
X294098D01*
X293803Y65052D01*
Y65937D01*
Y65347D02*
X293213Y64756D01*
Y62985D02*
Y64166D01*
X294393Y62985D01*
X294689D01*
X294984Y63280D01*
Y63871D01*
X294689Y64166D01*
Y62395D02*
X294984Y62100D01*
Y61509D01*
X294689Y61214D01*
X293508D01*
X293213Y61509D01*
Y62100D01*
X293508Y62395D01*
X294689D01*
X198744Y56688D02*
X198449Y56984D01*
X197858D01*
X197563Y56688D01*
Y55508D01*
X197858Y55213D01*
X198449D01*
X198744Y55508D01*
X200515Y55213D02*
X199334D01*
X200515Y56393D01*
Y56688D01*
X200220Y56984D01*
X199629D01*
X199334Y56688D01*
X202286Y56984D02*
X201695Y56688D01*
X201105Y56098D01*
Y55508D01*
X201400Y55213D01*
X201991D01*
X202286Y55508D01*
Y55803D01*
X201991Y56098D01*
X201105D01*
X198744Y51688D02*
X198449Y51984D01*
X197858D01*
X197563Y51688D01*
Y50508D01*
X197858Y50213D01*
X198449D01*
X198744Y50508D01*
X200515Y50213D02*
X199334D01*
X200515Y51393D01*
Y51688D01*
X200220Y51984D01*
X199629D01*
X199334Y51688D01*
X202286Y51984D02*
X201105D01*
Y51098D01*
X201695Y51393D01*
X201991D01*
X202286Y51098D01*
Y50508D01*
X201991Y50213D01*
X201400D01*
X201105Y50508D01*
X180287Y64063D02*
X178516D01*
Y64948D01*
X178812Y65244D01*
X179402D01*
X179697Y64948D01*
Y64063D01*
Y64653D02*
X180287Y65244D01*
Y65834D02*
Y66424D01*
Y66129D01*
X178516D01*
X178812Y65834D01*
X178516Y67310D02*
Y68491D01*
X178812D01*
X179992Y67310D01*
X180287D01*
X174787Y64063D02*
X173016D01*
Y64948D01*
X173311Y65244D01*
X173902D01*
X174197Y64948D01*
Y64063D01*
Y64653D02*
X174787Y65244D01*
Y65834D02*
Y66424D01*
Y66129D01*
X173016D01*
X173311Y65834D01*
Y67310D02*
X173016Y67605D01*
Y68195D01*
X173311Y68491D01*
X173607D01*
X173902Y68195D01*
X174197Y68491D01*
X174492D01*
X174787Y68195D01*
Y67605D01*
X174492Y67310D01*
X174197D01*
X173902Y67605D01*
X173607Y67310D01*
X173311D01*
X173902Y67605D02*
Y68195D01*
X175000Y86468D02*
X176312D01*
X175656D01*
Y84500D01*
X176968D02*
Y86468D01*
X177952D01*
X178280Y86140D01*
Y85484D01*
X177952Y85156D01*
X176968D01*
X180248Y86468D02*
X178936D01*
Y85484D01*
X179592Y85812D01*
X179920D01*
X180248Y85484D01*
Y84828D01*
X179920Y84500D01*
X179264D01*
X178936Y84828D01*
X127744Y71188D02*
X127448Y71484D01*
X126858D01*
X126563Y71188D01*
Y70008D01*
X126858Y69713D01*
X127448D01*
X127744Y70008D01*
X129515Y69713D02*
X128334D01*
X129515Y70893D01*
Y71188D01*
X129220Y71484D01*
X128629D01*
X128334Y71188D01*
X130105Y70008D02*
X130400Y69713D01*
X130991D01*
X131286Y70008D01*
Y71188D01*
X130991Y71484D01*
X130400D01*
X130105Y71188D01*
Y70893D01*
X130400Y70598D01*
X131286D01*
X121484Y124756D02*
Y125937D01*
X120598D01*
Y125347D01*
Y125937D01*
X119713D01*
X121484Y124166D02*
X119713D01*
Y123280D01*
X120008Y122985D01*
X120303D01*
X120598Y123280D01*
Y124166D01*
Y123280D01*
X120893Y122985D01*
X121188D01*
X121484Y123280D01*
Y124166D01*
X119713Y121214D02*
Y122395D01*
X120893Y121214D01*
X121188D01*
X121484Y121509D01*
Y122100D01*
X121188Y122395D01*
X3311Y128744D02*
X3016Y128448D01*
Y127858D01*
X3311Y127563D01*
X4492D01*
X4787Y127858D01*
Y128448D01*
X4492Y128744D01*
X3311Y129334D02*
X3016Y129629D01*
Y130220D01*
X3311Y130515D01*
X3607D01*
X3902Y130220D01*
X4197Y130515D01*
X4492D01*
X4787Y130220D01*
Y129629D01*
X4492Y129334D01*
X4197D01*
X3902Y129629D01*
X3607Y129334D01*
X3311D01*
X3902Y129629D02*
Y130220D01*
X238256Y185311D02*
X238551Y185016D01*
X239142D01*
X239437Y185311D01*
Y186492D01*
X239142Y186787D01*
X238551D01*
X238256Y186492D01*
X237666Y185311D02*
X237371Y185016D01*
X236780D01*
X236485Y185311D01*
Y185607D01*
X236780Y185902D01*
X237076D01*
X236780D01*
X236485Y186197D01*
Y186492D01*
X236780Y186787D01*
X237371D01*
X237666Y186492D01*
X235895Y185016D02*
X234714D01*
Y185311D01*
X235895Y186492D01*
Y186787D01*
X238256Y165812D02*
X238551Y165516D01*
X239142D01*
X239437Y165812D01*
Y166992D01*
X239142Y167287D01*
X238551D01*
X238256Y166992D01*
X237666Y165812D02*
X237371Y165516D01*
X236780D01*
X236485Y165812D01*
Y166107D01*
X236780Y166402D01*
X237076D01*
X236780D01*
X236485Y166697D01*
Y166992D01*
X236780Y167287D01*
X237371D01*
X237666Y166992D01*
X234714Y167287D02*
X235895D01*
X234714Y166107D01*
Y165812D01*
X235009Y165516D01*
X235600D01*
X235895Y165812D01*
X245787Y67063D02*
X244016D01*
Y67949D01*
X244311Y68244D01*
X244902D01*
X245197Y67949D01*
Y67063D01*
Y67653D02*
X245787Y68244D01*
Y70015D02*
Y68834D01*
X244607Y70015D01*
X244311D01*
X244016Y69720D01*
Y69129D01*
X244311Y68834D01*
X245787Y71491D02*
X244016D01*
X244902Y70605D01*
Y71786D01*
X239787Y67063D02*
X238016D01*
Y67949D01*
X238312Y68244D01*
X238902D01*
X239197Y67949D01*
Y67063D01*
Y67653D02*
X239787Y68244D01*
Y70015D02*
Y68834D01*
X238607Y70015D01*
X238312D01*
X238016Y69720D01*
Y69129D01*
X238312Y68834D01*
Y70605D02*
X238016Y70900D01*
Y71491D01*
X238312Y71786D01*
X238607D01*
X238902Y71491D01*
Y71196D01*
Y71491D01*
X239197Y71786D01*
X239492D01*
X239787Y71491D01*
Y70900D01*
X239492Y70605D01*
X239244Y57188D02*
X238948Y57484D01*
X238358D01*
X238063Y57188D01*
Y56008D01*
X238358Y55713D01*
X238948D01*
X239244Y56008D01*
X239834Y57188D02*
X240129Y57484D01*
X240720D01*
X241015Y57188D01*
Y56893D01*
X240720Y56598D01*
X240424D01*
X240720D01*
X241015Y56303D01*
Y56008D01*
X240720Y55713D01*
X240129D01*
X239834Y56008D01*
X242491Y55713D02*
Y57484D01*
X241605Y56598D01*
X242786D01*
X239244Y52188D02*
X238948Y52484D01*
X238358D01*
X238063Y52188D01*
Y51008D01*
X238358Y50713D01*
X238948D01*
X239244Y51008D01*
X239834Y52188D02*
X240129Y52484D01*
X240720D01*
X241015Y52188D01*
Y51893D01*
X240720Y51598D01*
X240424D01*
X240720D01*
X241015Y51303D01*
Y51008D01*
X240720Y50713D01*
X240129D01*
X239834Y51008D01*
X241605Y52188D02*
X241900Y52484D01*
X242491D01*
X242786Y52188D01*
Y51893D01*
X242491Y51598D01*
X242196D01*
X242491D01*
X242786Y51303D01*
Y51008D01*
X242491Y50713D01*
X241900D01*
X241605Y51008D01*
X224437Y158287D02*
Y156516D01*
X223552D01*
X223256Y156811D01*
Y157402D01*
X223552Y157697D01*
X224437D01*
X223847D02*
X223256Y158287D01*
X221485D02*
X222666D01*
X221485Y157107D01*
Y156811D01*
X221780Y156516D01*
X222371D01*
X222666Y156811D01*
X219714Y156516D02*
X220304Y156811D01*
X220895Y157402D01*
Y157992D01*
X220600Y158287D01*
X220009D01*
X219714Y157992D01*
Y157697D01*
X220009Y157402D01*
X220895D01*
X217744Y163189D02*
X217448Y163484D01*
X216858D01*
X216563Y163189D01*
Y162008D01*
X216858Y161713D01*
X217448D01*
X217744Y162008D01*
X218334Y163189D02*
X218629Y163484D01*
X219220D01*
X219515Y163189D01*
Y162893D01*
X219220Y162598D01*
X218924D01*
X219220D01*
X219515Y162303D01*
Y162008D01*
X219220Y161713D01*
X218629D01*
X218334Y162008D01*
X221286Y163484D02*
X220105D01*
Y162598D01*
X220695Y162893D01*
X220991D01*
X221286Y162598D01*
Y162008D01*
X220991Y161713D01*
X220400D01*
X220105Y162008D01*
X224437Y153287D02*
Y151516D01*
X223552D01*
X223256Y151812D01*
Y152402D01*
X223552Y152697D01*
X224437D01*
X223847D02*
X223256Y153287D01*
X221485D02*
X222666D01*
X221485Y152107D01*
Y151812D01*
X221780Y151516D01*
X222371D01*
X222666Y151812D01*
X219714Y151516D02*
X220895D01*
Y152402D01*
X220304Y152107D01*
X220009D01*
X219714Y152402D01*
Y152992D01*
X220009Y153287D01*
X220600D01*
X220895Y152992D01*
X224437Y139287D02*
Y137516D01*
X223552D01*
X223256Y137812D01*
Y138402D01*
X223552Y138697D01*
X224437D01*
X223847D02*
X223256Y139287D01*
X222666D02*
X222076D01*
X222371D01*
Y137516D01*
X222666Y137812D01*
X221190D02*
X220895Y137516D01*
X220304D01*
X220009Y137812D01*
Y138107D01*
X220304Y138402D01*
X220600D01*
X220304D01*
X220009Y138697D01*
Y138992D01*
X220304Y139287D01*
X220895D01*
X221190Y138992D01*
X217744Y144188D02*
X217448Y144484D01*
X216858D01*
X216563Y144188D01*
Y143008D01*
X216858Y142713D01*
X217448D01*
X217744Y143008D01*
X219515Y142713D02*
X218334D01*
X219515Y143893D01*
Y144188D01*
X219220Y144484D01*
X218629D01*
X218334Y144188D01*
X220105D02*
X220400Y144484D01*
X220991D01*
X221286Y144188D01*
Y143893D01*
X220991Y143598D01*
X221286Y143303D01*
Y143008D01*
X220991Y142713D01*
X220400D01*
X220105Y143008D01*
Y143303D01*
X220400Y143598D01*
X220105Y143893D01*
Y144188D01*
X220400Y143598D02*
X220991D01*
X224437Y134287D02*
Y132516D01*
X223552D01*
X223256Y132811D01*
Y133402D01*
X223552Y133697D01*
X224437D01*
X223847D02*
X223256Y134287D01*
X222666D02*
X222076D01*
X222371D01*
Y132516D01*
X222666Y132811D01*
X220009Y134287D02*
X221190D01*
X220009Y133107D01*
Y132811D01*
X220304Y132516D01*
X220895D01*
X221190Y132811D01*
X125500Y325968D02*
X126812D01*
X126156D01*
Y324000D01*
X127468D02*
Y325968D01*
X128452D01*
X128780Y325640D01*
Y324984D01*
X128452Y324656D01*
X127468D01*
X130420Y324000D02*
Y325968D01*
X129436Y324984D01*
X130748D01*
X85500Y325968D02*
X86812D01*
X86156D01*
Y324000D01*
X87468D02*
Y325968D01*
X88452D01*
X88780Y325640D01*
Y324984D01*
X88452Y324656D01*
X87468D01*
X90748Y324000D02*
X89436D01*
X90748Y325312D01*
Y325640D01*
X90420Y325968D01*
X89764D01*
X89436Y325640D01*
X149937Y224287D02*
Y222516D01*
X149051D01*
X148756Y222812D01*
Y223402D01*
X149051Y223697D01*
X149937D01*
X149347D02*
X148756Y224287D01*
X148166D02*
X147576D01*
X147871D01*
Y222516D01*
X148166Y222812D01*
X145805Y224287D02*
Y222516D01*
X146690Y223402D01*
X145509D01*
X149937Y214287D02*
Y212516D01*
X149051D01*
X148756Y212811D01*
Y213402D01*
X149051Y213697D01*
X149937D01*
X149347D02*
X148756Y214287D01*
X148166D02*
X147576D01*
X147871D01*
Y212516D01*
X148166Y212811D01*
X145509Y212516D02*
X146690D01*
Y213402D01*
X146100Y213107D01*
X145805D01*
X145509Y213402D01*
Y213992D01*
X145805Y214287D01*
X146395D01*
X146690Y213992D01*
X58437Y168787D02*
Y167016D01*
X57551D01*
X57256Y167312D01*
Y167902D01*
X57551Y168197D01*
X58437D01*
X57847D02*
X57256Y168787D01*
X56666D02*
X56076D01*
X56371D01*
Y167016D01*
X56666Y167312D01*
X264500Y66532D02*
X263188D01*
X263844D01*
Y68500D01*
X262532D02*
Y66532D01*
X261548D01*
X261220Y66860D01*
Y67516D01*
X261548Y67844D01*
X262532D01*
X260564Y66532D02*
X259252D01*
Y66860D01*
X260564Y68172D01*
Y68500D01*
X282000Y84032D02*
X280688D01*
X281344D01*
Y86000D01*
X280032D02*
Y84032D01*
X279048D01*
X278720Y84360D01*
Y85016D01*
X279048Y85344D01*
X280032D01*
X276752Y84032D02*
X277408Y84360D01*
X278064Y85016D01*
Y85672D01*
X277736Y86000D01*
X277080D01*
X276752Y85672D01*
Y85344D01*
X277080Y85016D01*
X278064D01*
X218244Y182688D02*
X217949Y182984D01*
X217358D01*
X217063Y182688D01*
Y181508D01*
X217358Y181213D01*
X217949D01*
X218244Y181508D01*
X218834Y182688D02*
X219129Y182984D01*
X219720D01*
X220015Y182688D01*
Y182393D01*
X219720Y182098D01*
X219424D01*
X219720D01*
X220015Y181803D01*
Y181508D01*
X219720Y181213D01*
X219129D01*
X218834Y181508D01*
X220605Y182688D02*
X220900Y182984D01*
X221491D01*
X221786Y182688D01*
Y182393D01*
X221491Y182098D01*
X221786Y181803D01*
Y181508D01*
X221491Y181213D01*
X220900D01*
X220605Y181508D01*
Y181803D01*
X220900Y182098D01*
X220605Y182393D01*
Y182688D01*
X220900Y182098D02*
X221491D01*
X140287Y310063D02*
X138516D01*
Y310948D01*
X138812Y311244D01*
X139402D01*
X139697Y310948D01*
Y310063D01*
Y310653D02*
X140287Y311244D01*
Y311834D02*
Y312424D01*
Y312129D01*
X138516D01*
X138812Y311834D01*
X138516Y314491D02*
X138812Y313900D01*
X139402Y313310D01*
X139992D01*
X140287Y313605D01*
Y314195D01*
X139992Y314491D01*
X139697D01*
X139402Y314195D01*
Y313310D01*
X105500Y325968D02*
X106812D01*
X106156D01*
Y324000D01*
X107468D02*
Y325968D01*
X108452D01*
X108780Y325640D01*
Y324984D01*
X108452Y324656D01*
X107468D01*
X109436Y325640D02*
X109764Y325968D01*
X110420D01*
X110748Y325640D01*
Y325312D01*
X110420Y324984D01*
X110092D01*
X110420D01*
X110748Y324656D01*
Y324328D01*
X110420Y324000D01*
X109764D01*
X109436Y324328D01*
X71512Y107543D02*
Y105772D01*
X70626D01*
X70331Y106067D01*
Y106658D01*
X70626Y106953D01*
X71512D01*
X70921D02*
X70331Y107543D01*
X68560Y105772D02*
X69150Y106067D01*
X69741Y106658D01*
Y107248D01*
X69446Y107543D01*
X68855D01*
X68560Y107248D01*
Y106953D01*
X68855Y106658D01*
X69741D01*
X64819Y117444D02*
X64523Y117740D01*
X63933D01*
X63638Y117444D01*
Y116264D01*
X63933Y115969D01*
X64523D01*
X64819Y116264D01*
X65409Y115969D02*
X65999D01*
X65704D01*
Y117740D01*
X65409Y117444D01*
X66885Y115969D02*
X67475D01*
X67180D01*
Y117740D01*
X66885Y117444D01*
X75688Y122006D02*
X75984Y122301D01*
Y122892D01*
X75688Y123187D01*
X74508D01*
X74213Y122892D01*
Y122301D01*
X74508Y122006D01*
X74213Y121416D02*
Y120826D01*
Y121121D01*
X75984D01*
X75688Y121416D01*
X74213Y118759D02*
Y119940D01*
X75393Y118759D01*
X75688D01*
X75984Y119054D01*
Y119645D01*
X75688Y119940D01*
X56437Y73787D02*
Y72016D01*
X55551D01*
X55256Y72312D01*
Y72902D01*
X55551Y73197D01*
X56437D01*
X55847D02*
X55256Y73787D01*
X53485D02*
X54666D01*
X53485Y72607D01*
Y72312D01*
X53780Y72016D01*
X54371D01*
X54666Y72312D01*
X52895Y73492D02*
X52600Y73787D01*
X52009D01*
X51714Y73492D01*
Y72312D01*
X52009Y72016D01*
X52600D01*
X52895Y72312D01*
Y72607D01*
X52600Y72902D01*
X51714D01*
X50861Y85000D02*
Y83426D01*
X50468D01*
X48894Y85000D01*
X48500D01*
Y83426D01*
Y82639D02*
Y81851D01*
Y82245D01*
X50861D01*
X50468Y82639D01*
X224937Y177787D02*
Y176016D01*
X224051D01*
X223756Y176312D01*
Y176902D01*
X224051Y177197D01*
X224937D01*
X224347D02*
X223756Y177787D01*
X223166Y176312D02*
X222871Y176016D01*
X222280D01*
X221985Y176312D01*
Y176607D01*
X222280Y176902D01*
X222576D01*
X222280D01*
X221985Y177197D01*
Y177492D01*
X222280Y177787D01*
X222871D01*
X223166Y177492D01*
X221395Y177787D02*
X220805D01*
X221100D01*
Y176016D01*
X221395Y176312D01*
X224937Y172787D02*
Y171016D01*
X224051D01*
X223756Y171311D01*
Y171902D01*
X224051Y172197D01*
X224937D01*
X224347D02*
X223756Y172787D01*
X223166Y171311D02*
X222871Y171016D01*
X222280D01*
X221985Y171311D01*
Y171607D01*
X222280Y171902D01*
X222576D01*
X222280D01*
X221985Y172197D01*
Y172492D01*
X222280Y172787D01*
X222871D01*
X223166Y172492D01*
X221395Y171311D02*
X221100Y171016D01*
X220509D01*
X220214Y171311D01*
Y172492D01*
X220509Y172787D01*
X221100D01*
X221395Y172492D01*
Y171311D01*
X58437Y160287D02*
Y158516D01*
X57551D01*
X57256Y158811D01*
Y159402D01*
X57551Y159697D01*
X58437D01*
X57847D02*
X57256Y160287D01*
X56666Y158811D02*
X56371Y158516D01*
X55780D01*
X55485Y158811D01*
Y159107D01*
X55780Y159402D01*
X56076D01*
X55780D01*
X55485Y159697D01*
Y159992D01*
X55780Y160287D01*
X56371D01*
X56666Y159992D01*
X41688Y167756D02*
X41984Y168052D01*
Y168642D01*
X41688Y168937D01*
X40508D01*
X40213Y168642D01*
Y168052D01*
X40508Y167756D01*
X40213Y165985D02*
Y167166D01*
X41393Y165985D01*
X41688D01*
X41984Y166280D01*
Y166871D01*
X41688Y167166D01*
X40312Y149244D02*
X40016Y148949D01*
Y148358D01*
X40312Y148063D01*
X41492D01*
X41787Y148358D01*
Y148949D01*
X41492Y149244D01*
X40312Y149834D02*
X40016Y150129D01*
Y150720D01*
X40312Y151015D01*
X40607D01*
X40902Y150720D01*
Y150424D01*
Y150720D01*
X41197Y151015D01*
X41492D01*
X41787Y150720D01*
Y150129D01*
X41492Y149834D01*
X46689Y167756D02*
X46984Y168052D01*
Y168642D01*
X46689Y168937D01*
X45508D01*
X45213Y168642D01*
Y168052D01*
X45508Y167756D01*
X45213Y167166D02*
Y166576D01*
Y166871D01*
X46984D01*
X46689Y167166D01*
X63638Y110968D02*
Y112740D01*
X64523D01*
X64819Y112444D01*
Y111854D01*
X64523Y111559D01*
X63638D01*
X64228D02*
X64819Y110968D01*
X66590D02*
X65409D01*
X66590Y112149D01*
Y112444D01*
X66294Y112740D01*
X65704D01*
X65409Y112444D01*
X71512Y122543D02*
Y120772D01*
X70626D01*
X70331Y121067D01*
Y121658D01*
X70626Y121953D01*
X71512D01*
X70921D02*
X70331Y122543D01*
X68560Y120772D02*
X69741D01*
Y121658D01*
X69150Y121363D01*
X68855D01*
X68560Y121658D01*
Y122248D01*
X68855Y122543D01*
X69446D01*
X69741Y122248D01*
X54756Y110811D02*
X55051Y110516D01*
X55642D01*
X55937Y110811D01*
Y111992D01*
X55642Y112287D01*
X55051D01*
X54756Y111992D01*
X52985Y110516D02*
X54166D01*
Y111402D01*
X53576Y111107D01*
X53280D01*
X52985Y111402D01*
Y111992D01*
X53280Y112287D01*
X53871D01*
X54166Y111992D01*
X71437Y128287D02*
Y126516D01*
X70552D01*
X70256Y126812D01*
Y127402D01*
X70552Y127697D01*
X71437D01*
X70847D02*
X70256Y128287D01*
X68780D02*
Y126516D01*
X69666Y127402D01*
X68485D01*
X172063Y142713D02*
Y144484D01*
X172949D01*
X173244Y144188D01*
Y143598D01*
X172949Y143303D01*
X172063D01*
X172653D02*
X173244Y142713D01*
X175015D02*
X173834D01*
X175015Y143893D01*
Y144188D01*
X174720Y144484D01*
X174129D01*
X173834Y144188D01*
X175605D02*
X175900Y144484D01*
X176491D01*
X176786Y144188D01*
Y143893D01*
X176491Y143598D01*
X176786Y143303D01*
Y143008D01*
X176491Y142713D01*
X175900D01*
X175605Y143008D01*
Y143303D01*
X175900Y143598D01*
X175605Y143893D01*
Y144188D01*
X175900Y143598D02*
X176491D01*
X172063Y172713D02*
Y174484D01*
X172949D01*
X173244Y174188D01*
Y173598D01*
X172949Y173303D01*
X172063D01*
X172653D02*
X173244Y172713D01*
X175015D02*
X173834D01*
X175015Y173893D01*
Y174188D01*
X174720Y174484D01*
X174129D01*
X173834Y174188D01*
X175605Y174484D02*
X176786D01*
Y174188D01*
X175605Y173008D01*
Y172713D01*
D108*
X415480Y111672D02*
Y109212D01*
X415972Y108721D01*
X416956D01*
X417448Y109212D01*
Y111672D01*
X418432Y111180D02*
X418924Y111672D01*
X419908D01*
X420400Y111180D01*
Y110688D01*
X419908Y110196D01*
X419416D01*
X419908D01*
X420400Y109704D01*
Y109212D01*
X419908Y108721D01*
X418924D01*
X418432Y109212D01*
X57095Y121084D02*
Y123544D01*
X56603Y124035D01*
X55619D01*
X55127Y123544D01*
Y121084D01*
X52175Y124035D02*
X54143D01*
X52175Y122068D01*
Y121576D01*
X52667Y121084D01*
X53651D01*
X54143Y121576D01*
D109*
X28345Y86438D02*
Y78566D01*
X30313Y76598D01*
X34249D01*
X36217Y78566D01*
Y86438D01*
X34249Y88406D01*
X30313D01*
X32281Y84470D02*
X28345Y88406D01*
X30313D02*
X28345Y86438D01*
X24409Y88406D02*
X20474D01*
X22442D01*
Y76598D01*
X24409Y78566D01*
M02*
