%FSLAX25Y25*%
%MOIN*%
G70*
G01*
G75*
G04 Layer_Color=128*
%ADD10R,0.02992X0.03347*%
%ADD11R,0.04331X0.02362*%
%ADD12O,0.04331X0.02362*%
%ADD13R,0.08661X0.11024*%
%ADD14O,0.07480X0.02362*%
%ADD15R,0.07480X0.02362*%
%ADD16R,0.03347X0.02992*%
%ADD17O,0.03150X0.01102*%
%ADD18R,0.06496X0.09449*%
%ADD19R,0.00866X0.02756*%
%ADD20R,0.01378X0.01969*%
%ADD21R,0.02795X0.01811*%
%ADD22R,0.05709X0.08268*%
%ADD23R,0.10984X0.07539*%
%ADD24R,0.03500X0.05000*%
%ADD25R,0.20866X0.09843*%
%ADD26R,0.07874X0.12992*%
%ADD27R,0.07874X0.03543*%
%ADD28R,0.08268X0.05709*%
%ADD29R,0.04331X0.06890*%
%ADD30R,0.02500X0.04173*%
%ADD31R,0.24803X0.21654*%
%ADD32R,0.10827X0.03543*%
%ADD33R,0.16700X0.15000*%
%ADD34C,0.01000*%
%ADD35C,0.02500*%
%ADD36C,0.01000*%
%ADD37C,0.00800*%
%ADD38R,0.06000X0.06000*%
%ADD39C,0.06000*%
%ADD40C,0.15000*%
%ADD41C,0.07500*%
%ADD42C,0.05118*%
%ADD43R,0.05118X0.05118*%
%ADD44C,0.05906*%
%ADD45R,0.08000X0.08000*%
%ADD46C,0.08000*%
%ADD47R,0.06000X0.06000*%
%ADD48C,0.07000*%
%ADD49R,0.07000X0.07000*%
%ADD50C,0.12000*%
%ADD51C,0.23622*%
%ADD52C,0.27559*%
%ADD53C,0.02000*%
%ADD54C,0.02800*%
%ADD55C,0.05000*%
%ADD56C,0.00984*%
%ADD57C,0.00600*%
%ADD58C,0.00500*%
%ADD59C,0.01181*%
%ADD60C,0.03937*%
%ADD61C,0.00787*%
%ADD62C,0.00700*%
%ADD63C,0.00900*%
%ADD64R,0.06000X0.05000*%
%ADD65R,0.07700X0.06900*%
%ADD66R,0.05512X0.07874*%
%ADD67R,0.03347X0.06299*%
%ADD68R,0.03292X0.03647*%
%ADD69R,0.04631X0.02662*%
%ADD70O,0.04631X0.02662*%
%ADD71R,0.08961X0.11324*%
%ADD72O,0.07780X0.02662*%
%ADD73R,0.07780X0.02662*%
%ADD74R,0.03647X0.03292*%
%ADD75O,0.03450X0.01402*%
%ADD76R,0.06796X0.09749*%
%ADD77R,0.01678X0.02269*%
%ADD78R,0.03095X0.02111*%
%ADD79R,0.06009X0.08568*%
%ADD80R,0.11284X0.07839*%
%ADD81R,0.03800X0.05300*%
%ADD82R,0.21166X0.10143*%
%ADD83R,0.08174X0.13292*%
%ADD84R,0.08174X0.03843*%
%ADD85R,0.08568X0.06009*%
%ADD86R,0.04631X0.07190*%
%ADD87R,0.02800X0.04473*%
%ADD88R,0.25103X0.21954*%
%ADD89R,0.11127X0.03843*%
%ADD90R,0.17000X0.15300*%
%ADD91R,0.06300X0.06300*%
%ADD92C,0.06300*%
%ADD93C,0.15800*%
%ADD94C,0.07800*%
%ADD95C,0.05418*%
%ADD96R,0.05418X0.05418*%
%ADD97C,0.06206*%
%ADD98R,0.08300X0.08300*%
%ADD99C,0.08300*%
%ADD100R,0.06300X0.06300*%
%ADD101C,0.07300*%
%ADD102R,0.07300X0.07300*%
%ADD103C,0.12300*%
%ADD104C,0.23922*%
%ADD105C,0.27859*%
%ADD106C,0.03600*%
G36*
X400058Y151606D02*
X399989Y150737D01*
X399555Y148930D01*
X398844Y147212D01*
X397872Y145627D01*
X396665Y144213D01*
X395251Y143006D01*
X393666Y142034D01*
X391949Y141323D01*
X390141Y140889D01*
X389272Y140821D01*
X389272Y140821D01*
X389272Y145369D01*
X389715Y145413D01*
X391088Y145829D01*
X392354Y146505D01*
X393462Y147415D01*
X394373Y148524D01*
X395049Y149790D01*
X395465Y151163D01*
X395509Y151606D01*
X395504Y151606D01*
X400058Y151606D01*
D02*
G37*
G36*
X285728Y164360D02*
X285728Y159812D01*
X285285Y159769D01*
X283912Y159352D01*
X282646Y158676D01*
X281538Y157766D01*
X280627Y156657D01*
X279951Y155391D01*
X279535Y154018D01*
X279491Y153576D01*
X279496Y153575D01*
X274942Y153575D01*
X275011Y154444D01*
X275445Y156252D01*
X276156Y157969D01*
X277128Y159554D01*
X278335Y160968D01*
X279749Y162175D01*
X281334Y163147D01*
X283051Y163858D01*
X284859Y164292D01*
X285728Y164361D01*
X285728Y164360D01*
D02*
G37*
G36*
X288566Y164292D02*
X290374Y163858D01*
X292091Y163147D01*
X293676Y162175D01*
X295090Y160968D01*
X296298Y159554D01*
X297269Y157969D01*
X297980Y156252D01*
X298414Y154444D01*
X298483Y153575D01*
X293929Y153575D01*
X293934Y153576D01*
X293891Y154018D01*
X293474Y155391D01*
X292798Y156657D01*
X291888Y157766D01*
X290779Y158676D01*
X289513Y159352D01*
X288140Y159769D01*
X287698Y159812D01*
X287697Y164360D01*
X287697Y164361D01*
X288566Y164292D01*
D02*
G37*
G36*
X279491Y151606D02*
X279535Y151163D01*
X279951Y149790D01*
X280627Y148524D01*
X281538Y147415D01*
X282646Y146505D01*
X283912Y145829D01*
X285285Y145413D01*
X285728Y145369D01*
X285728Y140821D01*
X285728Y140821D01*
X284859Y140889D01*
X283051Y141323D01*
X281334Y142034D01*
X279749Y143006D01*
X278335Y144213D01*
X277128Y145627D01*
X276156Y147212D01*
X275445Y148930D01*
X275011Y150737D01*
X274942Y151606D01*
X279496Y151606D01*
X279491Y151606D01*
D02*
G37*
G36*
X298483Y151606D02*
X298414Y150737D01*
X297980Y148930D01*
X297269Y147212D01*
X296298Y145627D01*
X295090Y144213D01*
X293676Y143006D01*
X292091Y142034D01*
X290374Y141323D01*
X288566Y140889D01*
X287697Y140821D01*
X287697Y140821D01*
X287698Y145369D01*
X288140Y145413D01*
X289513Y145829D01*
X290779Y146505D01*
X291888Y147415D01*
X292798Y148524D01*
X293474Y149790D01*
X293891Y151163D01*
X293934Y151606D01*
X293929Y151606D01*
X298483Y151606D01*
D02*
G37*
G36*
X381066Y151606D02*
X381109Y151163D01*
X381526Y149790D01*
X382202Y148524D01*
X383112Y147415D01*
X384221Y146505D01*
X385487Y145829D01*
X386860Y145413D01*
X387302Y145369D01*
X387303Y140821D01*
X387303Y140821D01*
X386434Y140889D01*
X384626Y141323D01*
X382909Y142034D01*
X381324Y143006D01*
X379910Y144213D01*
X378702Y145627D01*
X377731Y147212D01*
X377020Y148930D01*
X376586Y150737D01*
X376517Y151606D01*
X381071Y151606D01*
X381066Y151606D01*
D02*
G37*
G36*
X349270Y300622D02*
X349202Y299753D01*
X348768Y297945D01*
X348056Y296228D01*
X347085Y294642D01*
X345878Y293229D01*
X344464Y292021D01*
X342879Y291050D01*
X341161Y290339D01*
X339353Y289905D01*
X338484Y289836D01*
X338484Y289836D01*
X338485Y294385D01*
X338928Y294428D01*
X340301Y294845D01*
X341566Y295521D01*
X342675Y296431D01*
X343585Y297540D01*
X344262Y298805D01*
X344678Y300179D01*
X344722Y300621D01*
X344717Y300622D01*
X349270Y300622D01*
D02*
G37*
G36*
X336516Y313376D02*
X336515Y308828D01*
X336072Y308784D01*
X334699Y308368D01*
X333434Y307692D01*
X332325Y306781D01*
X331415Y305672D01*
X330738Y304407D01*
X330322Y303034D01*
X330278Y302591D01*
X330283Y302590D01*
X325730Y302591D01*
X325798Y303460D01*
X326232Y305267D01*
X326944Y306985D01*
X327915Y308570D01*
X329122Y309984D01*
X330536Y311191D01*
X332121Y312162D01*
X333839Y312874D01*
X335647Y313308D01*
X336516Y313376D01*
X336516Y313376D01*
D02*
G37*
G36*
X339353Y313308D02*
X341161Y312874D01*
X342879Y312162D01*
X344464Y311191D01*
X345878Y309984D01*
X347085Y308570D01*
X348056Y306985D01*
X348768Y305267D01*
X349202Y303460D01*
X349270Y302591D01*
X344717Y302590D01*
X344722Y302591D01*
X344678Y303034D01*
X344262Y304407D01*
X343585Y305672D01*
X342675Y306781D01*
X341566Y307692D01*
X340301Y308368D01*
X338928Y308784D01*
X338485Y308828D01*
X338484Y313376D01*
X338484Y313376D01*
X339353Y313308D01*
D02*
G37*
G36*
X387303Y164360D02*
X387302Y159812D01*
X386860Y159769D01*
X385487Y159352D01*
X384221Y158676D01*
X383112Y157766D01*
X382202Y156657D01*
X381526Y155391D01*
X381109Y154018D01*
X381066Y153576D01*
X381071Y153575D01*
X376517Y153575D01*
X376586Y154444D01*
X377020Y156252D01*
X377731Y157969D01*
X378702Y159554D01*
X379910Y160968D01*
X381324Y162175D01*
X382909Y163147D01*
X384626Y163858D01*
X386434Y164292D01*
X387303Y164361D01*
X387303Y164360D01*
D02*
G37*
G36*
X390141Y164292D02*
X391949Y163858D01*
X393666Y163147D01*
X395251Y162175D01*
X396665Y160968D01*
X397872Y159554D01*
X398844Y157969D01*
X399555Y156252D01*
X399989Y154444D01*
X400058Y153575D01*
X395504Y153575D01*
X395509Y153576D01*
X395465Y154018D01*
X395049Y155391D01*
X394373Y156657D01*
X393462Y157766D01*
X392354Y158676D01*
X391088Y159352D01*
X389715Y159769D01*
X389272Y159812D01*
X389272Y164360D01*
X389272Y164361D01*
X390141Y164292D01*
D02*
G37*
G36*
X330278Y300621D02*
X330322Y300179D01*
X330738Y298805D01*
X331415Y297540D01*
X332325Y296431D01*
X333434Y295521D01*
X334699Y294845D01*
X336072Y294428D01*
X336515Y294385D01*
X336516Y289836D01*
X336516Y289836D01*
X335647Y289905D01*
X333839Y290339D01*
X332121Y291050D01*
X330536Y292021D01*
X329122Y293229D01*
X327915Y294642D01*
X326944Y296228D01*
X326232Y297945D01*
X325798Y299753D01*
X325730Y300622D01*
X330283Y300622D01*
X330278Y300621D01*
D02*
G37*
M02*
