M48
;Layer_Color=9474304
;FILE_FORMAT=2:5
INCH,LZ
;TYPE=PLATED
T1F00S00C0.01000
T2F00S00C0.01500
T3F00S00C0.02953
T4F00S00C0.03100
T5F00S00C0.04000
T6F00S00C0.04016
T7F00S00C0.04331
T8F00S00C0.09000
T9F00S00C0.09500
T10F00S00C0.13386
T11F00S00C0.14567
%
T01
X0075Y0025
X01
X0125
X02
X020725Y0051
Y0056
X01875Y005
X024775Y00515
X02625Y005
X02875
X03125
X0325Y0025
X035
X03
X0275
X025
X0225
X04
X04375Y005
X0425Y0075
X04225Y00785
Y0086
X0422075Y0107744
X0418925
Y0112256
X0422075
X043Y011
X0425Y0125
X04105Y0109
Y0107
X03875Y01
X0375Y0075
Y0175
X04
X0425
X04375Y02
X04125
X03875
X04375Y015
X03625
X03375
X03125
X0325Y0175
X035
X03625Y02
X03375
X03125
X02875
X03Y0175
X0275
X02415Y01665
X02295
Y0148
X02415
X025Y0125
X02475Y01225
Y01
X0245Y00775
X0225Y0075
X02145Y009725
Y01335
X0225Y0125
X02295Y0186
X02415
X02375Y02
X02125
X03Y0125
X0325
X035
X03375Y01
X035Y0075
X0304Y00685
X024775Y00565
X01985Y00925
X0197Y0116
X0189125Y0131125
X01795Y0125
Y01225
X01825Y01435
X0197Y0142
X01825Y01735
X01875Y02
X01375
X0125Y0175
X00875Y02
X00625
X00615Y0124
X0058Y01115
X0075Y010675
Y01275
X01065Y01195
X0109Y0122
X01375Y01
Y00805
Y00755
Y00705
X0175Y0075
X01625Y01
X01Y0075
X0075
X005365Y01205
X00505
Y0125012
X005365
X0043Y0121
Y01185
X0041Y01585
X0046
X00035Y01575
Y0155
Y016
Y01625
X00375Y02
X005Y0225
X0025
X00375Y025
X005Y0275
X0025
X00375Y03
X005Y0325
X00625Y03
X00875
X01125
X01375
X01625
X01875
X0189Y0316
Y0322799
X0194Y0336
X0162Y0335
X01585Y03265
X01Y0325
X0075Y0275
X00875Y025
X01125
X01375
X01875
X02Y0275
X0175
Y0225
X02
X01
X0075
X00625Y025
X02125
X02375
X025Y0275
X0275
X03
X0325
X035
X03625Y03
X035Y0325
X0325
X03
X0275
X02875Y03
X03125
Y025
X03375
X03625
X035Y0225
X0325
X03
X0275
X025
X0225
Y0275
X02375Y03
X02625
X02125
X02875Y025
X03875
X04125
X04375
X0425Y0275
X04
X0375
X03875Y03
X04125
X04375
X04Y0325
X0375
Y0225
X04
X0425
T02
X00155Y0012206
X002Y0011
X00245Y0012206
X0027794Y00155
X0029Y002
X0027794Y00245
X00245Y0027794
X002Y0029
X00155Y0027794
X0012206Y00245
X0011Y002
X0012206Y00155
X0412206
X0411Y002
X0412206Y00245
X04155Y0027794
X042Y0029
X04245Y0027794
X0427794Y00245
X0429Y002
X0427794Y00155
X04245Y0012206
X042Y0011
X04155Y0012206
X0154862Y0075638
Y0080362
X0150138
Y0075638
X0027794Y03155
X0029Y032
X0027794Y03245
X00245Y0327794
X002Y0329
X00155Y0327794
X0012206Y03245
X0011Y032
X0012206Y03155
X00155Y0312206
X002Y0311
X00245Y0312206
X04155
X042Y0311
X04245Y0312206
X0427794Y03155
X0429Y032
X0427794Y03245
X04245Y0327794
X042Y0329
X04155Y0327794
X0412206Y03245
X0411Y032
X0412206Y03155
T03
X0117Y00325
X0124874
X0132748
X0140622
X0165
X0172874
X01975
X0205374
X0213248
X0238
X0245874
X0253748
X0261622
X03405Y0033
X0348374
X0356248
X0364122
X0371996
T04
X00855Y0053158
X040911Y00575
X042289
X042739Y0164
X041361
X00945Y015861
Y017239
Y012939
Y011561
X01205Y010039
Y008661
X00855Y0072843
T05
X0284Y00435
X0294
X0304
X0314
X03725Y0086
Y0096
X03625
Y0086
X03525
Y0096
X03425
Y0086
X03325
Y0096
X03225
Y0086
X03125
Y0096
X03025
Y0086
X02775Y0085
Y01
Y0115
Y013
X026Y01335
Y01435
Y01535
Y01635
Y01735
Y01835
Y01935
Y02035
Y01
Y0085
Y00675
X02775
X01795Y00855
X016Y01335
Y01435
Y01535
Y01635
Y01735
Y01835
Y01935
Y02035
X0129Y0205
Y0215
Y0225
Y0235
Y0245
Y0255
Y0265
Y0275
Y0285
X013Y0325
X011
X009
X007
X016Y02735
Y02635
Y02535
Y02435
Y02335
Y02235
Y02135
X026
Y02235
Y02335
Y02435
Y02535
Y02635
Y02735
Y0325
X023
T06
X0060594Y00355
X0072405
T07
X0111094Y0023732
X0146528
X0159095
X0178779
X0191595
X0219153
X0232095
X0267528
X0334594Y0024232
X0377902
T08
X0013Y0205
Y0285
T09
X005213Y0018492
X008087
T10
X002Y002
X042
X002Y032
X042
T11
X0388287Y0152591
X0286713
X03375Y0301606
M30
