%FSLAX25Y25*%
%MOIN*%
G70*
G01*
G75*
G04 Layer_Color=8388736*
%ADD10R,0.02992X0.03347*%
%ADD11R,0.04331X0.02362*%
%ADD12O,0.04331X0.02362*%
%ADD13R,0.08661X0.11024*%
%ADD14O,0.07480X0.02362*%
%ADD15R,0.07480X0.02362*%
%ADD16R,0.03347X0.02992*%
%ADD17O,0.03150X0.01102*%
%ADD18R,0.06496X0.09449*%
%ADD19R,0.00866X0.02756*%
%ADD20R,0.01378X0.01969*%
%ADD21R,0.02795X0.01811*%
%ADD22R,0.05709X0.08268*%
%ADD23R,0.10984X0.07539*%
%ADD24R,0.03500X0.05000*%
%ADD25R,0.20866X0.09843*%
%ADD26R,0.07874X0.12992*%
%ADD27R,0.07874X0.03543*%
%ADD28R,0.08268X0.05709*%
%ADD29R,0.04331X0.06890*%
%ADD30R,0.02500X0.04173*%
%ADD31R,0.24803X0.21654*%
%ADD32R,0.10827X0.03543*%
%ADD33R,0.16700X0.15000*%
%ADD34C,0.01000*%
%ADD35C,0.02500*%
%ADD36C,0.01000*%
%ADD37C,0.00800*%
%ADD38R,0.06000X0.06000*%
%ADD39C,0.06000*%
%ADD40C,0.15000*%
%ADD41C,0.07500*%
%ADD42C,0.05118*%
%ADD43R,0.05118X0.05118*%
%ADD44C,0.05906*%
%ADD45R,0.08000X0.08000*%
%ADD46C,0.08000*%
%ADD47R,0.06000X0.06000*%
%ADD48C,0.07000*%
%ADD49R,0.07000X0.07000*%
%ADD50C,0.12000*%
%ADD51C,0.23622*%
%ADD52C,0.27559*%
%ADD53C,0.02000*%
%ADD54C,0.02800*%
%ADD55C,0.05000*%
%ADD56C,0.00984*%
%ADD57C,0.00600*%
%ADD58C,0.00500*%
%ADD59C,0.01181*%
%ADD60C,0.03937*%
%ADD61C,0.00787*%
%ADD62C,0.00700*%
%ADD63C,0.00900*%
%ADD64R,0.06000X0.05000*%
%ADD65R,0.07700X0.06900*%
%ADD66R,0.05512X0.07874*%
%ADD67R,0.03347X0.06299*%
%ADD68R,0.03292X0.03647*%
%ADD69R,0.04631X0.02662*%
%ADD70O,0.04631X0.02662*%
%ADD71R,0.08961X0.11324*%
%ADD72O,0.07780X0.02662*%
%ADD73R,0.07780X0.02662*%
%ADD74R,0.03647X0.03292*%
%ADD75O,0.03450X0.01402*%
%ADD76R,0.06796X0.09749*%
%ADD77R,0.01678X0.02269*%
%ADD78R,0.03095X0.02111*%
%ADD79R,0.06009X0.08568*%
%ADD80R,0.11284X0.07839*%
%ADD81R,0.03800X0.05300*%
%ADD82R,0.21166X0.10143*%
%ADD83R,0.08174X0.13292*%
%ADD84R,0.08174X0.03843*%
%ADD85R,0.08568X0.06009*%
%ADD86R,0.04631X0.07190*%
%ADD87R,0.02800X0.04473*%
%ADD88R,0.25103X0.21954*%
%ADD89R,0.11127X0.03843*%
%ADD90R,0.17000X0.15300*%
%ADD91R,0.06300X0.06300*%
%ADD92C,0.06300*%
%ADD93C,0.15800*%
%ADD94C,0.07800*%
%ADD95C,0.05418*%
%ADD96R,0.05418X0.05418*%
%ADD97C,0.06206*%
%ADD98R,0.08300X0.08300*%
%ADD99C,0.08300*%
%ADD100R,0.06300X0.06300*%
%ADD101C,0.07300*%
%ADD102R,0.07300X0.07300*%
%ADD103C,0.12300*%
%ADD104C,0.23922*%
%ADD105C,0.27859*%
D19*
X419713Y104095D02*
D03*
X421287D02*
D03*
X419713Y115905D02*
D03*
X421287D02*
D03*
X52862Y128661D02*
D03*
X51287D02*
D03*
X52862Y116850D02*
D03*
X51287D02*
D03*
D54*
X422075Y112256D02*
D03*
X418925D02*
D03*
Y107744D02*
D03*
X422075D02*
D03*
X50500Y120500D02*
D03*
X53650D02*
D03*
Y125012D02*
D03*
X50500D02*
D03*
D68*
X232750Y148000D02*
D03*
X238250D02*
D03*
X244750Y61500D02*
D03*
X239250D02*
D03*
X319750Y77500D02*
D03*
X325250D02*
D03*
X319750Y72000D02*
D03*
X325250D02*
D03*
X423250Y143500D02*
D03*
X417750D02*
D03*
X423250Y138500D02*
D03*
X417750D02*
D03*
X423250Y133500D02*
D03*
X417750D02*
D03*
X423250Y128500D02*
D03*
X417750D02*
D03*
X203250Y336000D02*
D03*
X197750D02*
D03*
X207750Y317500D02*
D03*
X202250D02*
D03*
X204250Y56000D02*
D03*
X198750D02*
D03*
X204250Y51000D02*
D03*
X198750D02*
D03*
X133250Y70500D02*
D03*
X127750D02*
D03*
X232750Y186000D02*
D03*
X238250D02*
D03*
X232750Y166500D02*
D03*
X238250D02*
D03*
X244750Y56500D02*
D03*
X239250D02*
D03*
X244750Y51500D02*
D03*
X239250D02*
D03*
X223250Y157500D02*
D03*
X217750D02*
D03*
X223250Y162500D02*
D03*
X217750D02*
D03*
X223250Y152500D02*
D03*
X217750D02*
D03*
X223250Y138500D02*
D03*
X217750D02*
D03*
X223250Y143500D02*
D03*
X217750D02*
D03*
X223250Y133500D02*
D03*
X217750D02*
D03*
X148750Y223500D02*
D03*
X143250D02*
D03*
X148750Y213500D02*
D03*
X143250D02*
D03*
X72756Y168000D02*
D03*
X67244D02*
D03*
X57250D02*
D03*
X51750D02*
D03*
X223750Y182000D02*
D03*
X218250D02*
D03*
X70325Y106756D02*
D03*
X64825D02*
D03*
X70325Y116756D02*
D03*
X64825D02*
D03*
X55250Y73000D02*
D03*
X49750D02*
D03*
X223750Y177000D02*
D03*
X218250D02*
D03*
X223750Y172000D02*
D03*
X218250D02*
D03*
X57250Y159500D02*
D03*
X51750D02*
D03*
X72756D02*
D03*
X67244D02*
D03*
X64825Y111756D02*
D03*
X70325D02*
D03*
Y121756D02*
D03*
X64825D02*
D03*
X49250Y111500D02*
D03*
X54750D02*
D03*
X70250Y127500D02*
D03*
X64750D02*
D03*
X173250Y143500D02*
D03*
X178750D02*
D03*
X173250Y173500D02*
D03*
X178750D02*
D03*
D69*
X230776Y142240D02*
D03*
Y180740D02*
D03*
Y161240D02*
D03*
D70*
Y138500D02*
D03*
Y134760D02*
D03*
X240224D02*
D03*
Y142240D02*
D03*
X230776Y177000D02*
D03*
Y173260D02*
D03*
X240224D02*
D03*
Y180740D02*
D03*
X230776Y157500D02*
D03*
Y153760D02*
D03*
X240224D02*
D03*
Y161240D02*
D03*
D71*
X152500Y78000D02*
D03*
D72*
X143248Y85500D02*
D03*
Y80500D02*
D03*
Y75500D02*
D03*
Y70500D02*
D03*
X161752Y85500D02*
D03*
Y80500D02*
D03*
Y75500D02*
D03*
D73*
Y70500D02*
D03*
D74*
X198500Y70750D02*
D03*
Y65250D02*
D03*
X389000Y24244D02*
D03*
Y29756D02*
D03*
X54500Y134750D02*
D03*
Y140250D02*
D03*
X167000Y326250D02*
D03*
Y331750D02*
D03*
X162000D02*
D03*
Y326250D02*
D03*
X49500Y134750D02*
D03*
Y140250D02*
D03*
X419500Y92750D02*
D03*
Y98250D02*
D03*
X414500Y92750D02*
D03*
Y98250D02*
D03*
X389000Y35750D02*
D03*
Y41250D02*
D03*
X424500Y98250D02*
D03*
Y92750D02*
D03*
X429500D02*
D03*
Y98250D02*
D03*
X435500D02*
D03*
Y92750D02*
D03*
X304000Y64750D02*
D03*
Y59250D02*
D03*
X294000Y64750D02*
D03*
Y59250D02*
D03*
X185000Y65244D02*
D03*
Y70756D02*
D03*
X179500Y65250D02*
D03*
Y70750D02*
D03*
X174000Y65250D02*
D03*
Y70750D02*
D03*
X120500Y124750D02*
D03*
Y119250D02*
D03*
X4000Y134250D02*
D03*
Y128750D02*
D03*
X245000Y68250D02*
D03*
Y73750D02*
D03*
X239000Y68250D02*
D03*
Y73750D02*
D03*
X145000Y316756D02*
D03*
Y311244D02*
D03*
X139500Y311250D02*
D03*
Y316750D02*
D03*
X75000Y116500D02*
D03*
Y122000D02*
D03*
X41000Y162250D02*
D03*
Y167750D02*
D03*
Y154750D02*
D03*
Y149250D02*
D03*
X46000Y162250D02*
D03*
Y167750D02*
D03*
D75*
X426405Y106063D02*
D03*
Y108031D02*
D03*
Y110000D02*
D03*
Y111969D02*
D03*
Y113937D02*
D03*
X414595D02*
D03*
Y111969D02*
D03*
Y110000D02*
D03*
Y108031D02*
D03*
Y106063D02*
D03*
X46169Y126693D02*
D03*
Y124724D02*
D03*
Y122756D02*
D03*
Y120787D02*
D03*
Y118819D02*
D03*
X57980D02*
D03*
Y120787D02*
D03*
Y122756D02*
D03*
Y124724D02*
D03*
Y126693D02*
D03*
D76*
X420500Y110000D02*
D03*
X52075Y122756D02*
D03*
D77*
X204339Y330339D02*
D03*
X201780D02*
D03*
X199221D02*
D03*
X196662D02*
D03*
X196661Y322661D02*
D03*
X199221D02*
D03*
X201780D02*
D03*
X204339D02*
D03*
D78*
X184406Y322799D02*
D03*
Y326500D02*
D03*
Y330201D02*
D03*
X172594D02*
D03*
Y326500D02*
D03*
Y322799D02*
D03*
D79*
X401000Y98783D02*
D03*
Y84216D02*
D03*
X60500Y79716D02*
D03*
Y94283D02*
D03*
D80*
X401000Y125661D02*
D03*
Y108339D02*
D03*
D81*
X419250Y86000D02*
D03*
X411750D02*
D03*
X419250Y78500D02*
D03*
X411750D02*
D03*
D82*
X25000Y108925D02*
D03*
Y137075D02*
D03*
D83*
X8689Y158500D02*
D03*
D84*
X32311Y167555D02*
D03*
Y158500D02*
D03*
Y149445D02*
D03*
D85*
X149784Y57000D02*
D03*
X135216D02*
D03*
D86*
X87185Y97500D02*
D03*
X97815D02*
D03*
X87185Y88500D02*
D03*
X97815D02*
D03*
D87*
X49500Y78287D02*
D03*
Y86713D02*
D03*
D88*
X16035Y82500D02*
D03*
D89*
X40248Y91516D02*
D03*
Y73484D02*
D03*
D90*
X19450Y54500D02*
D03*
X44550D02*
D03*
D91*
X94500Y172390D02*
D03*
X372500Y86000D02*
D03*
X94500Y129390D02*
D03*
X314000Y43500D02*
D03*
X120500Y100390D02*
D03*
D92*
X94500Y158610D02*
D03*
X372500Y96000D02*
D03*
X362500Y86000D02*
D03*
Y96000D02*
D03*
X352500D02*
D03*
Y86000D02*
D03*
X342500Y96000D02*
D03*
Y86000D02*
D03*
X332500Y96000D02*
D03*
Y86000D02*
D03*
X322500D02*
D03*
Y96000D02*
D03*
X312500Y86000D02*
D03*
Y96000D02*
D03*
X302500Y86000D02*
D03*
Y96000D02*
D03*
X94500Y115610D02*
D03*
X304000Y43500D02*
D03*
X294000D02*
D03*
X284000D02*
D03*
X427390Y164000D02*
D03*
X422890Y57500D02*
D03*
X120500Y86610D02*
D03*
X129000Y205000D02*
D03*
Y215000D02*
D03*
Y225000D02*
D03*
Y235000D02*
D03*
Y245000D02*
D03*
Y255000D02*
D03*
Y265000D02*
D03*
Y275000D02*
D03*
X160000Y133500D02*
D03*
Y143500D02*
D03*
Y153500D02*
D03*
Y163500D02*
D03*
Y173500D02*
D03*
Y183500D02*
D03*
Y193500D02*
D03*
Y203500D02*
D03*
Y213500D02*
D03*
Y223500D02*
D03*
Y233500D02*
D03*
Y243500D02*
D03*
Y253500D02*
D03*
Y263500D02*
D03*
X260000Y273500D02*
D03*
Y263500D02*
D03*
Y253500D02*
D03*
Y243500D02*
D03*
Y233500D02*
D03*
Y223500D02*
D03*
Y213500D02*
D03*
Y203500D02*
D03*
Y193500D02*
D03*
Y183500D02*
D03*
Y173500D02*
D03*
Y163500D02*
D03*
Y153500D02*
D03*
Y143500D02*
D03*
D93*
X13000Y285000D02*
D03*
Y205000D02*
D03*
D94*
X260000Y325000D02*
D03*
X230000D02*
D03*
X277500Y130000D02*
D03*
Y115000D02*
D03*
Y100000D02*
D03*
X260000D02*
D03*
Y85000D02*
D03*
X277500Y67500D02*
D03*
X70000Y325000D02*
D03*
X179500Y85500D02*
D03*
X130000Y325000D02*
D03*
X90000D02*
D03*
X260000Y67500D02*
D03*
X277500Y85000D02*
D03*
X110000Y325000D02*
D03*
D95*
X140622Y32500D02*
D03*
X124874D02*
D03*
X132748D02*
D03*
X261622D02*
D03*
X245874D02*
D03*
X253748D02*
D03*
X364122Y33000D02*
D03*
X348374D02*
D03*
X356248D02*
D03*
X371996D02*
D03*
X172874Y32500D02*
D03*
X213248D02*
D03*
X205374D02*
D03*
D96*
X117000D02*
D03*
X238000D02*
D03*
X340500Y33000D02*
D03*
X165000Y32500D02*
D03*
X197500D02*
D03*
D97*
X111094Y23732D02*
D03*
X146528D02*
D03*
X232095D02*
D03*
X267528D02*
D03*
X334594Y24232D02*
D03*
X377902D02*
D03*
X178779Y23732D02*
D03*
X159095D02*
D03*
X219153D02*
D03*
X191595D02*
D03*
D98*
X85500Y72843D02*
D03*
D99*
Y53158D02*
D03*
D100*
X413610Y164000D02*
D03*
X409110Y57500D02*
D03*
X129000Y285000D02*
D03*
X160000Y273500D02*
D03*
X260000Y133500D02*
D03*
D101*
X60594Y35500D02*
D03*
D102*
X72405D02*
D03*
D103*
X52130Y18492D02*
D03*
X80870D02*
D03*
D104*
X286713Y152591D02*
D03*
X388287D02*
D03*
X337500Y301606D02*
D03*
D105*
X20000Y20000D02*
D03*
X420000D02*
D03*
X20000Y320000D02*
D03*
X420000D02*
D03*
M02*
