%FSLAX25Y25*%
%MOIN*%
G70*
G01*
G75*
G04 Layer_Color=8421504*
%ADD10R,0.02992X0.03347*%
%ADD11R,0.04331X0.02362*%
%ADD12O,0.04331X0.02362*%
%ADD13R,0.08661X0.11024*%
%ADD14O,0.07480X0.02362*%
%ADD15R,0.07480X0.02362*%
%ADD16R,0.03347X0.02992*%
%ADD17O,0.03150X0.01102*%
%ADD18R,0.06496X0.09449*%
%ADD19R,0.00866X0.02756*%
%ADD20R,0.01378X0.01969*%
%ADD21R,0.02795X0.01811*%
%ADD22R,0.05709X0.08268*%
%ADD23R,0.10984X0.07539*%
%ADD24R,0.03500X0.05000*%
%ADD25R,0.20866X0.09843*%
%ADD26R,0.07874X0.12992*%
%ADD27R,0.07874X0.03543*%
%ADD28R,0.08268X0.05709*%
%ADD29R,0.04331X0.06890*%
%ADD30R,0.02500X0.04173*%
%ADD31R,0.24803X0.21654*%
%ADD32R,0.10827X0.03543*%
%ADD33R,0.16700X0.15000*%
%ADD34C,0.01000*%
%ADD35C,0.02500*%
%ADD36C,0.01000*%
%ADD37C,0.00800*%
%ADD38R,0.06000X0.06000*%
%ADD39C,0.06000*%
%ADD40C,0.15000*%
%ADD41C,0.07500*%
%ADD42C,0.05118*%
%ADD43R,0.05118X0.05118*%
%ADD44C,0.05906*%
%ADD45R,0.08000X0.08000*%
%ADD46C,0.08000*%
%ADD47R,0.06000X0.06000*%
%ADD48C,0.07000*%
%ADD49R,0.07000X0.07000*%
%ADD50C,0.12000*%
%ADD51C,0.23622*%
%ADD52C,0.27559*%
%ADD53C,0.02000*%
%ADD54C,0.02800*%
%ADD55C,0.05000*%
%ADD56C,0.00984*%
%ADD57C,0.00600*%
%ADD58C,0.00500*%
%ADD59C,0.01181*%
%ADD60C,0.03937*%
%ADD61C,0.00787*%
%ADD62C,0.00700*%
%ADD63C,0.00900*%
%ADD64R,0.06000X0.05000*%
%ADD65R,0.07700X0.06900*%
%ADD66R,0.05512X0.07874*%
%ADD67R,0.03347X0.06299*%
D10*
X232750Y148000D02*
D03*
X238250D02*
D03*
X244750Y61500D02*
D03*
X239250D02*
D03*
X319750Y77500D02*
D03*
X325250D02*
D03*
X319750Y72000D02*
D03*
X325250D02*
D03*
X423250Y143500D02*
D03*
X417750D02*
D03*
X423250Y138500D02*
D03*
X417750D02*
D03*
X423250Y133500D02*
D03*
X417750D02*
D03*
X423250Y128500D02*
D03*
X417750D02*
D03*
X203250Y336000D02*
D03*
X197750D02*
D03*
X207750Y317500D02*
D03*
X202250D02*
D03*
X204250Y56000D02*
D03*
X198750D02*
D03*
X204250Y51000D02*
D03*
X198750D02*
D03*
X133250Y70500D02*
D03*
X127750D02*
D03*
X232750Y186000D02*
D03*
X238250D02*
D03*
X232750Y166500D02*
D03*
X238250D02*
D03*
X244750Y56500D02*
D03*
X239250D02*
D03*
X244750Y51500D02*
D03*
X239250D02*
D03*
X223250Y157500D02*
D03*
X217750D02*
D03*
X223250Y162500D02*
D03*
X217750D02*
D03*
X223250Y152500D02*
D03*
X217750D02*
D03*
X223250Y138500D02*
D03*
X217750D02*
D03*
X223250Y143500D02*
D03*
X217750D02*
D03*
X223250Y133500D02*
D03*
X217750D02*
D03*
X148750Y223500D02*
D03*
X143250D02*
D03*
X148750Y213500D02*
D03*
X143250D02*
D03*
X72756Y168000D02*
D03*
X67244D02*
D03*
X57250D02*
D03*
X51750D02*
D03*
X223750Y182000D02*
D03*
X218250D02*
D03*
X70325Y106756D02*
D03*
X64825D02*
D03*
X70325Y116756D02*
D03*
X64825D02*
D03*
X55250Y73000D02*
D03*
X49750D02*
D03*
X223750Y177000D02*
D03*
X218250D02*
D03*
X223750Y172000D02*
D03*
X218250D02*
D03*
X57250Y159500D02*
D03*
X51750D02*
D03*
X72756D02*
D03*
X67244D02*
D03*
X64825Y111756D02*
D03*
X70325D02*
D03*
Y121756D02*
D03*
X64825D02*
D03*
X49250Y111500D02*
D03*
X54750D02*
D03*
X70250Y127500D02*
D03*
X64750D02*
D03*
X173250Y143500D02*
D03*
X178750D02*
D03*
X173250Y173500D02*
D03*
X178750D02*
D03*
D11*
X230776Y142240D02*
D03*
Y180740D02*
D03*
Y161240D02*
D03*
D12*
Y138500D02*
D03*
Y134760D02*
D03*
X240224D02*
D03*
Y142240D02*
D03*
X230776Y177000D02*
D03*
Y173260D02*
D03*
X240224D02*
D03*
Y180740D02*
D03*
X230776Y157500D02*
D03*
Y153760D02*
D03*
X240224D02*
D03*
Y161240D02*
D03*
D14*
X143248Y85500D02*
D03*
Y80500D02*
D03*
Y75500D02*
D03*
Y70500D02*
D03*
X161752Y85500D02*
D03*
Y80500D02*
D03*
Y75500D02*
D03*
D15*
Y70500D02*
D03*
D16*
X198500Y70750D02*
D03*
Y65250D02*
D03*
X389000Y24244D02*
D03*
Y29756D02*
D03*
X54500Y134750D02*
D03*
Y140250D02*
D03*
X167000Y326250D02*
D03*
Y331750D02*
D03*
X162000D02*
D03*
Y326250D02*
D03*
X49500Y134750D02*
D03*
Y140250D02*
D03*
X419500Y92750D02*
D03*
Y98250D02*
D03*
X414500Y92750D02*
D03*
Y98250D02*
D03*
X389000Y35750D02*
D03*
Y41250D02*
D03*
X424500Y98250D02*
D03*
Y92750D02*
D03*
X429500D02*
D03*
Y98250D02*
D03*
X435500D02*
D03*
Y92750D02*
D03*
X304000Y64750D02*
D03*
Y59250D02*
D03*
X294000Y64750D02*
D03*
Y59250D02*
D03*
X185000Y65244D02*
D03*
Y70756D02*
D03*
X179500Y65250D02*
D03*
Y70750D02*
D03*
X174000Y65250D02*
D03*
Y70750D02*
D03*
X120500Y124750D02*
D03*
Y119250D02*
D03*
X4000Y134250D02*
D03*
Y128750D02*
D03*
X245000Y68250D02*
D03*
Y73750D02*
D03*
X239000Y68250D02*
D03*
Y73750D02*
D03*
X145000Y316756D02*
D03*
Y311244D02*
D03*
X139500Y311250D02*
D03*
Y316750D02*
D03*
X75000Y116500D02*
D03*
Y122000D02*
D03*
X41000Y162250D02*
D03*
Y167750D02*
D03*
Y154750D02*
D03*
Y149250D02*
D03*
X46000Y162250D02*
D03*
Y167750D02*
D03*
D17*
X426405Y106063D02*
D03*
Y108031D02*
D03*
Y110000D02*
D03*
Y111969D02*
D03*
Y113937D02*
D03*
X414595D02*
D03*
Y111969D02*
D03*
Y110000D02*
D03*
Y108031D02*
D03*
Y106063D02*
D03*
X46169Y126693D02*
D03*
Y124724D02*
D03*
Y122756D02*
D03*
Y120787D02*
D03*
Y118819D02*
D03*
X57980D02*
D03*
Y120787D02*
D03*
Y122756D02*
D03*
Y124724D02*
D03*
Y126693D02*
D03*
D19*
X419713Y104095D02*
D03*
X421287D02*
D03*
X419713Y115905D02*
D03*
X421287D02*
D03*
X52862Y128661D02*
D03*
X51287D02*
D03*
X52862Y116850D02*
D03*
X51287D02*
D03*
D20*
X204339Y330339D02*
D03*
X201780D02*
D03*
X199221D02*
D03*
X196662D02*
D03*
X196661Y322661D02*
D03*
X199221D02*
D03*
X201780D02*
D03*
X204339D02*
D03*
D21*
X184406Y322799D02*
D03*
Y326500D02*
D03*
Y330201D02*
D03*
X172594D02*
D03*
Y326500D02*
D03*
Y322799D02*
D03*
D22*
X401000Y98783D02*
D03*
Y84216D02*
D03*
X60500Y79716D02*
D03*
Y94283D02*
D03*
D23*
X401000Y125661D02*
D03*
Y108339D02*
D03*
D24*
X419250Y86000D02*
D03*
X411750D02*
D03*
X419250Y78500D02*
D03*
X411750D02*
D03*
D25*
X25000Y108925D02*
D03*
Y137075D02*
D03*
D26*
X8689Y158500D02*
D03*
D27*
X32311Y167555D02*
D03*
Y158500D02*
D03*
Y149445D02*
D03*
D28*
X149784Y57000D02*
D03*
X135216D02*
D03*
D29*
X87185Y97500D02*
D03*
X97815D02*
D03*
X87185Y88500D02*
D03*
X97815D02*
D03*
D30*
X49500Y78287D02*
D03*
Y86713D02*
D03*
D32*
X40248Y91516D02*
D03*
Y73484D02*
D03*
D64*
X8000Y75000D02*
D03*
Y82500D02*
D03*
Y90000D02*
D03*
X16035Y75000D02*
D03*
Y82500D02*
D03*
Y90000D02*
D03*
X24500D02*
D03*
Y82500D02*
D03*
Y75000D02*
D03*
D65*
X49050Y50450D02*
D03*
Y58550D02*
D03*
X40050D02*
D03*
Y50450D02*
D03*
X23950Y58550D02*
D03*
Y50450D02*
D03*
X14950D02*
D03*
Y58550D02*
D03*
D66*
X152500Y78000D02*
D03*
D67*
X420500Y110000D02*
D03*
X52075Y122756D02*
D03*
M02*
