%FSLAX25Y25*%
%MOIN*%
G70*
G01*
G75*
G04 Layer_Physical_Order=1*
G04 Layer_Color=255*
%ADD10R,0.02992X0.03347*%
%ADD11R,0.04331X0.02362*%
%ADD12O,0.04331X0.02362*%
%ADD13R,0.08661X0.11024*%
%ADD14O,0.07480X0.02362*%
%ADD15R,0.07480X0.02362*%
%ADD16R,0.03347X0.02992*%
%ADD17O,0.03150X0.01102*%
%ADD18R,0.06496X0.09449*%
%ADD19R,0.00866X0.02756*%
%ADD20R,0.01378X0.01969*%
%ADD21R,0.02795X0.01811*%
%ADD22R,0.05709X0.08268*%
%ADD23R,0.10984X0.07539*%
%ADD24R,0.03500X0.05000*%
%ADD25R,0.20866X0.09843*%
%ADD26R,0.07874X0.12992*%
%ADD27R,0.07874X0.03543*%
%ADD28R,0.08268X0.05709*%
%ADD29R,0.04331X0.06890*%
%ADD30R,0.02500X0.04173*%
%ADD31R,0.24803X0.21654*%
%ADD32R,0.10827X0.03543*%
%ADD33R,0.16700X0.15000*%
%ADD34C,0.01000*%
%ADD35C,0.02500*%
%ADD36C,0.01000*%
%ADD37C,0.00800*%
%ADD38R,0.06000X0.06000*%
%ADD39C,0.06000*%
%ADD40C,0.15000*%
%ADD41C,0.07500*%
%ADD42C,0.05118*%
%ADD43R,0.05118X0.05118*%
%ADD44C,0.05906*%
%ADD45R,0.08000X0.08000*%
%ADD46C,0.08000*%
%ADD47R,0.06000X0.06000*%
%ADD48C,0.07000*%
%ADD49R,0.07000X0.07000*%
%ADD50C,0.12000*%
%ADD51C,0.23622*%
%ADD52C,0.27559*%
%ADD53C,0.02000*%
%ADD54C,0.02800*%
G36*
X90077Y126125D02*
X90018Y125528D01*
X89991Y125509D01*
X89991Y125509D01*
X86176Y121694D01*
X85866Y121231D01*
X85758Y120685D01*
X85758Y120685D01*
Y103418D01*
X52485D01*
X52418Y103500D01*
Y108927D01*
X57146D01*
Y109260D01*
X57610Y109640D01*
X58000Y109563D01*
X58741Y109710D01*
X59370Y110130D01*
X59790Y110759D01*
X59937Y111500D01*
X59880Y111790D01*
X60409Y112073D01*
X61735Y110747D01*
X61735Y110747D01*
X62198Y110437D01*
X62198Y110437D01*
X62198Y110437D01*
D01*
X62198Y110437D01*
X62198Y110437D01*
X62429Y110391D01*
Y109183D01*
Y104183D01*
X67221D01*
Y109183D01*
Y112057D01*
X67430Y112144D01*
X67929Y111810D01*
Y109183D01*
X72721D01*
Y114329D01*
X69770D01*
X68927Y115172D01*
Y119183D01*
X72721D01*
Y119604D01*
X77573D01*
Y124396D01*
X72427D01*
Y124329D01*
X68927D01*
Y136582D01*
X79620D01*
X90077Y126125D01*
D02*
G37*
G36*
X416352Y111500D02*
X408000D01*
Y94500D01*
X394000D01*
Y115500D01*
X416352D01*
Y111500D01*
D02*
G37*
G36*
X48000Y128380D02*
X47927D01*
Y126500D01*
X12000D01*
Y102500D01*
X92500D01*
Y67500D01*
X77500D01*
Y85000D01*
X54000D01*
Y83000D01*
X34500D01*
Y96500D01*
X1427D01*
Y131000D01*
X48000D01*
Y128380D01*
D02*
G37*
G36*
X416352Y107500D02*
X415832D01*
X415618Y107543D01*
X413571D01*
X413357Y107500D01*
X412000D01*
Y105000D01*
X409000D01*
Y110500D01*
X413515D01*
X413571Y110489D01*
X415618D01*
X415674Y110500D01*
X416352D01*
Y107500D01*
D02*
G37*
G36*
X66073Y130073D02*
X62354D01*
Y128120D01*
X59266D01*
X59004Y128173D01*
X56957D01*
X56391Y128060D01*
X55910Y127739D01*
X55590Y127259D01*
X55477Y126693D01*
X55590Y126127D01*
X55869Y125709D01*
X55590Y125291D01*
X55477Y124724D01*
X55590Y124158D01*
X55869Y123740D01*
X55590Y123322D01*
X55477Y122756D01*
X55590Y122190D01*
X55869Y121772D01*
X55590Y121354D01*
X55477Y120787D01*
X55590Y120221D01*
X55869Y119803D01*
X55590Y119385D01*
X55477Y118819D01*
X55590Y118253D01*
X55910Y117773D01*
X56391Y117452D01*
X56957Y117339D01*
X58642D01*
X59073Y116909D01*
Y114000D01*
X59073Y114000D01*
X59105Y113835D01*
X58832Y113426D01*
X58704Y113297D01*
X58000Y113437D01*
X57610Y113360D01*
X57146Y113740D01*
Y114073D01*
X52354D01*
Y114073D01*
X52199Y114073D01*
X52149Y114149D01*
X51851Y114348D01*
X51500Y114418D01*
X40918D01*
Y121120D01*
X42880Y123082D01*
X44396D01*
X44484Y123100D01*
X44575D01*
X44658Y123135D01*
X44747Y123152D01*
X44822Y123202D01*
X44905Y123237D01*
X44938Y123258D01*
X45007Y123272D01*
X45146Y123245D01*
X47193D01*
X47759Y123357D01*
X48239Y123678D01*
X48560Y124158D01*
X48673Y124724D01*
X48560Y125291D01*
X48306Y125671D01*
X48576Y125851D01*
X48774Y126149D01*
X48844Y126500D01*
Y128024D01*
X48848Y128029D01*
X48918Y128380D01*
Y131000D01*
X48848Y131351D01*
X48649Y131649D01*
X48351Y131848D01*
X48000Y131918D01*
X45985D01*
X45918Y132000D01*
Y136582D01*
X66073D01*
Y130073D01*
D02*
G37*
G36*
X44579Y125326D02*
X45146Y125213D01*
X47193D01*
D01*
X47193Y125213D01*
D01*
X47500Y124953D01*
Y124288D01*
X47193Y124235D01*
X47193Y124235D01*
Y124235D01*
X45146D01*
X44579Y124123D01*
X44428Y124021D01*
X44428D01*
X44428Y124021D01*
X44402Y124004D01*
X44396Y124000D01*
X42500D01*
X42231Y123731D01*
X42231Y123731D01*
X41250Y122750D01*
X40000Y121500D01*
Y121120D01*
Y114418D01*
Y113500D01*
X51410D01*
X51493Y113483D01*
X51500Y113479D01*
Y108927D01*
Y103500D01*
Y103500D01*
X13000D01*
Y125500D01*
X44319D01*
X44579Y125326D01*
D02*
G37*
G36*
X153000Y127000D02*
X182000D01*
Y120500D01*
X132000D01*
X129000Y123500D01*
X115500D01*
X113000Y126000D01*
X91500D01*
X80000Y137500D01*
X45000D01*
Y132000D01*
X14000D01*
Y151500D01*
X128500D01*
X153000Y127000D01*
D02*
G37*
G36*
X157000Y67000D02*
X177500Y46500D01*
Y29000D01*
X169500D01*
Y36000D01*
X154500Y51000D01*
X142500D01*
Y63500D01*
X148000D01*
Y84500D01*
X157000D01*
Y67000D01*
D02*
G37*
G36*
X130000Y117500D02*
Y63500D01*
X141500D01*
Y50000D01*
X154000D01*
X168500Y35500D01*
Y29000D01*
X160500D01*
X151500Y38000D01*
X125000D01*
X121000Y34000D01*
Y28500D01*
X111500D01*
Y120500D01*
X127000D01*
X130000Y117500D01*
D02*
G37*
G36*
X151073Y31909D02*
Y21500D01*
X151073Y21500D01*
X151181Y20954D01*
X151491Y20491D01*
X153499Y18482D01*
X153270Y17927D01*
X142050D01*
Y29347D01*
X142367Y29478D01*
X143089Y30033D01*
X143643Y30755D01*
X143992Y31597D01*
X144111Y32500D01*
X143992Y33403D01*
X143643Y34244D01*
X143421Y34534D01*
X143686Y35073D01*
X147909D01*
X151073Y31909D01*
D02*
G37*
G36*
X80500Y48000D02*
Y30000D01*
X66000D01*
Y39500D01*
X63000Y42500D01*
X34500D01*
Y67000D01*
X61500D01*
X80500Y48000D01*
D02*
G37*
G36*
X33500Y42500D02*
X1427D01*
Y95500D01*
X33500D01*
Y42500D01*
D02*
G37*
G36*
X134757Y36528D02*
X133968Y35739D01*
X133651Y35870D01*
X132748Y35989D01*
X131845Y35870D01*
X131004Y35522D01*
X130281Y34967D01*
X129727Y34244D01*
X129378Y33403D01*
X129259Y32500D01*
X129378Y31597D01*
X129727Y30755D01*
X130281Y30033D01*
X131004Y29478D01*
X131321Y29347D01*
Y20339D01*
X130909Y19927D01*
X110091D01*
X107927Y22091D01*
Y25409D01*
X110009Y27491D01*
X110009Y27491D01*
X110195Y27768D01*
X110251Y27852D01*
X110851Y27851D01*
X111149Y27652D01*
X111500Y27582D01*
X121000D01*
X121351Y27652D01*
X121649Y27851D01*
X121848Y28149D01*
X121918Y28500D01*
Y33620D01*
X125380Y37082D01*
X134528D01*
X134757Y36528D01*
D02*
G37*
G36*
X415000Y50000D02*
X345000D01*
Y33873D01*
X344885Y33000D01*
X345000Y32127D01*
Y30000D01*
X335000D01*
Y60000D01*
X387500D01*
Y90000D01*
X415000D01*
Y50000D01*
D02*
G37*
G36*
X438573Y95146D02*
X438073D01*
Y95146D01*
X434231D01*
X433850Y95610D01*
X433927Y96000D01*
X433927Y96000D01*
Y104000D01*
X433927Y104000D01*
X433819Y104546D01*
X433695Y104732D01*
X433509Y105009D01*
X433509Y105009D01*
X430816Y107703D01*
X430875Y108300D01*
X431370Y108630D01*
X431790Y109259D01*
X431937Y110000D01*
X431790Y110741D01*
X431370Y111370D01*
X430741Y111790D01*
X430000Y111937D01*
X429259Y111790D01*
X428716Y111427D01*
X427691D01*
X427429Y111480D01*
X425382D01*
X424816Y111367D01*
X424336Y111046D01*
X424015Y110566D01*
X423902Y110000D01*
X424015Y109434D01*
X424294Y109016D01*
X424015Y108598D01*
X423902Y108031D01*
X424015Y107465D01*
X424294Y107047D01*
X424015Y106629D01*
X423902Y106063D01*
X424015Y105497D01*
X424336Y105017D01*
X424816Y104696D01*
X425382Y104583D01*
X426898D01*
X428073Y103409D01*
Y100646D01*
X415927D01*
Y104645D01*
X416184Y104696D01*
X416664Y105017D01*
X416985Y105497D01*
X417098Y106063D01*
X416985Y106629D01*
X416887Y106775D01*
X417001Y106851D01*
X417200Y107149D01*
X417270Y107500D01*
Y110500D01*
X417200Y110851D01*
X417100Y111000D01*
X417200Y111149D01*
X417270Y111500D01*
Y115500D01*
X417200Y115851D01*
X417001Y116149D01*
X416703Y116348D01*
X416352Y116418D01*
X394000D01*
X393649Y116348D01*
X393351Y116149D01*
X393152Y115851D01*
X393082Y115500D01*
Y94500D01*
X393152Y94149D01*
X393351Y93851D01*
X393649Y93652D01*
X394000Y93582D01*
X408000D01*
X408351Y93652D01*
X408543Y93781D01*
X409073Y93498D01*
Y90918D01*
X387500D01*
X387149Y90848D01*
X386851Y90649D01*
X386652Y90351D01*
X386582Y90000D01*
Y60918D01*
X335000D01*
X334649Y60848D01*
X334351Y60649D01*
X334152Y60351D01*
X334082Y60000D01*
Y30000D01*
X334152Y29649D01*
X334351Y29351D01*
X334649Y29152D01*
X335000Y29082D01*
X345000D01*
X345351Y29152D01*
X345649Y29351D01*
X345848Y29649D01*
X345918Y30000D01*
Y32127D01*
X345906Y32187D01*
X345910Y32247D01*
X345811Y33000D01*
X345910Y33753D01*
X345906Y33813D01*
X345918Y33873D01*
Y49082D01*
X387573D01*
Y43646D01*
X386427D01*
Y38854D01*
X391573D01*
Y43646D01*
X390427D01*
Y49082D01*
X415000D01*
X415351Y49152D01*
X415649Y49351D01*
X415848Y49649D01*
X415918Y50000D01*
Y90000D01*
X415848Y90351D01*
X415649Y90649D01*
X415351Y90848D01*
X415000Y90918D01*
X411927D01*
Y93409D01*
X412591Y94073D01*
X421159D01*
X421927Y93305D01*
Y90354D01*
X432073D01*
Y91323D01*
X432927D01*
Y90354D01*
X438073D01*
Y90354D01*
X438148D01*
X438573Y89930D01*
Y1427D01*
X1427D01*
Y41582D01*
X33500D01*
X33851Y41652D01*
X34000Y41752D01*
X34149Y41652D01*
X34500Y41582D01*
X62620D01*
X65082Y39120D01*
Y30000D01*
X65152Y29649D01*
X65351Y29351D01*
X65649Y29152D01*
X66000Y29082D01*
X80500D01*
X80851Y29152D01*
X81149Y29351D01*
X81348Y29649D01*
X81418Y30000D01*
Y48000D01*
X81348Y48351D01*
X81149Y48649D01*
X62149Y67649D01*
X61851Y67848D01*
X61500Y67918D01*
X34500D01*
X34418Y67985D01*
Y70813D01*
X46561D01*
Y72057D01*
X47354D01*
Y70427D01*
X52146D01*
Y75573D01*
X51650D01*
Y81274D01*
X47350D01*
Y75301D01*
D01*
Y75301D01*
X46961Y74912D01*
X46561D01*
Y76156D01*
X34418D01*
Y82015D01*
X34500Y82082D01*
X54000D01*
X54351Y82152D01*
X54649Y82351D01*
X54848Y82649D01*
X54918Y83000D01*
Y84082D01*
X76582D01*
Y67500D01*
X76652Y67149D01*
X76851Y66851D01*
X77149Y66652D01*
X77500Y66582D01*
X92500D01*
X92851Y66652D01*
X93149Y66851D01*
X93348Y67149D01*
X93418Y67500D01*
Y102500D01*
X93348Y102851D01*
X93149Y103149D01*
X92851Y103348D01*
X92500Y103418D01*
X88613D01*
Y120094D01*
X91591Y123073D01*
X106803D01*
X107184Y122609D01*
X107063Y122000D01*
X107097Y121827D01*
X106673Y121403D01*
X106500Y121437D01*
X105759Y121290D01*
X105130Y120870D01*
X104710Y120241D01*
X104563Y119500D01*
X104710Y118759D01*
X105073Y118216D01*
Y117500D01*
X105073Y117500D01*
X105181Y116954D01*
X105491Y116491D01*
X105573Y116409D01*
Y30091D01*
X103491Y28009D01*
X103181Y27546D01*
X103073Y27000D01*
X103073Y27000D01*
Y20500D01*
X103073Y20500D01*
X103181Y19954D01*
X103491Y19491D01*
X107491Y15491D01*
X107491Y15491D01*
X107768Y15305D01*
X107954Y15181D01*
X108500Y15073D01*
X245622D01*
X245622Y15073D01*
X246168Y15181D01*
X246631Y15491D01*
X260402Y29261D01*
X260719Y29130D01*
X261622Y29011D01*
X262525Y29130D01*
X263367Y29478D01*
X264089Y30033D01*
X264644Y30755D01*
X264992Y31597D01*
X265111Y32500D01*
X264992Y33403D01*
X264644Y34244D01*
X264089Y34967D01*
X263367Y35522D01*
X262525Y35870D01*
X261622Y35989D01*
X260719Y35870D01*
X259878Y35522D01*
X259155Y34967D01*
X258601Y34244D01*
X258252Y33403D01*
X258133Y32500D01*
X258252Y31597D01*
X258383Y31280D01*
X245031Y17927D01*
X241978D01*
X241748Y18482D01*
X252528Y29261D01*
X252845Y29130D01*
X253748Y29011D01*
X254651Y29130D01*
X255492Y29478D01*
X256215Y30033D01*
X256769Y30755D01*
X257118Y31597D01*
X257237Y32500D01*
X257118Y33403D01*
X256769Y34244D01*
X256215Y34967D01*
X255492Y35522D01*
X254651Y35870D01*
X253748Y35989D01*
X252845Y35870D01*
X252004Y35522D01*
X251281Y34967D01*
X250727Y34244D01*
X250378Y33403D01*
X250259Y32500D01*
X250378Y31597D01*
X250509Y31280D01*
X239157Y19927D01*
X156091D01*
X153927Y22091D01*
Y32500D01*
X153927Y32500D01*
X153927Y32500D01*
Y32500D01*
X153927D01*
X153927Y32500D01*
X153819Y33046D01*
X153695Y33232D01*
X153509Y33509D01*
X153509Y33509D01*
X150491Y36528D01*
X150631Y36866D01*
X151219Y36983D01*
X159851Y28351D01*
X160149Y28152D01*
X160500Y28082D01*
X168500D01*
X168851Y28152D01*
X169000Y28252D01*
X169149Y28152D01*
X169500Y28082D01*
X177500D01*
X177851Y28152D01*
X178149Y28351D01*
X178348Y28649D01*
X178418Y29000D01*
Y46500D01*
X178348Y46851D01*
X178149Y47149D01*
X157918Y67380D01*
Y68419D01*
X166392D01*
Y69323D01*
X171427D01*
Y68354D01*
X176573D01*
Y68354D01*
X176573D01*
X176573Y68354D01*
X176927D01*
Y68354D01*
X179801D01*
X179888Y68145D01*
X179554Y67646D01*
X176927D01*
Y62854D01*
X182073D01*
Y65804D01*
X184628Y68360D01*
X187573D01*
Y73152D01*
X182427D01*
Y73146D01*
X182073D01*
Y73146D01*
X180927D01*
Y81058D01*
X181845Y81438D01*
X182816Y82184D01*
X183562Y83155D01*
X184030Y84286D01*
X184190Y85500D01*
X184030Y86714D01*
X183562Y87845D01*
X182816Y88816D01*
X181845Y89562D01*
X180714Y90030D01*
X179500Y90190D01*
X178286Y90030D01*
X177155Y89562D01*
X176184Y88816D01*
X175438Y87845D01*
X174970Y86714D01*
X174810Y85500D01*
X174970Y84286D01*
X175438Y83155D01*
X176184Y82184D01*
X177155Y81438D01*
X178073Y81058D01*
Y73146D01*
X176927D01*
D01*
D01*
X176927Y73146D01*
X176573D01*
Y73146D01*
X171427D01*
Y72177D01*
X166392D01*
Y72581D01*
X157918D01*
Y73159D01*
X158381Y73540D01*
Y73540D01*
D01*
X159193Y73378D01*
X164311D01*
X165123Y73540D01*
X165811Y74000D01*
X166271Y74688D01*
X166433Y75500D01*
X166271Y76312D01*
X165811Y77000D01*
X165123Y77460D01*
X164311Y77622D01*
X159193D01*
X158381Y77460D01*
X158089Y77700D01*
Y78300D01*
X158381Y78540D01*
Y78540D01*
D01*
X159193Y78378D01*
X164311D01*
X165123Y78540D01*
X165811Y79000D01*
X166271Y79688D01*
X166433Y80500D01*
X166271Y81312D01*
X165811Y82000D01*
X165123Y82460D01*
X164311Y82622D01*
X159193D01*
X158381Y82460D01*
X158089Y82700D01*
Y83300D01*
X158381Y83540D01*
Y83540D01*
D01*
X159193Y83378D01*
X164311D01*
X165123Y83540D01*
X165811Y84000D01*
X166271Y84688D01*
X166433Y85500D01*
X166271Y86312D01*
X165811Y87000D01*
X165123Y87460D01*
X164311Y87622D01*
X159193D01*
X158381Y87460D01*
X157693Y87000D01*
X157233Y86312D01*
X157071Y85500D01*
X157073Y85491D01*
X157000Y85418D01*
X148000D01*
X147927Y85491D01*
X147929Y85500D01*
X147767Y86312D01*
X147308Y87000D01*
X146619Y87460D01*
X145807Y87622D01*
X140689D01*
X139877Y87460D01*
X139189Y87000D01*
X138729Y86312D01*
X138567Y85500D01*
X138729Y84688D01*
X139189Y84000D01*
X139877Y83540D01*
X140689Y83378D01*
X145807D01*
X146619Y83540D01*
D01*
Y83540D01*
X147082Y83159D01*
Y64418D01*
X142500D01*
X142149Y64348D01*
X142000Y64248D01*
X141851Y64348D01*
X141500Y64418D01*
X130918D01*
Y116280D01*
X131472Y116509D01*
X132991Y114991D01*
X132991Y114991D01*
X133268Y114805D01*
X133454Y114681D01*
X134000Y114573D01*
X134000Y114573D01*
X195716D01*
X196259Y114210D01*
X197000Y114063D01*
X197741Y114210D01*
X198370Y114630D01*
X198790Y115259D01*
X198937Y116000D01*
X198790Y116741D01*
X198370Y117370D01*
X197741Y117790D01*
X197000Y117937D01*
X196259Y117790D01*
X195716Y117427D01*
X134591D01*
X132991Y119028D01*
X133220Y119582D01*
X182000D01*
X182351Y119652D01*
X182649Y119851D01*
X182848Y120149D01*
X182918Y120500D01*
Y127000D01*
X182848Y127351D01*
X182649Y127649D01*
X182351Y127848D01*
X182000Y127918D01*
X153380D01*
X129149Y152149D01*
X128851Y152348D01*
X128500Y152418D01*
X53177D01*
Y156927D01*
X54146D01*
Y162073D01*
X49354D01*
Y156927D01*
X50323D01*
Y152418D01*
X14000D01*
X13649Y152348D01*
X13351Y152149D01*
X13152Y151851D01*
X13082Y151500D01*
Y132000D01*
X13015Y131918D01*
X1427D01*
Y338573D01*
X195159D01*
X195305Y337990D01*
X194825Y337734D01*
X194741Y337790D01*
X194000Y337937D01*
X193259Y337790D01*
X192630Y337370D01*
X192210Y336741D01*
X192063Y336000D01*
X192210Y335259D01*
X192630Y334630D01*
X193259Y334210D01*
X194000Y334063D01*
X194741Y334210D01*
X194825Y334266D01*
X195354Y333983D01*
Y333427D01*
X196387D01*
X196431Y333204D01*
X196741Y332741D01*
X197632Y331849D01*
Y328454D01*
X197632D01*
X197794Y328293D01*
Y328279D01*
X197794Y328279D01*
X197794D01*
X197902Y327733D01*
X198212Y327270D01*
X198362Y327120D01*
X198407Y326891D01*
X198027Y326427D01*
X194000D01*
X194000Y326427D01*
X193454Y326319D01*
X192991Y326009D01*
X192991Y326009D01*
X191208Y324227D01*
X190284D01*
X189741Y324589D01*
X189000Y324736D01*
X188259Y324589D01*
X187716Y324227D01*
X186703D01*
Y324605D01*
X182108D01*
Y324605D01*
X182074D01*
X181650Y325029D01*
Y328395D01*
X182108D01*
Y328395D01*
X186703D01*
Y332006D01*
X185927D01*
Y333000D01*
X185927Y333000D01*
X185819Y333546D01*
X185509Y334009D01*
X184009Y335509D01*
X183546Y335819D01*
X183000Y335927D01*
X183000Y335927D01*
X169750D01*
X169750Y335927D01*
X169204Y335819D01*
X168741Y335509D01*
X168741Y335509D01*
X167377Y334146D01*
X164427D01*
Y329354D01*
X169573D01*
Y332305D01*
X170341Y333073D01*
X182409D01*
X182921Y332561D01*
X182691Y332006D01*
X182108D01*
Y331224D01*
X181650D01*
Y331224D01*
X175350D01*
Y331224D01*
X175316D01*
X174892Y331649D01*
Y332006D01*
X170297D01*
Y328730D01*
X170297Y328730D01*
X170297D01*
X170297Y328395D01*
Y328350D01*
Y328306D01*
Y328306D01*
Y327971D01*
Y327971D01*
D01*
Y327927D01*
X169573D01*
Y328646D01*
X159427D01*
Y328646D01*
X159241Y328290D01*
X158500Y328437D01*
X157759Y328290D01*
X157130Y327870D01*
X156710Y327241D01*
X156563Y326500D01*
X156710Y325759D01*
X157130Y325130D01*
X157623Y324801D01*
X157449Y324227D01*
X154292D01*
X142009Y336509D01*
X141546Y336819D01*
X141000Y336927D01*
X141000Y336927D01*
X88000D01*
X88000Y336927D01*
X87454Y336819D01*
X87268Y336695D01*
X86991Y336509D01*
X86991Y336509D01*
X80991Y330509D01*
X80681Y330046D01*
X80573Y329500D01*
X80573Y329500D01*
Y233500D01*
X80573Y233500D01*
X80681Y232954D01*
X80991Y232491D01*
X152073Y161409D01*
Y147000D01*
X152073Y147000D01*
X152181Y146454D01*
X152491Y145991D01*
X155991Y142491D01*
X155991Y142491D01*
X156276Y142300D01*
X156593Y141533D01*
X157219Y140718D01*
X158033Y140093D01*
X158982Y139700D01*
X160000Y139566D01*
X161018Y139700D01*
X161967Y140093D01*
X162782Y140718D01*
X163407Y141533D01*
X163630Y142073D01*
X170854D01*
Y140927D01*
X175646D01*
Y146073D01*
X170854D01*
Y144927D01*
X163630D01*
X163407Y145467D01*
X162782Y146282D01*
X161967Y146907D01*
X161018Y147300D01*
X160000Y147434D01*
X158982Y147300D01*
X158033Y146907D01*
X157219Y146282D01*
X157069Y146087D01*
X156471Y146048D01*
X154927Y147591D01*
Y162000D01*
X154927Y162000D01*
X154819Y162546D01*
X154509Y163009D01*
X146001Y171518D01*
X146230Y172073D01*
X156370D01*
X156593Y171533D01*
X157219Y170719D01*
X158033Y170093D01*
X158982Y169700D01*
X160000Y169566D01*
X161018Y169700D01*
X161967Y170093D01*
X162782Y170719D01*
X163407Y171533D01*
X163630Y172073D01*
X170854D01*
Y170927D01*
X175646D01*
Y176073D01*
X170854D01*
Y174927D01*
X163630D01*
X163407Y175467D01*
X162782Y176281D01*
X161967Y176907D01*
X161018Y177300D01*
X160000Y177434D01*
X158982Y177300D01*
X158033Y176907D01*
X157219Y176281D01*
X156593Y175467D01*
X156370Y174927D01*
X145591D01*
X85427Y235091D01*
Y322387D01*
X85996Y322580D01*
X86684Y321684D01*
X87655Y320938D01*
X88573Y320558D01*
Y284000D01*
X88573Y284000D01*
X88681Y283454D01*
X88991Y282991D01*
X125424Y246557D01*
X125200Y246018D01*
X125066Y245000D01*
X125200Y243982D01*
X125593Y243033D01*
X126218Y242218D01*
X127033Y241593D01*
X127982Y241200D01*
X129000Y241066D01*
X130018Y241200D01*
X130558Y241424D01*
X141823Y230159D01*
Y226073D01*
X140854D01*
Y220927D01*
X144573D01*
Y216841D01*
X143805Y216073D01*
X140854D01*
Y210927D01*
X145646D01*
Y213555D01*
X146145Y213888D01*
X146354Y213801D01*
Y210927D01*
X151146D01*
Y212073D01*
X156370D01*
X156593Y211533D01*
X157219Y210718D01*
X158033Y210093D01*
X158982Y209700D01*
X160000Y209566D01*
X161018Y209700D01*
X161967Y210093D01*
X162782Y210718D01*
X163407Y211533D01*
X163800Y212482D01*
X163934Y213500D01*
X163800Y214518D01*
X163407Y215467D01*
X162782Y216282D01*
X161967Y216907D01*
X161018Y217300D01*
X160000Y217434D01*
X158982Y217300D01*
X158033Y216907D01*
X157219Y216282D01*
X156593Y215467D01*
X156370Y214927D01*
X151146D01*
Y216073D01*
X147573D01*
X147427Y216250D01*
X147427Y216250D01*
Y220927D01*
X151146D01*
Y222073D01*
X156370D01*
X156593Y221533D01*
X157219Y220719D01*
X158033Y220093D01*
X158982Y219700D01*
X160000Y219566D01*
X161018Y219700D01*
X161967Y220093D01*
X162782Y220719D01*
X163407Y221533D01*
X163800Y222482D01*
X163934Y223500D01*
X163800Y224518D01*
X163407Y225467D01*
X162782Y226281D01*
X161967Y226907D01*
X161018Y227300D01*
X160000Y227434D01*
X158982Y227300D01*
X158033Y226907D01*
X157219Y226281D01*
X156593Y225467D01*
X156370Y224927D01*
X151146D01*
Y226073D01*
X147427D01*
Y238000D01*
X147427Y238000D01*
X147319Y238546D01*
X147009Y239009D01*
X132576Y253443D01*
X132800Y253982D01*
X132934Y255000D01*
X132800Y256018D01*
X132407Y256967D01*
X131781Y257782D01*
X130967Y258407D01*
X130018Y258800D01*
X129000Y258934D01*
X127982Y258800D01*
X127443Y258576D01*
X111427Y274591D01*
Y320558D01*
X112345Y320938D01*
X113316Y321684D01*
X114062Y322655D01*
X114530Y323786D01*
X114690Y325000D01*
X114530Y326214D01*
X114062Y327345D01*
X113316Y328316D01*
X112345Y329062D01*
X111214Y329530D01*
X110000Y329690D01*
X108786Y329530D01*
X107655Y329062D01*
X106684Y328316D01*
X105938Y327345D01*
X105470Y326214D01*
X105310Y325000D01*
X105470Y323786D01*
X105938Y322655D01*
X106684Y321684D01*
X107655Y320938D01*
X108573Y320558D01*
Y274000D01*
X108573Y274000D01*
X108681Y273454D01*
X108991Y272991D01*
X125424Y256557D01*
X125200Y256018D01*
X125066Y255000D01*
X125200Y253982D01*
X125593Y253033D01*
X126218Y252219D01*
X127033Y251593D01*
X127982Y251200D01*
X129000Y251066D01*
X130018Y251200D01*
X130558Y251424D01*
X144573Y237409D01*
Y232230D01*
X144018Y232000D01*
X132576Y243443D01*
X132800Y243982D01*
X132934Y245000D01*
X132800Y246018D01*
X132407Y246967D01*
X131781Y247781D01*
X130967Y248407D01*
X130018Y248800D01*
X129000Y248934D01*
X127982Y248800D01*
X127443Y248576D01*
X91427Y284591D01*
Y320558D01*
X92345Y320938D01*
X93316Y321684D01*
X94062Y322655D01*
X94530Y323786D01*
X94690Y325000D01*
X94530Y326214D01*
X94062Y327345D01*
X93316Y328316D01*
X92345Y329062D01*
X91214Y329530D01*
X90000Y329690D01*
X88786Y329530D01*
X87655Y329062D01*
X86684Y328316D01*
X85996Y327420D01*
X85744Y327505D01*
X85608Y328089D01*
X89591Y332073D01*
X139409D01*
X151491Y319991D01*
X151954Y319681D01*
X152500Y319573D01*
X152500Y319573D01*
X168909D01*
X173491Y314991D01*
X173491Y314991D01*
X173954Y314681D01*
X173954Y314681D01*
X173954Y314681D01*
D01*
X173954Y314681D01*
X173954Y314681D01*
X174500Y314573D01*
X174500Y314573D01*
X187716D01*
X188259Y314210D01*
X189000Y314063D01*
X189741Y314210D01*
X190370Y314630D01*
X190790Y315259D01*
X190937Y316000D01*
X190790Y316741D01*
X190588Y317043D01*
X190871Y317573D01*
X195234D01*
Y314339D01*
X195234Y314339D01*
X195343Y313792D01*
X195652Y313329D01*
X197991Y310991D01*
X197991Y310991D01*
X198268Y310805D01*
X198454Y310681D01*
X199000Y310573D01*
X199000Y310573D01*
X225500D01*
X225500Y310573D01*
X226046Y310681D01*
X226509Y310991D01*
X239091Y323573D01*
X255558D01*
X255938Y322655D01*
X256684Y321684D01*
X257655Y320938D01*
X258786Y320470D01*
X260000Y320310D01*
X261214Y320470D01*
X262345Y320938D01*
X263316Y321684D01*
X264062Y322655D01*
X264530Y323786D01*
X264690Y325000D01*
X264530Y326214D01*
X264062Y327345D01*
X263316Y328316D01*
X262345Y329062D01*
X261214Y329530D01*
X260000Y329690D01*
X258786Y329530D01*
X257655Y329062D01*
X256684Y328316D01*
X255938Y327345D01*
X255558Y326427D01*
X238500D01*
X238500Y326427D01*
X237954Y326319D01*
X237491Y326009D01*
X237491Y326009D01*
X235079Y323597D01*
X234540Y323863D01*
X234690Y325000D01*
X234530Y326214D01*
X234062Y327345D01*
X233316Y328316D01*
X232345Y329062D01*
X231214Y329530D01*
X230000Y329690D01*
X228786Y329530D01*
X227655Y329062D01*
X226684Y328316D01*
X225938Y327345D01*
X225470Y326214D01*
X225310Y325000D01*
X225470Y323786D01*
X225938Y322655D01*
X226684Y321684D01*
X227444Y321100D01*
X227483Y320502D01*
X222409Y315427D01*
X204646D01*
Y320073D01*
X203207D01*
Y320777D01*
X203368D01*
Y324546D01*
X203207D01*
Y325573D01*
X204000D01*
X204000Y325573D01*
X204546Y325681D01*
X205009Y325991D01*
X205349Y326330D01*
X205658Y326793D01*
X205767Y327339D01*
X205767Y327339D01*
Y328454D01*
X205928D01*
Y332223D01*
X202750D01*
Y328454D01*
D01*
Y328454D01*
X202723Y328427D01*
X202000D01*
X201890Y328405D01*
X201780Y328427D01*
X201091D01*
X200810Y328709D01*
Y332223D01*
X200648D01*
Y332279D01*
X200540Y332825D01*
X200416Y333011D01*
X200231Y333288D01*
X200230Y333288D01*
X200130Y333388D01*
X200146Y333427D01*
X200146D01*
X200146Y333427D01*
Y338573D01*
X438573D01*
Y95146D01*
D02*
G37*
%LPC*%
G36*
X198500Y94692D02*
X197661Y94525D01*
X196950Y94050D01*
X196475Y93339D01*
X196308Y92500D01*
Y73146D01*
X195927D01*
Y68354D01*
X201073D01*
Y73146D01*
X200692D01*
Y92500D01*
X200525Y93339D01*
X200050Y94050D01*
X199339Y94525D01*
X198500Y94692D01*
D02*
G37*
G36*
X245000Y79692D02*
X244161Y79525D01*
X243450Y79050D01*
X242975Y78339D01*
X242808Y77500D01*
Y76146D01*
X242427D01*
Y71354D01*
X247573D01*
Y76146D01*
X247192D01*
Y77500D01*
X247025Y78339D01*
X246550Y79050D01*
X245839Y79525D01*
X245000Y79692D01*
D02*
G37*
G36*
X247573Y70646D02*
X242427D01*
Y70442D01*
X241573D01*
Y70646D01*
X236427D01*
Y65854D01*
X241573D01*
Y66058D01*
X242427D01*
Y65854D01*
X242808D01*
Y64073D01*
X242354D01*
Y58927D01*
X247146D01*
Y61518D01*
X247192Y61750D01*
Y65854D01*
X247573D01*
Y70646D01*
D02*
G37*
G36*
X260000Y277434D02*
X258982Y277300D01*
X258033Y276907D01*
X257219Y276281D01*
X256593Y275467D01*
X256200Y274518D01*
X256066Y273500D01*
X256200Y272482D01*
X256593Y271533D01*
X257219Y270719D01*
X258033Y270093D01*
X258982Y269700D01*
X260000Y269566D01*
X261018Y269700D01*
X261967Y270093D01*
X262782Y270719D01*
X263407Y271533D01*
X263800Y272482D01*
X263934Y273500D01*
X263800Y274518D01*
X263407Y275467D01*
X262782Y276281D01*
X261967Y276907D01*
X261018Y277300D01*
X260000Y277434D01*
D02*
G37*
G36*
X304000Y70437D02*
X303259Y70290D01*
X302630Y69870D01*
X302210Y69241D01*
X302063Y68500D01*
X302210Y67759D01*
X302266Y67675D01*
X301983Y67146D01*
X301427D01*
Y62354D01*
X306573D01*
Y67146D01*
X306017D01*
X305734Y67675D01*
X305790Y67759D01*
X305937Y68500D01*
X305790Y69241D01*
X305370Y69870D01*
X304741Y70290D01*
X304000Y70437D01*
D02*
G37*
G36*
X260000Y257434D02*
X258982Y257300D01*
X258033Y256907D01*
X257219Y256281D01*
X256593Y255467D01*
X256200Y254518D01*
X256066Y253500D01*
X256200Y252482D01*
X256593Y251533D01*
X257219Y250718D01*
X258033Y250093D01*
X258982Y249700D01*
X260000Y249566D01*
X261018Y249700D01*
X261967Y250093D01*
X262782Y250718D01*
X263407Y251533D01*
X263800Y252482D01*
X263934Y253500D01*
X263800Y254518D01*
X263407Y255467D01*
X262782Y256281D01*
X261967Y256907D01*
X261018Y257300D01*
X260000Y257434D01*
D02*
G37*
G36*
X302500Y89934D02*
X301482Y89800D01*
X300533Y89407D01*
X299718Y88781D01*
X299093Y87967D01*
X298700Y87018D01*
X298566Y86000D01*
X298700Y84982D01*
X299093Y84033D01*
X299718Y83218D01*
X300533Y82593D01*
X301482Y82200D01*
X302500Y82066D01*
X303518Y82200D01*
X304467Y82593D01*
X305281Y83218D01*
X305907Y84033D01*
X306300Y84982D01*
X306434Y86000D01*
X306300Y87018D01*
X305907Y87967D01*
X305281Y88781D01*
X304467Y89407D01*
X303518Y89800D01*
X302500Y89934D01*
D02*
G37*
G36*
X120500Y90544D02*
X119482Y90410D01*
X118533Y90017D01*
X117719Y89392D01*
X117093Y88577D01*
X116700Y87628D01*
X116566Y86610D01*
X116700Y85592D01*
X117093Y84643D01*
X117719Y83829D01*
X118533Y83204D01*
X119482Y82811D01*
X120500Y82677D01*
X121518Y82811D01*
X122467Y83204D01*
X123282Y83829D01*
X123907Y84643D01*
X124300Y85592D01*
X124434Y86610D01*
X124300Y87628D01*
X123907Y88577D01*
X123282Y89392D01*
X122467Y90017D01*
X121518Y90410D01*
X120500Y90544D01*
D02*
G37*
G36*
X312500Y99934D02*
X311482Y99800D01*
X310533Y99407D01*
X309718Y98782D01*
X309093Y97967D01*
X308700Y97018D01*
X308566Y96000D01*
X308700Y94982D01*
X309093Y94033D01*
X309718Y93218D01*
X310533Y92593D01*
X311482Y92200D01*
X312500Y92066D01*
X313518Y92200D01*
X314467Y92593D01*
X315282Y93218D01*
X315907Y94033D01*
X316300Y94982D01*
X316434Y96000D01*
X316300Y97018D01*
X315907Y97967D01*
X315282Y98782D01*
X314467Y99407D01*
X313518Y99800D01*
X312500Y99934D01*
D02*
G37*
G36*
X322500D02*
X321482Y99800D01*
X320533Y99407D01*
X319719Y98782D01*
X319093Y97967D01*
X318700Y97018D01*
X318566Y96000D01*
X318700Y94982D01*
X319093Y94033D01*
X319719Y93218D01*
X320533Y92593D01*
X321482Y92200D01*
X322500Y92066D01*
X323518Y92200D01*
X324467Y92593D01*
X325282Y93218D01*
X325907Y94033D01*
X326300Y94982D01*
X326434Y96000D01*
X326300Y97018D01*
X325907Y97967D01*
X325282Y98782D01*
X324467Y99407D01*
X323518Y99800D01*
X322500Y99934D01*
D02*
G37*
G36*
X312500Y89934D02*
X311482Y89800D01*
X310533Y89407D01*
X309718Y88781D01*
X309093Y87967D01*
X308700Y87018D01*
X308566Y86000D01*
X308700Y84982D01*
X309093Y84033D01*
X309718Y83218D01*
X310533Y82593D01*
X311482Y82200D01*
X312500Y82066D01*
X313518Y82200D01*
X314467Y82593D01*
X315282Y83218D01*
X315907Y84033D01*
X316300Y84982D01*
X316434Y86000D01*
X316300Y87018D01*
X315907Y87967D01*
X315282Y88781D01*
X314467Y89407D01*
X313518Y89800D01*
X312500Y89934D01*
D02*
G37*
G36*
X352500D02*
X351482Y89800D01*
X350533Y89407D01*
X349718Y88781D01*
X349093Y87967D01*
X348700Y87018D01*
X348566Y86000D01*
X348700Y84982D01*
X349093Y84033D01*
X349718Y83218D01*
X350533Y82593D01*
X351482Y82200D01*
X352500Y82066D01*
X353518Y82200D01*
X354467Y82593D01*
X355281Y83218D01*
X355907Y84033D01*
X356300Y84982D01*
X356434Y86000D01*
X356300Y87018D01*
X355907Y87967D01*
X355281Y88781D01*
X354467Y89407D01*
X353518Y89800D01*
X352500Y89934D01*
D02*
G37*
G36*
X362500D02*
X361482Y89800D01*
X360533Y89407D01*
X359718Y88781D01*
X359093Y87967D01*
X358700Y87018D01*
X358566Y86000D01*
X358700Y84982D01*
X359093Y84033D01*
X359718Y83218D01*
X360533Y82593D01*
X361482Y82200D01*
X362500Y82066D01*
X363518Y82200D01*
X364467Y82593D01*
X365282Y83218D01*
X365907Y84033D01*
X366300Y84982D01*
X366434Y86000D01*
X366300Y87018D01*
X365907Y87967D01*
X365282Y88781D01*
X364467Y89407D01*
X363518Y89800D01*
X362500Y89934D01*
D02*
G37*
G36*
X306573Y61646D02*
X301427D01*
Y56854D01*
X302573D01*
Y47130D01*
X302033Y46907D01*
X301219Y46281D01*
X300593Y45467D01*
X300200Y44518D01*
X300066Y43500D01*
X300200Y42482D01*
X300593Y41533D01*
X301219Y40718D01*
X302033Y40093D01*
X302982Y39700D01*
X304000Y39566D01*
X305018Y39700D01*
X305967Y40093D01*
X306782Y40718D01*
X307407Y41533D01*
X307800Y42482D01*
X307934Y43500D01*
X307800Y44518D01*
X307407Y45467D01*
X306782Y46281D01*
X305967Y46907D01*
X305427Y47130D01*
Y56854D01*
X306573D01*
Y61646D01*
D02*
G37*
G36*
X130000Y329690D02*
X128786Y329530D01*
X127655Y329062D01*
X126684Y328316D01*
X125938Y327345D01*
X125470Y326214D01*
X125310Y325000D01*
X125470Y323786D01*
X125938Y322655D01*
X126684Y321684D01*
X127655Y320938D01*
X128573Y320558D01*
Y317000D01*
X128573Y317000D01*
X128573Y317000D01*
Y288900D01*
X125100D01*
Y281100D01*
X130881D01*
X144573Y267409D01*
Y247500D01*
X144573Y247500D01*
X144681Y246954D01*
X144991Y246491D01*
X156424Y235057D01*
X156200Y234518D01*
X156066Y233500D01*
X156200Y232482D01*
X156593Y231533D01*
X157219Y230718D01*
X158033Y230093D01*
X158982Y229700D01*
X160000Y229566D01*
X161018Y229700D01*
X161967Y230093D01*
X162782Y230718D01*
X163407Y231533D01*
X163800Y232482D01*
X163934Y233500D01*
X163800Y234518D01*
X163407Y235467D01*
X162782Y236281D01*
X161967Y236907D01*
X161018Y237300D01*
X160000Y237434D01*
X158982Y237300D01*
X158442Y237076D01*
X147427Y248091D01*
Y268000D01*
X147427Y268000D01*
X147319Y268546D01*
X147009Y269009D01*
X132900Y283119D01*
Y288900D01*
X131427D01*
Y315323D01*
X136927D01*
Y314354D01*
X142073D01*
Y319146D01*
X136927D01*
Y318177D01*
X131427D01*
Y320558D01*
X132345Y320938D01*
X133316Y321684D01*
X134062Y322655D01*
X134530Y323786D01*
X134690Y325000D01*
X134530Y326214D01*
X134062Y327345D01*
X133316Y328316D01*
X132345Y329062D01*
X131214Y329530D01*
X130000Y329690D01*
D02*
G37*
G36*
X142073Y313646D02*
Y313646D01*
X136927D01*
Y308854D01*
X142073D01*
Y308854D01*
X142421D01*
X142427Y308848D01*
Y308848D01*
X147573D01*
Y313640D01*
X142427D01*
Y313640D01*
X142079D01*
X142073Y313646D01*
D02*
G37*
G36*
X214500Y99187D02*
X213759Y99040D01*
X213130Y98620D01*
X212710Y97991D01*
X212563Y97250D01*
X212710Y96509D01*
X213073Y95966D01*
Y40341D01*
X212239Y39507D01*
X211929Y39044D01*
X211821Y38498D01*
X211821Y38498D01*
Y35653D01*
X211504Y35522D01*
X210781Y34967D01*
X210226Y34244D01*
X209878Y33403D01*
X209759Y32500D01*
X209878Y31597D01*
X210226Y30755D01*
X210781Y30033D01*
X211504Y29478D01*
X212345Y29130D01*
X213248Y29011D01*
X214151Y29130D01*
X214992Y29478D01*
X215715Y30033D01*
X216269Y30755D01*
X216618Y31597D01*
X216737Y32500D01*
X216618Y33403D01*
X216269Y34244D01*
X215715Y34967D01*
X214992Y35522D01*
X214675Y35653D01*
Y37907D01*
X215509Y38741D01*
X215509Y38741D01*
X215695Y39018D01*
X215819Y39204D01*
X215927Y39750D01*
X215927Y39750D01*
X215927Y39750D01*
Y39750D01*
Y95966D01*
X216290Y96509D01*
X216437Y97250D01*
X216290Y97991D01*
X215870Y98620D01*
X215241Y99040D01*
X214500Y99187D01*
D02*
G37*
G36*
X52130Y25425D02*
X50777Y25292D01*
X49477Y24898D01*
X48278Y24257D01*
X47227Y23395D01*
X46365Y22344D01*
X45724Y21145D01*
X45330Y19845D01*
X45197Y18492D01*
X45330Y17140D01*
X45724Y15839D01*
X46365Y14640D01*
X47227Y13589D01*
X48278Y12727D01*
X49477Y12087D01*
X50777Y11692D01*
X52130Y11559D01*
X53483Y11692D01*
X54783Y12087D01*
X55982Y12727D01*
X57033Y13589D01*
X57895Y14640D01*
X58535Y15839D01*
X58930Y17140D01*
X59063Y18492D01*
X58930Y19845D01*
X58535Y21145D01*
X57895Y22344D01*
X57033Y23395D01*
X55982Y24257D01*
X54783Y24898D01*
X53483Y25292D01*
X52130Y25425D01*
D02*
G37*
G36*
X80870D02*
X79517Y25292D01*
X78217Y24898D01*
X77018Y24257D01*
X75967Y23395D01*
X75105Y22344D01*
X74464Y21145D01*
X74070Y19845D01*
X73937Y18492D01*
X74070Y17140D01*
X74464Y15839D01*
X75105Y14640D01*
X75967Y13589D01*
X77018Y12727D01*
X78217Y12087D01*
X79517Y11692D01*
X80870Y11559D01*
X82223Y11692D01*
X83523Y12087D01*
X84722Y12727D01*
X85773Y13589D01*
X86635Y14640D01*
X87276Y15839D01*
X87670Y17140D01*
X87804Y18492D01*
X87670Y19845D01*
X87276Y21145D01*
X86635Y22344D01*
X85773Y23395D01*
X84722Y24257D01*
X83523Y24898D01*
X82223Y25292D01*
X80870Y25425D01*
D02*
G37*
G36*
X391573Y38146D02*
X386427D01*
Y33354D01*
X387573D01*
Y32152D01*
X386427D01*
Y27360D01*
X391573D01*
Y32152D01*
X390427D01*
Y33354D01*
X391573D01*
Y38146D01*
D02*
G37*
G36*
X201073Y67646D02*
X195927D01*
Y62854D01*
X196308D01*
Y45408D01*
X195950Y45050D01*
X195475Y44339D01*
X195308Y43500D01*
Y35959D01*
X194041D01*
Y29041D01*
X200959D01*
Y35959D01*
X199692D01*
Y42592D01*
X200050Y42950D01*
X200525Y43661D01*
X200692Y44500D01*
Y48427D01*
X201146D01*
Y53427D01*
Y58573D01*
X200692D01*
Y62854D01*
X201073D01*
Y67646D01*
D02*
G37*
G36*
X129000Y278934D02*
X127982Y278800D01*
X127033Y278407D01*
X126218Y277782D01*
X125593Y276967D01*
X125200Y276018D01*
X125066Y275000D01*
X125200Y273982D01*
X125593Y273033D01*
X126218Y272218D01*
X127033Y271593D01*
X127982Y271200D01*
X129000Y271066D01*
X130018Y271200D01*
X130967Y271593D01*
X131781Y272218D01*
X132407Y273033D01*
X132800Y273982D01*
X132934Y275000D01*
X132800Y276018D01*
X132407Y276967D01*
X131781Y277782D01*
X130967Y278407D01*
X130018Y278800D01*
X129000Y278934D01*
D02*
G37*
G36*
X163900Y277400D02*
X156100D01*
Y269600D01*
X163900D01*
Y277400D01*
D02*
G37*
G36*
X296573Y61646D02*
X291427D01*
Y56854D01*
X292573D01*
Y47130D01*
X292033Y46907D01*
X291218Y46281D01*
X290593Y45467D01*
X290200Y44518D01*
X290066Y43500D01*
X290200Y42482D01*
X290593Y41533D01*
X291218Y40718D01*
X292033Y40093D01*
X292982Y39700D01*
X294000Y39566D01*
X295018Y39700D01*
X295967Y40093D01*
X296781Y40718D01*
X297407Y41533D01*
X297800Y42482D01*
X297934Y43500D01*
X297800Y44518D01*
X297407Y45467D01*
X296781Y46281D01*
X295967Y46907D01*
X295427Y47130D01*
Y56854D01*
X296573D01*
Y61646D01*
D02*
G37*
G36*
X241646Y64073D02*
X236854D01*
Y58927D01*
Y53927D01*
Y48927D01*
X237058D01*
Y46408D01*
X236450Y45800D01*
X235975Y45089D01*
X235808Y44250D01*
Y35959D01*
X234541D01*
Y29041D01*
X241459D01*
Y35959D01*
X240192D01*
Y43342D01*
X240800Y43950D01*
X241085Y44376D01*
X241275Y44661D01*
X241442Y45500D01*
Y48927D01*
X241646D01*
Y53927D01*
Y58927D01*
Y64073D01*
D02*
G37*
G36*
X356248Y36489D02*
X355345Y36370D01*
X354504Y36022D01*
X353781Y35467D01*
X353226Y34745D01*
X352878Y33903D01*
X352759Y33000D01*
X352878Y32097D01*
X353226Y31255D01*
X353781Y30533D01*
X354504Y29978D01*
X355345Y29630D01*
X356248Y29511D01*
X357151Y29630D01*
X357993Y29978D01*
X358715Y30533D01*
X359269Y31255D01*
X359618Y32097D01*
X359737Y33000D01*
X359618Y33903D01*
X359269Y34745D01*
X358715Y35467D01*
X357993Y36022D01*
X357151Y36370D01*
X356248Y36489D01*
D02*
G37*
G36*
X13000Y293441D02*
X11353Y293279D01*
X9770Y292798D01*
X8311Y292018D01*
X7032Y290968D01*
X5982Y289689D01*
X5202Y288230D01*
X4721Y286647D01*
X4559Y285000D01*
X4721Y283353D01*
X5202Y281770D01*
X5982Y280311D01*
X7032Y279032D01*
X8311Y277982D01*
X9770Y277202D01*
X11353Y276722D01*
X13000Y276559D01*
X14647Y276722D01*
X16230Y277202D01*
X17689Y277982D01*
X18968Y279032D01*
X20018Y280311D01*
X20798Y281770D01*
X21279Y283353D01*
X21441Y285000D01*
X21279Y286647D01*
X20798Y288230D01*
X20018Y289689D01*
X18968Y290968D01*
X17689Y292018D01*
X16230Y292798D01*
X14647Y293279D01*
X13000Y293441D01*
D02*
G37*
G36*
X332500Y99934D02*
X331482Y99800D01*
X330533Y99407D01*
X329718Y98782D01*
X329093Y97967D01*
X328700Y97018D01*
X328566Y96000D01*
X328700Y94982D01*
X329093Y94033D01*
X329718Y93218D01*
X330533Y92593D01*
X331482Y92200D01*
X332500Y92066D01*
X333518Y92200D01*
X334467Y92593D01*
X335281Y93218D01*
X335907Y94033D01*
X336300Y94982D01*
X336434Y96000D01*
X336300Y97018D01*
X335907Y97967D01*
X335281Y98782D01*
X334467Y99407D01*
X333518Y99800D01*
X332500Y99934D01*
D02*
G37*
G36*
X260000Y187434D02*
X258982Y187300D01*
X258033Y186907D01*
X257219Y186282D01*
X256593Y185467D01*
X256200Y184518D01*
X256066Y183500D01*
X256200Y182482D01*
X256593Y181533D01*
X257219Y180719D01*
X258033Y180093D01*
X258982Y179700D01*
X260000Y179566D01*
X261018Y179700D01*
X261967Y180093D01*
X262782Y180719D01*
X263407Y181533D01*
X263800Y182482D01*
X263934Y183500D01*
X263800Y184518D01*
X263407Y185467D01*
X262782Y186282D01*
X261967Y186907D01*
X261018Y187300D01*
X260000Y187434D01*
D02*
G37*
G36*
X160000Y197434D02*
X158982Y197300D01*
X158033Y196907D01*
X157219Y196282D01*
X156593Y195467D01*
X156200Y194518D01*
X156066Y193500D01*
X156200Y192482D01*
X156593Y191533D01*
X157219Y190718D01*
X158033Y190093D01*
X158982Y189700D01*
X160000Y189566D01*
X161018Y189700D01*
X161967Y190093D01*
X162782Y190718D01*
X163407Y191533D01*
X163630Y192073D01*
X186909D01*
X192573Y186409D01*
Y158730D01*
X192018Y158501D01*
X186009Y164509D01*
X185546Y164819D01*
X185000Y164927D01*
X185000Y164927D01*
X163630D01*
X163407Y165467D01*
X162782Y166281D01*
X161967Y166907D01*
X161018Y167300D01*
X160000Y167434D01*
X158982Y167300D01*
X158033Y166907D01*
X157219Y166281D01*
X156593Y165467D01*
X156200Y164518D01*
X156066Y163500D01*
X156200Y162482D01*
X156593Y161533D01*
X157219Y160719D01*
X158033Y160093D01*
X158982Y159700D01*
X160000Y159566D01*
X161018Y159700D01*
X161967Y160093D01*
X162782Y160719D01*
X163407Y161533D01*
X163630Y162073D01*
X184409D01*
X190573Y155909D01*
Y150730D01*
X190018Y150501D01*
X186009Y154509D01*
X185546Y154819D01*
X185000Y154927D01*
X185000Y154927D01*
X163630D01*
X163407Y155467D01*
X162782Y156281D01*
X161967Y156907D01*
X161018Y157300D01*
X160000Y157434D01*
X158982Y157300D01*
X158033Y156907D01*
X157219Y156281D01*
X156593Y155467D01*
X156200Y154518D01*
X156066Y153500D01*
X156200Y152482D01*
X156593Y151533D01*
X157219Y150718D01*
X158033Y150093D01*
X158982Y149700D01*
X160000Y149566D01*
X161018Y149700D01*
X161967Y150093D01*
X162782Y150718D01*
X163407Y151533D01*
X163630Y152073D01*
X184409D01*
X188573Y147909D01*
Y138000D01*
X188573Y138000D01*
X188681Y137454D01*
X188991Y136991D01*
X190499Y135482D01*
X190270Y134927D01*
X163630D01*
X163407Y135467D01*
X162782Y136282D01*
X161967Y136907D01*
X161018Y137300D01*
X160000Y137434D01*
X158982Y137300D01*
X158033Y136907D01*
X157219Y136282D01*
X156593Y135467D01*
X156200Y134518D01*
X156066Y133500D01*
X156200Y132482D01*
X156593Y131533D01*
X157219Y130719D01*
X158033Y130093D01*
X158982Y129700D01*
X160000Y129566D01*
X161018Y129700D01*
X161967Y130093D01*
X162782Y130719D01*
X163407Y131533D01*
X163630Y132073D01*
X186648D01*
X187029Y131609D01*
X186933Y131125D01*
X187100Y130286D01*
X187575Y129575D01*
X221950Y95200D01*
X221950D01*
X221950Y95200D01*
X221950Y95200D01*
Y95200D01*
X222661Y94725D01*
X223500Y94558D01*
X228092D01*
X236808Y85842D01*
Y76146D01*
X236427D01*
Y71354D01*
X241573D01*
Y76146D01*
X241192D01*
Y86750D01*
X241025Y87589D01*
X240550Y88300D01*
X231332Y97518D01*
X231561Y98073D01*
X236909D01*
X258573Y76409D01*
Y73500D01*
Y71942D01*
X257655Y71562D01*
X256684Y70816D01*
X255938Y69845D01*
X255470Y68714D01*
X255310Y67500D01*
X255470Y66286D01*
X255938Y65155D01*
X256684Y64184D01*
X257655Y63438D01*
X258786Y62970D01*
X260000Y62810D01*
X261214Y62970D01*
X262345Y63438D01*
X263316Y64184D01*
X264062Y65155D01*
X264530Y66286D01*
X264690Y67500D01*
X264530Y68714D01*
X264062Y69845D01*
X263316Y70816D01*
X262420Y71504D01*
X262613Y72073D01*
X290409D01*
X292573Y69909D01*
Y67146D01*
X291427D01*
Y62354D01*
X296573D01*
Y67146D01*
X295427D01*
Y70500D01*
X295427Y70500D01*
X295319Y71046D01*
X295009Y71509D01*
X295009Y71509D01*
X293001Y73518D01*
X293230Y74073D01*
X315659D01*
X317354Y72377D01*
Y69427D01*
X321073D01*
Y24000D01*
X321073Y24000D01*
X321181Y23454D01*
X321491Y22991D01*
X326491Y17991D01*
X326491Y17991D01*
X326954Y17681D01*
X326954Y17681D01*
X326954Y17681D01*
D01*
X326954Y17681D01*
X326954Y17681D01*
X327500Y17573D01*
X327500Y17573D01*
X361000D01*
X361000Y17573D01*
X361546Y17681D01*
X362009Y17991D01*
X365131Y21113D01*
X365131Y21113D01*
X365441Y21576D01*
X365441Y21576D01*
X365441Y21576D01*
X365549Y22122D01*
X365549Y22122D01*
Y29847D01*
X365866Y29978D01*
X366589Y30533D01*
X367144Y31255D01*
X367492Y32097D01*
X367611Y33000D01*
X367492Y33903D01*
X367144Y34745D01*
X366589Y35467D01*
X365866Y36022D01*
X365025Y36370D01*
X364122Y36489D01*
X363219Y36370D01*
X362378Y36022D01*
X361655Y35467D01*
X361101Y34745D01*
X360752Y33903D01*
X360633Y33000D01*
X360752Y32097D01*
X361101Y31255D01*
X361655Y30533D01*
X362378Y29978D01*
X362695Y29847D01*
Y22713D01*
X360409Y20427D01*
X328091D01*
X323927Y24591D01*
Y69427D01*
X327646D01*
Y70573D01*
X337500D01*
X337500Y70573D01*
X338046Y70681D01*
X338509Y70991D01*
X343509Y75991D01*
X343509Y75991D01*
X343819Y76454D01*
X343819Y76454D01*
X343819Y76454D01*
X343927Y77000D01*
X343927Y77000D01*
Y82370D01*
X344467Y82593D01*
X345282Y83218D01*
X345907Y84033D01*
X346300Y84982D01*
X346434Y86000D01*
X346300Y87018D01*
X345907Y87967D01*
X345282Y88781D01*
X344467Y89407D01*
X343518Y89800D01*
X342500Y89934D01*
X341482Y89800D01*
X340533Y89407D01*
X339719Y88781D01*
X339093Y87967D01*
X338700Y87018D01*
X338566Y86000D01*
X338700Y84982D01*
X339093Y84033D01*
X339719Y83218D01*
X340533Y82593D01*
X341073Y82370D01*
Y77591D01*
X336909Y73427D01*
X327646D01*
Y74573D01*
D01*
Y74573D01*
X327646Y74573D01*
Y74927D01*
X327646D01*
Y76073D01*
X330000D01*
X330000Y76073D01*
X330546Y76181D01*
X331009Y76491D01*
X333509Y78991D01*
X333509Y78991D01*
X333695Y79268D01*
X333819Y79454D01*
X333927Y80000D01*
X333927Y80000D01*
X333927Y80000D01*
Y80000D01*
Y82370D01*
X334467Y82593D01*
X335281Y83218D01*
X335907Y84033D01*
X336300Y84982D01*
X336434Y86000D01*
X336300Y87018D01*
X335907Y87967D01*
X335281Y88781D01*
X334467Y89407D01*
X333518Y89800D01*
X332500Y89934D01*
X331482Y89800D01*
X330533Y89407D01*
X329718Y88781D01*
X329093Y87967D01*
X328700Y87018D01*
X328566Y86000D01*
X328700Y84982D01*
X329093Y84033D01*
X329718Y83218D01*
X330533Y82593D01*
X331073Y82370D01*
Y80591D01*
X329409Y78927D01*
X327646D01*
Y80073D01*
X323801D01*
X323695Y80232D01*
X323509Y80509D01*
X323509Y80509D01*
X322509Y81509D01*
X322918Y82121D01*
X323518Y82200D01*
X324467Y82593D01*
X325282Y83218D01*
X325907Y84033D01*
X326300Y84982D01*
X326434Y86000D01*
X326300Y87018D01*
X325907Y87967D01*
X325282Y88781D01*
X324467Y89407D01*
X323518Y89800D01*
X322500Y89934D01*
X321482Y89800D01*
X320533Y89407D01*
X319719Y88781D01*
X319093Y87967D01*
X318700Y87018D01*
X318566Y86000D01*
X318700Y84982D01*
X319093Y84033D01*
X319719Y83218D01*
X320533Y82593D01*
X320720Y82516D01*
X320603Y81927D01*
X317000D01*
X316454Y81819D01*
X316268Y81695D01*
X315991Y81509D01*
X315991Y81509D01*
X315409Y80927D01*
X291091D01*
X280509Y91509D01*
X280046Y91819D01*
X279500Y91927D01*
X279500Y91927D01*
X276091D01*
X268927Y99091D01*
Y103500D01*
X268819Y104046D01*
X268695Y104232D01*
X268509Y104509D01*
X268509Y104509D01*
X264509Y108509D01*
X264046Y108819D01*
X263500Y108927D01*
X263500Y108927D01*
X230091D01*
X212427Y126591D01*
Y132148D01*
X213002Y132323D01*
X213130Y132130D01*
X213759Y131710D01*
X214500Y131563D01*
X214890Y131640D01*
X215354Y131260D01*
Y130927D01*
X220146D01*
Y133801D01*
X220355Y133888D01*
X220854Y133554D01*
Y130927D01*
X225646D01*
Y132073D01*
X226500D01*
X226500Y132073D01*
X227046Y132181D01*
X227509Y132491D01*
X228279Y133261D01*
X228291Y133259D01*
X228979Y132799D01*
X229791Y132638D01*
X231760D01*
X232572Y132799D01*
X233260Y133259D01*
X233720Y133948D01*
X233882Y134760D01*
X233858Y134878D01*
X234413Y135108D01*
X234491Y134991D01*
X235731Y133750D01*
X235731Y133750D01*
X236194Y133441D01*
X236194Y133441D01*
X236194Y133441D01*
D01*
X236194Y133441D01*
X236194Y133441D01*
X236740Y133332D01*
X236740Y133332D01*
X237691D01*
X237740Y133259D01*
X238428Y132799D01*
X239240Y132638D01*
X241209D01*
X242021Y132799D01*
X242709Y133259D01*
X242758Y133332D01*
X244760D01*
X244760Y133332D01*
X245306Y133441D01*
X245769Y133750D01*
X254091Y142073D01*
X256370D01*
X256593Y141533D01*
X257219Y140718D01*
X258033Y140093D01*
X258982Y139700D01*
X260000Y139566D01*
X261018Y139700D01*
X261558Y139924D01*
X263527Y137954D01*
X263297Y137400D01*
X256100D01*
Y129600D01*
X263900D01*
Y136797D01*
X264454Y137027D01*
X266073Y135409D01*
Y110000D01*
X266073Y110000D01*
X266181Y109454D01*
X266491Y108991D01*
X273350Y102131D01*
X272970Y101214D01*
X272810Y100000D01*
X272970Y98786D01*
X273438Y97655D01*
X274184Y96684D01*
X275155Y95938D01*
X276286Y95470D01*
X277500Y95310D01*
X278714Y95470D01*
X279845Y95938D01*
X280816Y96684D01*
X281562Y97655D01*
X282030Y98786D01*
X282190Y100000D01*
X282030Y101214D01*
X281562Y102345D01*
X280816Y103316D01*
X279845Y104062D01*
X278714Y104530D01*
X277500Y104690D01*
X276286Y104530D01*
X275368Y104150D01*
X268927Y110591D01*
Y120770D01*
X269482Y121000D01*
X273350Y117131D01*
X272970Y116214D01*
X272810Y115000D01*
X272970Y113786D01*
X273438Y112655D01*
X274184Y111684D01*
X275155Y110938D01*
X276286Y110470D01*
X277500Y110310D01*
X278714Y110470D01*
X279845Y110938D01*
X280816Y111684D01*
X281562Y112655D01*
X282030Y113786D01*
X282190Y115000D01*
X282030Y116214D01*
X281562Y117345D01*
X280816Y118316D01*
X279845Y119062D01*
X278714Y119530D01*
X277500Y119690D01*
X276286Y119530D01*
X275368Y119150D01*
X271427Y123091D01*
Y133270D01*
X271982Y133500D01*
X273350Y132132D01*
X272970Y131214D01*
X272810Y130000D01*
X272970Y128786D01*
X273438Y127655D01*
X274184Y126684D01*
X275155Y125938D01*
X276286Y125470D01*
X277500Y125310D01*
X278714Y125470D01*
X279845Y125938D01*
X280816Y126684D01*
X281562Y127655D01*
X282030Y128786D01*
X282190Y130000D01*
X282030Y131214D01*
X281562Y132345D01*
X280816Y133316D01*
X279845Y134062D01*
X278714Y134530D01*
X277500Y134690D01*
X276286Y134530D01*
X275368Y134150D01*
X273927Y135591D01*
Y161000D01*
X273927Y161000D01*
X273819Y161546D01*
X273509Y162009D01*
X263576Y171942D01*
X263800Y172482D01*
X263934Y173500D01*
X263800Y174518D01*
X263407Y175467D01*
X262782Y176281D01*
X261967Y176907D01*
X261018Y177300D01*
X260000Y177434D01*
X258982Y177300D01*
X258033Y176907D01*
X257219Y176281D01*
X256593Y175467D01*
X256271Y174687D01*
X242758D01*
X242709Y174760D01*
X242021Y175220D01*
X241209Y175382D01*
X239240D01*
X238428Y175220D01*
X237740Y174760D01*
X237331Y174687D01*
X236927Y175091D01*
Y179027D01*
X237391Y179407D01*
X237664Y179352D01*
X237740Y179240D01*
X238428Y178780D01*
X239240Y178618D01*
X241209D01*
X242021Y178780D01*
X242709Y179240D01*
X243169Y179928D01*
X243331Y180740D01*
X243169Y181552D01*
X242709Y182241D01*
X242021Y182701D01*
X241209Y182862D01*
X241157D01*
X240749Y183269D01*
X240779Y183869D01*
X241110Y184140D01*
X241500Y184063D01*
X242241Y184210D01*
X242870Y184630D01*
X243290Y185259D01*
X243437Y186000D01*
X243290Y186741D01*
X242870Y187370D01*
X242241Y187790D01*
X241500Y187937D01*
X241110Y187860D01*
X240646Y188240D01*
Y188573D01*
X235854D01*
Y183427D01*
X236887D01*
X236931Y183204D01*
X237241Y182741D01*
X237740Y182241D01*
X237740Y182240D01*
X237280Y181552D01*
X237118Y180740D01*
X237142Y180622D01*
X236587Y180393D01*
X236509Y180509D01*
X236509Y180509D01*
X235269Y181749D01*
X234806Y182059D01*
X234260Y182168D01*
D01*
D01*
D01*
X234260Y182168D01*
D01*
X233841Y182587D01*
Y182821D01*
X227710D01*
Y178659D01*
X233841D01*
D01*
X233841D01*
X234073Y178427D01*
Y174973D01*
X233609Y174593D01*
X233336Y174647D01*
X233260Y174760D01*
X232572Y175220D01*
X231760Y175382D01*
X229791D01*
X228979Y175220D01*
X228291Y174760D01*
X228242Y174687D01*
X227760D01*
X227760Y174687D01*
X227214Y174579D01*
X226750Y174269D01*
X226750Y174269D01*
X226700Y174219D01*
X226146Y174449D01*
Y174573D01*
X223196D01*
X220646Y177123D01*
Y179427D01*
Y184573D01*
X215854D01*
Y179427D01*
Y174427D01*
Y173427D01*
X203500D01*
X203500Y173427D01*
X202954Y173319D01*
X202491Y173009D01*
X202491Y173009D01*
X195991Y166509D01*
X195427Y166886D01*
Y187000D01*
X195427Y187000D01*
X195319Y187546D01*
X195009Y188009D01*
X195009Y188009D01*
X188509Y194509D01*
X188046Y194819D01*
X187500Y194927D01*
X187500Y194927D01*
X163630D01*
X163407Y195467D01*
X162782Y196282D01*
X161967Y196907D01*
X161018Y197300D01*
X160000Y197434D01*
D02*
G37*
G36*
X260000D02*
X258982Y197300D01*
X258033Y196907D01*
X257219Y196282D01*
X256593Y195467D01*
X256200Y194518D01*
X256066Y193500D01*
X256200Y192482D01*
X256593Y191533D01*
X257219Y190718D01*
X258033Y190093D01*
X258982Y189700D01*
X260000Y189566D01*
X261018Y189700D01*
X261967Y190093D01*
X262782Y190718D01*
X263407Y191533D01*
X263800Y192482D01*
X263934Y193500D01*
X263800Y194518D01*
X263407Y195467D01*
X262782Y196282D01*
X261967Y196907D01*
X261018Y197300D01*
X260000Y197434D01*
D02*
G37*
G36*
X160000Y187434D02*
X158982Y187300D01*
X158033Y186907D01*
X157219Y186282D01*
X156593Y185467D01*
X156200Y184518D01*
X156066Y183500D01*
X156200Y182482D01*
X156593Y181533D01*
X157219Y180719D01*
X158033Y180093D01*
X158982Y179700D01*
X160000Y179566D01*
X161018Y179700D01*
X161967Y180093D01*
X162782Y180719D01*
X163407Y181533D01*
X163800Y182482D01*
X163934Y183500D01*
X163800Y184518D01*
X163407Y185467D01*
X162782Y186282D01*
X161967Y186907D01*
X161018Y187300D01*
X160000Y187434D01*
D02*
G37*
G36*
X69640Y162073D02*
X64848D01*
Y160927D01*
X59646D01*
Y162073D01*
X54854D01*
Y156927D01*
X59646D01*
Y158073D01*
X64848D01*
Y156927D01*
X69640D01*
Y162073D01*
D02*
G37*
G36*
X103000Y179418D02*
X14000D01*
X13649Y179348D01*
X13351Y179149D01*
X13152Y178851D01*
X13082Y178500D01*
Y165500D01*
X13152Y165149D01*
X13351Y164851D01*
X13649Y164652D01*
X14000Y164582D01*
X54500D01*
X54851Y164652D01*
X55149Y164851D01*
X55348Y165149D01*
X55403Y165427D01*
X59646D01*
Y166573D01*
X64848D01*
Y165427D01*
X69640D01*
Y170573D01*
X64848D01*
Y169427D01*
X59646D01*
Y170573D01*
X55418D01*
Y171582D01*
X85082D01*
Y168000D01*
X85152Y167649D01*
X85351Y167351D01*
X85649Y167152D01*
X86000Y167082D01*
X103000D01*
X103351Y167152D01*
X103649Y167351D01*
X103848Y167649D01*
X103918Y168000D01*
Y178500D01*
X103848Y178851D01*
X103649Y179149D01*
X103351Y179348D01*
X103000Y179418D01*
D02*
G37*
G36*
X181146Y176073D02*
X176354D01*
Y170927D01*
X181146D01*
Y171483D01*
X181675Y171766D01*
X181759Y171710D01*
X182500Y171563D01*
X183241Y171710D01*
X183870Y172130D01*
X184290Y172759D01*
X184437Y173500D01*
X184290Y174241D01*
X183870Y174870D01*
X183241Y175290D01*
X182500Y175437D01*
X181759Y175290D01*
X181675Y175234D01*
X181146Y175517D01*
Y176073D01*
D02*
G37*
G36*
X260000Y217434D02*
X258982Y217300D01*
X258033Y216907D01*
X257219Y216282D01*
X256593Y215467D01*
X256200Y214518D01*
X256066Y213500D01*
X256200Y212482D01*
X256593Y211533D01*
X257219Y210718D01*
X258033Y210093D01*
X258982Y209700D01*
X260000Y209566D01*
X261018Y209700D01*
X261967Y210093D01*
X262782Y210718D01*
X263407Y211533D01*
X263800Y212482D01*
X263934Y213500D01*
X263800Y214518D01*
X263407Y215467D01*
X262782Y216282D01*
X261967Y216907D01*
X261018Y217300D01*
X260000Y217434D01*
D02*
G37*
G36*
X129000Y218934D02*
X127982Y218800D01*
X127033Y218407D01*
X126218Y217781D01*
X125593Y216967D01*
X125200Y216018D01*
X125066Y215000D01*
X125200Y213982D01*
X125593Y213033D01*
X126218Y212218D01*
X127033Y211593D01*
X127982Y211200D01*
X129000Y211066D01*
X130018Y211200D01*
X130967Y211593D01*
X131781Y212218D01*
X132407Y213033D01*
X132800Y213982D01*
X132934Y215000D01*
X132800Y216018D01*
X132407Y216967D01*
X131781Y217781D01*
X130967Y218407D01*
X130018Y218800D01*
X129000Y218934D01*
D02*
G37*
G36*
X260000Y227434D02*
X258982Y227300D01*
X258033Y226907D01*
X257219Y226281D01*
X256593Y225467D01*
X256200Y224518D01*
X256066Y223500D01*
X256200Y222482D01*
X256593Y221533D01*
X257219Y220719D01*
X258033Y220093D01*
X258982Y219700D01*
X260000Y219566D01*
X261018Y219700D01*
X261967Y220093D01*
X262782Y220719D01*
X263407Y221533D01*
X263800Y222482D01*
X263934Y223500D01*
X263800Y224518D01*
X263407Y225467D01*
X262782Y226281D01*
X261967Y226907D01*
X261018Y227300D01*
X260000Y227434D01*
D02*
G37*
G36*
X129000Y208934D02*
X127982Y208800D01*
X127033Y208407D01*
X126218Y207782D01*
X125593Y206967D01*
X125200Y206018D01*
X125066Y205000D01*
X125200Y203982D01*
X125593Y203033D01*
X126218Y202219D01*
X127033Y201593D01*
X127982Y201200D01*
X129000Y201066D01*
X130018Y201200D01*
X130967Y201593D01*
X131781Y202219D01*
X132407Y203033D01*
X132800Y203982D01*
X132934Y205000D01*
X132800Y206018D01*
X132407Y206967D01*
X131781Y207782D01*
X130967Y208407D01*
X130018Y208800D01*
X129000Y208934D01*
D02*
G37*
G36*
X13000Y213441D02*
X11353Y213279D01*
X9770Y212798D01*
X8311Y212018D01*
X7032Y210968D01*
X5982Y209689D01*
X5202Y208230D01*
X4721Y206647D01*
X4559Y205000D01*
X4721Y203353D01*
X5202Y201770D01*
X5982Y200311D01*
X7032Y199032D01*
X8311Y197982D01*
X9770Y197202D01*
X11353Y196721D01*
X13000Y196559D01*
X14647Y196721D01*
X16230Y197202D01*
X17689Y197982D01*
X18968Y199032D01*
X20018Y200311D01*
X20798Y201770D01*
X21279Y203353D01*
X21441Y205000D01*
X21279Y206647D01*
X20798Y208230D01*
X20018Y209689D01*
X18968Y210968D01*
X17689Y212018D01*
X16230Y212798D01*
X14647Y213279D01*
X13000Y213441D01*
D02*
G37*
G36*
X160000Y207434D02*
X158982Y207300D01*
X158033Y206907D01*
X157219Y206281D01*
X156593Y205467D01*
X156200Y204518D01*
X156066Y203500D01*
X156200Y202482D01*
X156593Y201533D01*
X157219Y200718D01*
X158033Y200093D01*
X158982Y199700D01*
X160000Y199566D01*
X161018Y199700D01*
X161967Y200093D01*
X162782Y200718D01*
X163407Y201533D01*
X163800Y202482D01*
X163934Y203500D01*
X163800Y204518D01*
X163407Y205467D01*
X162782Y206281D01*
X161967Y206907D01*
X161018Y207300D01*
X160000Y207434D01*
D02*
G37*
G36*
X260000D02*
X258982Y207300D01*
X258033Y206907D01*
X257219Y206281D01*
X256593Y205467D01*
X256200Y204518D01*
X256066Y203500D01*
X256200Y202482D01*
X256593Y201533D01*
X257219Y200718D01*
X258033Y200093D01*
X258982Y199700D01*
X260000Y199566D01*
X261018Y199700D01*
X261967Y200093D01*
X262782Y200718D01*
X263407Y201533D01*
X263800Y202482D01*
X263934Y203500D01*
X263800Y204518D01*
X263407Y205467D01*
X262782Y206281D01*
X261967Y206907D01*
X261018Y207300D01*
X260000Y207434D01*
D02*
G37*
G36*
X420000Y170918D02*
X405000D01*
X404649Y170848D01*
X404351Y170649D01*
X404152Y170351D01*
X404082Y170000D01*
Y135918D01*
X357500D01*
X357149Y135848D01*
X356851Y135649D01*
X356652Y135351D01*
X356582Y135000D01*
Y97873D01*
X355994Y97756D01*
X355907Y97967D01*
X355281Y98782D01*
X354467Y99407D01*
X353518Y99800D01*
X352500Y99934D01*
X351482Y99800D01*
X350533Y99407D01*
X349718Y98782D01*
X349093Y97967D01*
X348700Y97018D01*
X348566Y96000D01*
X348700Y94982D01*
X349093Y94033D01*
X349718Y93218D01*
X350533Y92593D01*
X351482Y92200D01*
X352500Y92066D01*
X353518Y92200D01*
X354467Y92593D01*
X355281Y93218D01*
X355907Y94033D01*
X355994Y94244D01*
X356582Y94127D01*
Y92500D01*
X356652Y92149D01*
X356851Y91851D01*
X357149Y91652D01*
X357500Y91582D01*
X367500D01*
X367851Y91652D01*
X368149Y91851D01*
X368348Y92149D01*
X368418Y92500D01*
Y119082D01*
X420000D01*
X420351Y119152D01*
X420649Y119351D01*
X420848Y119649D01*
X420918Y120000D01*
Y170000D01*
X420848Y170351D01*
X420649Y170649D01*
X420351Y170848D01*
X420000Y170918D01*
D02*
G37*
G36*
X260000Y237434D02*
X258982Y237300D01*
X258033Y236907D01*
X257219Y236281D01*
X256593Y235467D01*
X256200Y234518D01*
X256066Y233500D01*
X256200Y232482D01*
X256593Y231533D01*
X257219Y230718D01*
X258033Y230093D01*
X258982Y229700D01*
X260000Y229566D01*
X261018Y229700D01*
X261967Y230093D01*
X262782Y230718D01*
X263407Y231533D01*
X263800Y232482D01*
X263934Y233500D01*
X263800Y234518D01*
X263407Y235467D01*
X262782Y236281D01*
X261967Y236907D01*
X261018Y237300D01*
X260000Y237434D01*
D02*
G37*
G36*
X129000Y238934D02*
X127982Y238800D01*
X127033Y238407D01*
X126218Y237782D01*
X125593Y236967D01*
X125200Y236018D01*
X125066Y235000D01*
X125200Y233982D01*
X125593Y233033D01*
X126218Y232219D01*
X127033Y231593D01*
X127982Y231200D01*
X129000Y231066D01*
X130018Y231200D01*
X130967Y231593D01*
X131781Y232219D01*
X132407Y233033D01*
X132800Y233982D01*
X132934Y235000D01*
X132800Y236018D01*
X132407Y236967D01*
X131781Y237782D01*
X130967Y238407D01*
X130018Y238800D01*
X129000Y238934D01*
D02*
G37*
G36*
X260000Y247434D02*
X258982Y247300D01*
X258033Y246907D01*
X257219Y246282D01*
X256593Y245467D01*
X256200Y244518D01*
X256066Y243500D01*
X256200Y242482D01*
X256593Y241533D01*
X257219Y240719D01*
X258033Y240093D01*
X258982Y239700D01*
X260000Y239566D01*
X261018Y239700D01*
X261967Y240093D01*
X262782Y240719D01*
X263407Y241533D01*
X263800Y242482D01*
X263934Y243500D01*
X263800Y244518D01*
X263407Y245467D01*
X262782Y246282D01*
X261967Y246907D01*
X261018Y247300D01*
X260000Y247434D01*
D02*
G37*
G36*
X160000D02*
X158982Y247300D01*
X158033Y246907D01*
X157219Y246282D01*
X156593Y245467D01*
X156200Y244518D01*
X156066Y243500D01*
X156200Y242482D01*
X156593Y241533D01*
X157219Y240719D01*
X158033Y240093D01*
X158982Y239700D01*
X160000Y239566D01*
X161018Y239700D01*
X161967Y240093D01*
X162782Y240719D01*
X163407Y241533D01*
X163800Y242482D01*
X163934Y243500D01*
X163800Y244518D01*
X163407Y245467D01*
X162782Y246282D01*
X161967Y246907D01*
X161018Y247300D01*
X160000Y247434D01*
D02*
G37*
G36*
X129000Y228934D02*
X127982Y228800D01*
X127033Y228407D01*
X126218Y227782D01*
X125593Y226967D01*
X125200Y226018D01*
X125066Y225000D01*
X125200Y223982D01*
X125593Y223033D01*
X126218Y222218D01*
X127033Y221593D01*
X127982Y221200D01*
X129000Y221066D01*
X130018Y221200D01*
X130967Y221593D01*
X131781Y222218D01*
X132407Y223033D01*
X132800Y223982D01*
X132934Y225000D01*
X132800Y226018D01*
X132407Y226967D01*
X131781Y227782D01*
X130967Y228407D01*
X130018Y228800D01*
X129000Y228934D01*
D02*
G37*
G36*
X342500Y99934D02*
X341482Y99800D01*
X340533Y99407D01*
X339719Y98782D01*
X339093Y97967D01*
X338700Y97018D01*
X338566Y96000D01*
X338700Y94982D01*
X339093Y94033D01*
X339719Y93218D01*
X340533Y92593D01*
X341482Y92200D01*
X342500Y92066D01*
X343518Y92200D01*
X344467Y92593D01*
X345282Y93218D01*
X345907Y94033D01*
X346300Y94982D01*
X346434Y96000D01*
X346300Y97018D01*
X345907Y97967D01*
X345282Y98782D01*
X344467Y99407D01*
X343518Y99800D01*
X342500Y99934D01*
D02*
G37*
G36*
X160000Y257434D02*
X158982Y257300D01*
X158033Y256907D01*
X157219Y256281D01*
X156593Y255467D01*
X156200Y254518D01*
X156066Y253500D01*
X156200Y252482D01*
X156593Y251533D01*
X157219Y250718D01*
X158033Y250093D01*
X158982Y249700D01*
X160000Y249566D01*
X161018Y249700D01*
X161967Y250093D01*
X162782Y250718D01*
X163407Y251533D01*
X163800Y252482D01*
X163934Y253500D01*
X163800Y254518D01*
X163407Y255467D01*
X162782Y256281D01*
X161967Y256907D01*
X161018Y257300D01*
X160000Y257434D01*
D02*
G37*
G36*
X181146Y146073D02*
X176354D01*
Y140927D01*
X181146D01*
Y141483D01*
X181675Y141766D01*
X181759Y141710D01*
X182500Y141563D01*
X183241Y141710D01*
X183870Y142130D01*
X184290Y142759D01*
X184437Y143500D01*
X184290Y144241D01*
X183870Y144870D01*
X183241Y145290D01*
X182500Y145437D01*
X181759Y145290D01*
X181675Y145234D01*
X181146Y145517D01*
Y146073D01*
D02*
G37*
%LPD*%
G36*
X420000Y120000D02*
X367500D01*
Y92500D01*
X357500D01*
Y135000D01*
X405000D01*
Y170000D01*
X420000D01*
Y120000D01*
D02*
G37*
G36*
X121279Y89516D02*
X122004Y89215D01*
X122627Y88737D01*
X123105Y88114D01*
X123406Y87389D01*
X123508Y86610D01*
X123406Y85832D01*
X123105Y85106D01*
X122627Y84483D01*
X122004Y84005D01*
X121279Y83705D01*
X120500Y83602D01*
X119721Y83705D01*
X118996Y84005D01*
X118373Y84483D01*
X117895Y85106D01*
X117594Y85832D01*
X117492Y86610D01*
X117594Y87389D01*
X117895Y88114D01*
X118373Y88737D01*
X118996Y89215D01*
X119721Y89516D01*
X120500Y89618D01*
X121279Y89516D01*
D02*
G37*
G36*
X103000Y168000D02*
X86000D01*
Y172500D01*
X54500D01*
Y165500D01*
X14000D01*
Y178500D01*
X103000D01*
Y168000D01*
D02*
G37*
G36*
X234491Y153991D02*
X235741Y152741D01*
X235741Y152741D01*
X236204Y152431D01*
X236750Y152323D01*
X236800Y152332D01*
X237691D01*
X237740Y152260D01*
X238428Y151799D01*
X239240Y151638D01*
X241209D01*
X242021Y151799D01*
X242709Y152260D01*
X242758Y152332D01*
X256262D01*
X256593Y151533D01*
X257219Y150718D01*
X258033Y150093D01*
X258982Y149700D01*
X260000Y149566D01*
X261018Y149700D01*
X261558Y149924D01*
X268573Y142909D01*
Y137730D01*
X268018Y137501D01*
X263576Y141943D01*
X263800Y142482D01*
X263934Y143500D01*
X263800Y144518D01*
X263407Y145467D01*
X262782Y146282D01*
X261967Y146907D01*
X261018Y147300D01*
X260000Y147434D01*
X258982Y147300D01*
X258033Y146907D01*
X257219Y146282D01*
X256593Y145467D01*
X256370Y144927D01*
X253500D01*
X253500Y144927D01*
X252954Y144819D01*
X252491Y144509D01*
X252491Y144509D01*
X244169Y136187D01*
X242758D01*
X242709Y136260D01*
X242021Y136720D01*
X241209Y136882D01*
X239240D01*
X238428Y136720D01*
X237740Y136260D01*
X237331Y136187D01*
X236927Y136591D01*
Y140527D01*
X237391Y140907D01*
X237664Y140852D01*
X237740Y140740D01*
X238428Y140280D01*
X239240Y140118D01*
X241209D01*
X242021Y140280D01*
X242709Y140740D01*
X243169Y141428D01*
X243331Y142240D01*
X243169Y143052D01*
X242709Y143741D01*
X242021Y144201D01*
X241549Y144294D01*
X241543Y144322D01*
X241234Y144785D01*
X241234Y144785D01*
X240749Y145269D01*
X240779Y145869D01*
X241110Y146140D01*
X241500Y146063D01*
X242241Y146210D01*
X242870Y146630D01*
X243290Y147259D01*
X243437Y148000D01*
X243290Y148741D01*
X242870Y149370D01*
X242241Y149790D01*
X241500Y149937D01*
X241110Y149860D01*
X240646Y150240D01*
Y150573D01*
X235854D01*
Y145427D01*
X236887D01*
X236931Y145204D01*
X237241Y144741D01*
X237785Y144197D01*
X237740Y143740D01*
X237280Y143052D01*
X237118Y142240D01*
X237142Y142122D01*
X236587Y141893D01*
X236509Y142009D01*
X236509Y142009D01*
X235269Y143249D01*
X234806Y143559D01*
X234260Y143668D01*
D01*
D01*
D01*
X234260Y143668D01*
D01*
X233841Y144087D01*
Y144321D01*
X227710D01*
Y140159D01*
X233841D01*
D01*
X233841D01*
X234073Y139927D01*
Y136473D01*
X233609Y136093D01*
X233336Y136147D01*
X233260Y136260D01*
X232572Y136720D01*
X231760Y136882D01*
X229791D01*
X228979Y136720D01*
X228291Y136260D01*
X228242Y136187D01*
X227760D01*
X227760Y136187D01*
X227214Y136079D01*
X226750Y135769D01*
X226750Y135769D01*
X226200Y135219D01*
X225646Y135449D01*
Y136073D01*
X222695D01*
X220146Y138623D01*
Y140927D01*
Y146073D01*
X215354D01*
Y140927D01*
Y135927D01*
Y135740D01*
X214890Y135360D01*
X214500Y135437D01*
X213759Y135290D01*
X213130Y134870D01*
X213002Y134677D01*
X212427Y134852D01*
Y149409D01*
X214091Y151073D01*
X215354D01*
Y149927D01*
X220146D01*
Y152801D01*
X220355Y152888D01*
X220854Y152555D01*
Y149927D01*
X225646D01*
Y151073D01*
X226500D01*
X226500Y151073D01*
X227046Y151181D01*
X227509Y151491D01*
X228279Y152261D01*
X228291Y152259D01*
X228979Y151799D01*
X229791Y151638D01*
X231760D01*
X232572Y151799D01*
X233260Y152260D01*
X233720Y152948D01*
X233882Y153760D01*
X233858Y153878D01*
X234413Y154107D01*
X234491Y153991D01*
D02*
G37*
G36*
X255619Y101574D02*
X255470Y101214D01*
X255310Y100000D01*
X255470Y98786D01*
X255938Y97655D01*
X256684Y96684D01*
X257655Y95938D01*
X258786Y95470D01*
X260000Y95310D01*
X261214Y95470D01*
X262132Y95850D01*
X270573Y87409D01*
Y83000D01*
X270573Y83000D01*
X270681Y82454D01*
X270991Y81991D01*
X274491Y78491D01*
X274491Y78491D01*
X274954Y78181D01*
X274954Y78181D01*
X274954Y78181D01*
D01*
X274954Y78181D01*
X274954Y78181D01*
X275500Y78073D01*
X275500Y78073D01*
X286909D01*
X287499Y77482D01*
X287270Y76927D01*
X270091D01*
X264150Y82868D01*
X264530Y83786D01*
X264690Y85000D01*
X264530Y86214D01*
X264062Y87345D01*
X263316Y88316D01*
X262345Y89062D01*
X261214Y89530D01*
X260000Y89690D01*
X258786Y89530D01*
X257655Y89062D01*
X256684Y88316D01*
X255938Y87345D01*
X255774Y86950D01*
X255186Y86833D01*
X240500Y101518D01*
X240730Y102073D01*
X255285D01*
X255619Y101574D01*
D02*
G37*
G36*
X234491Y173491D02*
X235731Y172250D01*
X235731Y172250D01*
X236194Y171941D01*
X236194Y171941D01*
X236194Y171941D01*
D01*
X236194Y171941D01*
X236194Y171941D01*
X236740Y171832D01*
X236740Y171832D01*
X237691D01*
X237740Y171759D01*
X238428Y171300D01*
X239240Y171138D01*
X241209D01*
X242021Y171300D01*
X242709Y171759D01*
X242758Y171832D01*
X256469D01*
X256593Y171533D01*
X257219Y170719D01*
X258033Y170093D01*
X258982Y169700D01*
X260000Y169566D01*
X261018Y169700D01*
X261558Y169924D01*
X271073Y160409D01*
Y145230D01*
X270518Y145001D01*
X263576Y151943D01*
X263800Y152482D01*
X263934Y153500D01*
X263800Y154518D01*
X263407Y155467D01*
X262782Y156281D01*
X261967Y156907D01*
X261018Y157300D01*
X260000Y157434D01*
X258982Y157300D01*
X258033Y156907D01*
X257219Y156281D01*
X256593Y155467D01*
X256478Y155187D01*
X242758D01*
X242709Y155260D01*
X242021Y155720D01*
X241209Y155882D01*
X239240D01*
X238428Y155720D01*
X237740Y155260D01*
X237331Y155187D01*
X236927Y155591D01*
Y159527D01*
X237391Y159907D01*
X237664Y159853D01*
X237740Y159740D01*
X238428Y159280D01*
X239240Y159118D01*
X241209D01*
X242021Y159280D01*
X242709Y159740D01*
X243169Y160428D01*
X243331Y161240D01*
X243169Y162052D01*
X242709Y162741D01*
X242021Y163200D01*
X241209Y163362D01*
X241157D01*
X240749Y163769D01*
X240779Y164369D01*
X241110Y164640D01*
X241500Y164563D01*
X242241Y164710D01*
X242870Y165130D01*
X243290Y165759D01*
X243437Y166500D01*
X243290Y167241D01*
X242870Y167870D01*
X242241Y168290D01*
X241500Y168437D01*
X241110Y168360D01*
X240646Y168740D01*
Y169073D01*
X235854D01*
Y163927D01*
X236887D01*
X236931Y163704D01*
X237241Y163241D01*
X237740Y162741D01*
X237740Y162741D01*
X237280Y162052D01*
X237118Y161240D01*
X237142Y161122D01*
X236587Y160892D01*
X236509Y161009D01*
X236509Y161009D01*
X235269Y162250D01*
X234806Y162559D01*
X234260Y162668D01*
D01*
D01*
D01*
X234260Y162668D01*
D01*
X233841Y163086D01*
Y163321D01*
X227710D01*
Y159159D01*
X233841D01*
D01*
X233841D01*
X234073Y158927D01*
Y155473D01*
X233609Y155093D01*
X233336Y155148D01*
X233260Y155260D01*
X232572Y155720D01*
X231760Y155882D01*
X229791D01*
X228979Y155720D01*
X228291Y155260D01*
X228242Y155187D01*
X227760D01*
X227760Y155187D01*
X227214Y155079D01*
X226750Y154769D01*
X226750Y154769D01*
X226200Y154219D01*
X225646Y154449D01*
Y155073D01*
X222695D01*
X220146Y157623D01*
Y159927D01*
Y165073D01*
X215354D01*
Y159927D01*
Y154927D01*
Y153927D01*
X213500D01*
X212954Y153819D01*
X212768Y153695D01*
X212491Y153509D01*
X212491Y153509D01*
X209991Y151009D01*
X209681Y150546D01*
X209573Y150000D01*
X209573Y150000D01*
Y127230D01*
X209018Y127000D01*
X196427Y139591D01*
X196710Y140120D01*
X197000Y140063D01*
X197741Y140210D01*
X198370Y140630D01*
X198790Y141259D01*
X198937Y142000D01*
X198790Y142741D01*
X198427Y143284D01*
Y164909D01*
X204091Y170573D01*
X215854D01*
Y169427D01*
X220646D01*
Y172301D01*
X220855Y172388D01*
X221354Y172055D01*
Y169427D01*
X226146D01*
Y170219D01*
X226500Y170573D01*
X226500D01*
Y170573D01*
D01*
D01*
D01*
X227046Y170681D01*
X227509Y170991D01*
X228279Y171761D01*
X228291Y171759D01*
X228979Y171300D01*
X229791Y171138D01*
X231760D01*
X232572Y171300D01*
X233260Y171759D01*
X233720Y172448D01*
X233882Y173260D01*
X233858Y173378D01*
X234413Y173608D01*
X234491Y173491D01*
D02*
G37*
%LPC*%
G36*
X260000Y167434D02*
X258982Y167300D01*
X258033Y166907D01*
X257219Y166281D01*
X256593Y165467D01*
X256200Y164518D01*
X256066Y163500D01*
X256200Y162482D01*
X256593Y161533D01*
X257219Y160719D01*
X258033Y160093D01*
X258982Y159700D01*
X260000Y159566D01*
X261018Y159700D01*
X261967Y160093D01*
X262782Y160719D01*
X263407Y161533D01*
X263800Y162482D01*
X263934Y163500D01*
X263800Y164518D01*
X263407Y165467D01*
X262782Y166281D01*
X261967Y166907D01*
X261018Y167300D01*
X260000Y167434D01*
D02*
G37*
%LPD*%
D10*
X232750Y148000D02*
D03*
X238250D02*
D03*
X244750Y61500D02*
D03*
X239250D02*
D03*
X319750Y77500D02*
D03*
X325250D02*
D03*
X319750Y72000D02*
D03*
X325250D02*
D03*
X423250Y143500D02*
D03*
X417750D02*
D03*
X423250Y138500D02*
D03*
X417750D02*
D03*
X423250Y133500D02*
D03*
X417750D02*
D03*
X423250Y128500D02*
D03*
X417750D02*
D03*
X203250Y336000D02*
D03*
X197750D02*
D03*
X207750Y317500D02*
D03*
X202250D02*
D03*
X204250Y56000D02*
D03*
X198750D02*
D03*
X204250Y51000D02*
D03*
X198750D02*
D03*
X133250Y70500D02*
D03*
X127750D02*
D03*
X232750Y186000D02*
D03*
X238250D02*
D03*
X232750Y166500D02*
D03*
X238250D02*
D03*
X244750Y56500D02*
D03*
X239250D02*
D03*
X244750Y51500D02*
D03*
X239250D02*
D03*
X223250Y157500D02*
D03*
X217750D02*
D03*
X223250Y162500D02*
D03*
X217750D02*
D03*
X223250Y152500D02*
D03*
X217750D02*
D03*
X223250Y138500D02*
D03*
X217750D02*
D03*
X223250Y143500D02*
D03*
X217750D02*
D03*
X223250Y133500D02*
D03*
X217750D02*
D03*
X148750Y223500D02*
D03*
X143250D02*
D03*
X148750Y213500D02*
D03*
X143250D02*
D03*
X72756Y168000D02*
D03*
X67244D02*
D03*
X57250D02*
D03*
X51750D02*
D03*
X223750Y182000D02*
D03*
X218250D02*
D03*
X70325Y106756D02*
D03*
X64825D02*
D03*
X70325Y116756D02*
D03*
X64825D02*
D03*
X55250Y73000D02*
D03*
X49750D02*
D03*
X223750Y177000D02*
D03*
X218250D02*
D03*
X223750Y172000D02*
D03*
X218250D02*
D03*
X57250Y159500D02*
D03*
X51750D02*
D03*
X72756D02*
D03*
X67244D02*
D03*
X64825Y111756D02*
D03*
X70325D02*
D03*
Y121756D02*
D03*
X64825D02*
D03*
X49250Y111500D02*
D03*
X54750D02*
D03*
X70250Y127500D02*
D03*
X64750D02*
D03*
X173250Y143500D02*
D03*
X178750D02*
D03*
X173250Y173500D02*
D03*
X178750D02*
D03*
D11*
X230776Y142240D02*
D03*
Y180740D02*
D03*
Y161240D02*
D03*
D12*
Y138500D02*
D03*
Y134760D02*
D03*
X240224D02*
D03*
Y142240D02*
D03*
X230776Y177000D02*
D03*
Y173260D02*
D03*
X240224D02*
D03*
Y180740D02*
D03*
X230776Y157500D02*
D03*
Y153760D02*
D03*
X240224D02*
D03*
Y161240D02*
D03*
D13*
X152500Y78000D02*
D03*
D14*
X143248Y85500D02*
D03*
Y80500D02*
D03*
Y75500D02*
D03*
Y70500D02*
D03*
X161752Y85500D02*
D03*
Y80500D02*
D03*
Y75500D02*
D03*
D15*
Y70500D02*
D03*
D16*
X198500Y70750D02*
D03*
Y65250D02*
D03*
X389000Y24244D02*
D03*
Y29756D02*
D03*
X54500Y134750D02*
D03*
Y140250D02*
D03*
X167000Y326250D02*
D03*
Y331750D02*
D03*
X162000D02*
D03*
Y326250D02*
D03*
X49500Y134750D02*
D03*
Y140250D02*
D03*
X419500Y92750D02*
D03*
Y98250D02*
D03*
X414500Y92750D02*
D03*
Y98250D02*
D03*
X389000Y35750D02*
D03*
Y41250D02*
D03*
X424500Y98250D02*
D03*
Y92750D02*
D03*
X429500D02*
D03*
Y98250D02*
D03*
X435500D02*
D03*
Y92750D02*
D03*
X304000Y64750D02*
D03*
Y59250D02*
D03*
X294000Y64750D02*
D03*
Y59250D02*
D03*
X185000Y65244D02*
D03*
Y70756D02*
D03*
X179500Y65250D02*
D03*
Y70750D02*
D03*
X174000Y65250D02*
D03*
Y70750D02*
D03*
X120500Y124750D02*
D03*
Y119250D02*
D03*
X4000Y134250D02*
D03*
Y128750D02*
D03*
X245000Y68250D02*
D03*
Y73750D02*
D03*
X239000Y68250D02*
D03*
Y73750D02*
D03*
X145000Y316756D02*
D03*
Y311244D02*
D03*
X139500Y311250D02*
D03*
Y316750D02*
D03*
X75000Y116500D02*
D03*
Y122000D02*
D03*
X41000Y162250D02*
D03*
Y167750D02*
D03*
Y154750D02*
D03*
Y149250D02*
D03*
X46000Y162250D02*
D03*
Y167750D02*
D03*
D17*
X426405Y106063D02*
D03*
Y108031D02*
D03*
Y110000D02*
D03*
Y111969D02*
D03*
Y113937D02*
D03*
X414595D02*
D03*
Y111969D02*
D03*
Y110000D02*
D03*
Y108031D02*
D03*
Y106063D02*
D03*
X46169Y126693D02*
D03*
Y124724D02*
D03*
Y122756D02*
D03*
Y120787D02*
D03*
Y118819D02*
D03*
X57980D02*
D03*
Y120787D02*
D03*
Y122756D02*
D03*
Y124724D02*
D03*
Y126693D02*
D03*
D18*
X420500Y110000D02*
D03*
X52075Y122756D02*
D03*
D19*
X419713Y104095D02*
D03*
X421287D02*
D03*
X419713Y115905D02*
D03*
X421287D02*
D03*
X52862Y128661D02*
D03*
X51287D02*
D03*
X52862Y116850D02*
D03*
X51287D02*
D03*
D20*
X204339Y330339D02*
D03*
X201780D02*
D03*
X199221D02*
D03*
X196662D02*
D03*
X196661Y322661D02*
D03*
X199221D02*
D03*
X201780D02*
D03*
X204339D02*
D03*
D21*
X184406Y322799D02*
D03*
Y326500D02*
D03*
Y330201D02*
D03*
X172594D02*
D03*
Y326500D02*
D03*
Y322799D02*
D03*
D22*
X401000Y98783D02*
D03*
Y84216D02*
D03*
X60500Y79716D02*
D03*
Y94283D02*
D03*
D23*
X401000Y125661D02*
D03*
Y108339D02*
D03*
D24*
X419250Y86000D02*
D03*
X411750D02*
D03*
X419250Y78500D02*
D03*
X411750D02*
D03*
D25*
X25000Y108925D02*
D03*
Y137075D02*
D03*
D26*
X8689Y158500D02*
D03*
D27*
X32311Y167555D02*
D03*
Y158500D02*
D03*
Y149445D02*
D03*
D28*
X149784Y57000D02*
D03*
X135216D02*
D03*
D29*
X87185Y97500D02*
D03*
X97815D02*
D03*
X87185Y88500D02*
D03*
X97815D02*
D03*
D30*
X49500Y78287D02*
D03*
Y86713D02*
D03*
D31*
X16035Y82500D02*
D03*
D32*
X40248Y91516D02*
D03*
Y73484D02*
D03*
D33*
X19450Y54500D02*
D03*
X44550D02*
D03*
D34*
X272000Y83000D02*
X275500Y79500D01*
X287500D01*
X289500Y77500D01*
X319750D01*
X272000Y83000D02*
Y88000D01*
X260000Y100000D02*
X272000Y88000D01*
X316250Y75500D02*
X319750Y72000D01*
X269500Y75500D02*
X316250D01*
X321500Y80500D02*
X322500Y79500D01*
X317000Y80500D02*
X321500D01*
X316000Y79500D02*
X317000Y80500D01*
X290500Y79500D02*
X316000D01*
X279500Y90500D02*
X290500Y79500D01*
X275500Y90500D02*
X279500D01*
X267500Y98500D02*
X275500Y90500D01*
X140000Y333500D02*
X152500Y321000D01*
X169500D01*
X174500Y316000D01*
X189000D01*
X214500Y39750D02*
Y97250D01*
X213248Y38498D02*
X214500Y39750D01*
X213248Y32500D02*
Y38498D01*
X134000Y116000D02*
X197000D01*
X74756Y121756D02*
X75000Y122000D01*
X70325Y121756D02*
X74756D01*
X152500Y21500D02*
Y32500D01*
X148500Y36500D02*
X152500Y32500D01*
X136748Y36500D02*
X148500D01*
X260000Y73500D02*
X291000D01*
X260000Y67500D02*
Y73500D01*
X213500Y152500D02*
X217750D01*
X211000Y150000D02*
X213500Y152500D01*
X211000Y126000D02*
Y150000D01*
X178750Y173500D02*
X182500D01*
X178750Y143500D02*
X182500D01*
X389000Y41250D02*
Y54500D01*
Y29756D02*
Y35750D01*
X237500Y99500D02*
X260000Y77000D01*
X225500Y99500D02*
X237500D01*
X191500Y133500D02*
X225500Y99500D01*
X238500Y101500D02*
X255000Y85000D01*
X226500Y101500D02*
X238500D01*
X190000Y138000D02*
X226500Y101500D01*
X256500Y103500D02*
X260000Y100000D01*
X227500Y103500D02*
X256500D01*
X192000Y139000D02*
X227500Y103500D01*
X214500Y133500D02*
X217750D01*
X197000Y142000D02*
Y165500D01*
X203500Y172000D01*
X218250D01*
X160000Y173500D02*
X173250D01*
X160000Y143500D02*
X173250D01*
X190000Y138000D02*
Y148500D01*
X185000Y153500D02*
X190000Y148500D01*
X160000Y153500D02*
X185000D01*
X192000Y139000D02*
Y156500D01*
X185000Y163500D02*
X192000Y156500D01*
X160000Y163500D02*
X185000D01*
X187500Y193500D02*
X194000Y187000D01*
Y140000D02*
Y187000D01*
Y140000D02*
X228500Y105500D01*
X255000Y85000D02*
X260000D01*
Y67500D02*
Y77000D01*
X263500Y107500D02*
X267500Y103500D01*
X229500Y107500D02*
X263500D01*
X211000Y126000D02*
X229500Y107500D01*
X262500Y105500D02*
X265625Y102375D01*
Y97375D02*
Y102375D01*
Y97375D02*
X277500Y85500D01*
Y85000D02*
Y85500D01*
X267500Y98500D02*
Y103500D01*
X228500Y105500D02*
X262500D01*
X291000Y73500D02*
X294000Y70500D01*
Y65250D02*
Y70500D01*
Y65250D02*
X294250Y65000D01*
X294000Y43500D02*
Y59250D01*
X304000Y43500D02*
Y59250D01*
X185000Y70750D02*
Y70756D01*
X179500Y65250D02*
X185000Y70750D01*
X179500D02*
Y85500D01*
X174000Y70750D02*
X179500D01*
X162002D02*
X174000D01*
X161752Y70500D02*
X162002Y70750D01*
X128000Y122000D02*
X134000Y116000D01*
X114500Y122000D02*
X128000D01*
X112000Y124500D02*
X114500Y122000D01*
X91000Y124500D02*
X112000D01*
X87185Y120685D02*
X91000Y124500D01*
X87185Y97500D02*
Y120685D01*
X238250Y186000D02*
X241500D01*
X238250Y183750D02*
Y186000D01*
Y183750D02*
X240224Y181776D01*
Y180240D02*
Y181776D01*
X238250Y166500D02*
X241500D01*
X238250Y164250D02*
Y166500D01*
Y164250D02*
X240224Y162276D01*
Y160740D02*
Y162276D01*
Y142240D02*
Y143776D01*
X238250Y145750D02*
X240224Y143776D01*
X238250Y145750D02*
Y148000D01*
X241500D01*
X194000Y336000D02*
X197750D01*
X158500Y326500D02*
X158750Y326250D01*
X162000D01*
X82000Y233500D02*
X153500Y162000D01*
Y147000D02*
Y162000D01*
Y147000D02*
X157000Y143500D01*
X152500Y21500D02*
X155500Y18500D01*
X239748D01*
X132748Y19748D02*
Y32500D01*
X131500Y18500D02*
X132748Y19748D01*
X109500Y18500D02*
X131500D01*
X106500Y21500D02*
X109500Y18500D01*
X108500Y16500D02*
X140622D01*
X104500Y20500D02*
X108500Y16500D01*
X140622D02*
X245622D01*
X140622D02*
Y32500D01*
X107000Y29500D02*
Y117000D01*
X104500Y27000D02*
X107000Y29500D01*
X104500Y20500D02*
Y27000D01*
X109000Y28500D02*
Y122000D01*
X106500Y26000D02*
X109000Y28500D01*
X106500Y21500D02*
Y26000D01*
Y117500D02*
X107000Y117000D01*
X106500Y117500D02*
Y119500D01*
X260000Y85000D02*
X269500Y75500D01*
X160000Y133500D02*
X191500D01*
X145000Y173500D02*
X160000D01*
X84000Y234500D02*
X145000Y173500D01*
X84000Y234500D02*
Y328500D01*
X51750Y149250D02*
Y159500D01*
X57250D02*
X67244D01*
X57250Y168000D02*
X67244D01*
X129000Y285000D02*
X146000Y268000D01*
Y247500D02*
Y268000D01*
Y247500D02*
X160000Y233500D01*
X88000Y335500D02*
X141000D01*
X82000Y329500D02*
X88000Y335500D01*
X82000Y233500D02*
Y329500D01*
X245622Y16500D02*
X261622Y32500D01*
X239748Y18500D02*
X253748Y32500D01*
X364122Y22122D02*
Y33000D01*
X361000Y19000D02*
X364122Y22122D01*
X327500Y19000D02*
X361000D01*
X322500Y24000D02*
X327500Y19000D01*
X410500Y87250D02*
X411750Y86000D01*
X410500Y87250D02*
Y94000D01*
X412000Y95500D01*
X421750D01*
X424500Y92750D01*
X429500Y98250D02*
Y104000D01*
X427437Y106063D02*
X429500Y104000D01*
X426405Y106063D02*
X427437D01*
X426405Y108031D02*
X428469D01*
X432500Y104000D01*
Y96000D02*
Y104000D01*
X426405Y110000D02*
X430000D01*
X272500Y135000D02*
Y161000D01*
X260000Y173500D02*
X272500Y161000D01*
X270000Y122500D02*
Y143500D01*
X260000Y153500D02*
X270000Y143500D01*
X267500Y110000D02*
Y136000D01*
X260000Y143500D02*
X267500Y136000D01*
X414500Y105468D02*
X414595Y105563D01*
X414500Y98250D02*
Y105468D01*
X432000Y95500D02*
X432500Y96000D01*
X427000Y95500D02*
X432000D01*
X424375Y98125D02*
X427000Y95500D01*
X429500Y92750D02*
X435500D01*
X419500Y98250D02*
X424500D01*
X89000Y333500D02*
X140000D01*
X84000Y328500D02*
X89000Y333500D01*
X160000Y193500D02*
X187500D01*
X322500Y24000D02*
Y79500D01*
X132748Y32500D02*
X136748Y36500D01*
X49500Y73250D02*
X49750Y73000D01*
X49266Y73484D02*
X49500Y73250D01*
Y78287D01*
X40248Y73484D02*
X49266D01*
X238500Y325000D02*
X260000D01*
X230000Y321000D02*
Y325000D01*
X189000Y322799D02*
X191799D01*
X184406D02*
X189000D01*
X153701D02*
X172594D01*
X141000Y335500D02*
X153701Y322799D01*
X130000Y317000D02*
Y325000D01*
Y286000D02*
Y317000D01*
X130250Y316750D01*
X139500D01*
X157000Y143500D02*
X160000D01*
X325250Y72000D02*
X337500D01*
X342500Y77000D01*
Y86000D01*
X332500Y80000D02*
Y86000D01*
X330000Y77500D02*
X332500Y80000D01*
X325250Y77500D02*
X330000D01*
X267500Y110000D02*
X277500Y100000D01*
X270000Y122500D02*
X277500Y115000D01*
X272500Y135000D02*
X277500Y130000D01*
X253500Y143500D02*
X260000D01*
X244760Y134760D02*
X253500Y143500D01*
X240224Y134760D02*
X244760D01*
X259760Y173260D02*
X260000Y173500D01*
X240224Y173260D02*
X259760D01*
X259740Y153760D02*
X260000Y153500D01*
X240224Y153760D02*
X259740D01*
X227760Y173260D02*
X230776D01*
X226500Y172000D02*
X227760Y173260D01*
X223750Y172000D02*
X226500D01*
X217750Y139000D02*
X223250Y133500D01*
X226500D01*
X227760Y134760D01*
X230776D01*
X217750Y158000D02*
X223250Y152500D01*
X226500D01*
X227760Y153760D01*
X230776D01*
X218250Y177500D02*
X223750Y172000D01*
X218250Y177500D02*
Y182000D01*
X217750Y158000D02*
Y162500D01*
Y139000D02*
Y143500D01*
X236740Y134760D02*
X240224D01*
X235500Y136000D02*
X236740Y134760D01*
X235500Y136000D02*
Y141000D01*
X234260Y142240D02*
X235500Y141000D01*
X230776Y142240D02*
X234260D01*
X235500Y174500D02*
Y179500D01*
X234260Y180740D02*
X235500Y179500D01*
X230776Y180740D02*
X234260D01*
X235500Y155000D02*
Y160000D01*
X234260Y161240D02*
X235500Y160000D01*
X230776Y161240D02*
X234260D01*
X236750Y153750D02*
X236760Y153760D01*
X235500Y155000D02*
X236750Y153750D01*
X236760Y153760D02*
X240224D01*
X236740Y173260D02*
X240224D01*
X235500Y174500D02*
X236740Y173260D01*
X90000Y284000D02*
Y325000D01*
X144994Y311250D02*
X145000Y311244D01*
X139500Y311250D02*
X144994D01*
X129000Y285000D02*
X130000Y286000D01*
X110000Y274000D02*
Y325000D01*
Y274000D02*
X129000Y255000D01*
X90000Y284000D02*
X129000Y245000D01*
X148750Y223500D02*
X160000D01*
X129000Y245000D02*
X143250Y230750D01*
Y223500D02*
Y230750D01*
X129000Y255000D02*
X146000Y238000D01*
Y216250D02*
Y238000D01*
X143250Y213500D02*
X146000Y216250D01*
X148750Y213500D02*
X160000D01*
X199000Y312000D02*
X225500D01*
X196661Y314339D02*
X199000Y312000D01*
X196661Y314339D02*
Y319000D01*
X225500Y312000D02*
X238500Y325000D01*
X223000Y314000D02*
X230000Y321000D01*
X200000Y314000D02*
X223000D01*
X199221Y314779D02*
X200000Y314000D01*
X201780Y317970D02*
X202250Y317500D01*
X201780Y317970D02*
Y322661D01*
X197750Y333750D02*
Y336000D01*
Y333750D02*
X199221Y332279D01*
Y330339D02*
Y332279D01*
X200500Y327000D02*
X201780D01*
X199221Y328279D02*
X200500Y327000D01*
X202000D02*
X204000D01*
X204339Y327339D01*
Y330339D01*
X199221Y328279D02*
Y330339D01*
X201780Y322661D02*
Y327000D01*
X162000Y331750D02*
Y335000D01*
Y326250D02*
X167000D01*
X167250Y326500D02*
X172594D01*
X167000Y326250D02*
X167250Y326500D01*
X184406Y330201D02*
X184500Y330295D01*
Y333000D01*
X183000Y334500D02*
X184500Y333000D01*
X169750Y334500D02*
X183000D01*
X167000Y331750D02*
X169750Y334500D01*
X199221Y314779D02*
Y322661D01*
X196661Y319000D02*
Y322661D01*
X176394Y319000D02*
X196661D01*
X194000Y325000D02*
X198500D01*
X191799Y322799D02*
X194000Y325000D01*
X199221Y322661D02*
Y324279D01*
X198500Y325000D02*
X199221Y324279D01*
X172594Y322799D02*
X176394Y319000D01*
X67500Y114581D02*
Y139500D01*
Y114581D02*
X70325Y111756D01*
X62744D02*
X64825D01*
X60500Y114000D02*
X62744Y111756D01*
X54750Y111500D02*
X58000D01*
X60776Y124724D02*
X61500Y124000D01*
X57980Y124724D02*
X60776D01*
X64825Y106756D02*
Y111756D01*
X57980Y126693D02*
X63443D01*
X63943D02*
X64750Y127500D01*
X60500Y114000D02*
Y117500D01*
X59181Y118819D02*
X60500Y117500D01*
X57980Y118819D02*
X59181D01*
X63856Y120787D02*
X64825Y121756D01*
X57980Y120787D02*
X63356D01*
X64825Y116756D02*
Y121756D01*
D35*
X223500Y96750D02*
X229000D01*
X189125Y131125D02*
X223500Y96750D01*
X239250Y45500D02*
Y51500D01*
X238000Y44250D02*
X239250Y45500D01*
X238000Y32500D02*
Y44250D01*
X239250Y56500D02*
Y61500D01*
Y51500D02*
Y56500D01*
X244750Y61500D02*
X245000Y61750D01*
Y68250D01*
X239000D02*
X245000D01*
Y73750D02*
Y77500D01*
X229000Y96750D02*
X239000Y86750D01*
Y73750D02*
Y86750D01*
X198500Y44500D02*
Y65250D01*
X197500Y32500D02*
Y43500D01*
X198500Y44500D01*
Y70750D02*
Y92500D01*
D36*
X197000Y142000D02*
D03*
D37*
X304000Y64750D02*
Y68500D01*
D38*
X94500Y172390D02*
D03*
X372500Y86000D02*
D03*
X94500Y129390D02*
D03*
X314000Y43500D02*
D03*
X120500Y100390D02*
D03*
D39*
X94500Y158610D02*
D03*
X372500Y96000D02*
D03*
X362500Y86000D02*
D03*
Y96000D02*
D03*
X352500D02*
D03*
Y86000D02*
D03*
X342500Y96000D02*
D03*
Y86000D02*
D03*
X332500Y96000D02*
D03*
Y86000D02*
D03*
X322500D02*
D03*
Y96000D02*
D03*
X312500Y86000D02*
D03*
Y96000D02*
D03*
X302500Y86000D02*
D03*
Y96000D02*
D03*
X94500Y115610D02*
D03*
X304000Y43500D02*
D03*
X294000D02*
D03*
X284000D02*
D03*
X427390Y164000D02*
D03*
X422890Y57500D02*
D03*
X120500Y86610D02*
D03*
X129000Y205000D02*
D03*
Y215000D02*
D03*
Y225000D02*
D03*
Y235000D02*
D03*
Y245000D02*
D03*
Y255000D02*
D03*
Y265000D02*
D03*
Y275000D02*
D03*
X160000Y133500D02*
D03*
Y143500D02*
D03*
Y153500D02*
D03*
Y163500D02*
D03*
Y173500D02*
D03*
Y183500D02*
D03*
Y193500D02*
D03*
Y203500D02*
D03*
Y213500D02*
D03*
Y223500D02*
D03*
Y233500D02*
D03*
Y243500D02*
D03*
Y253500D02*
D03*
Y263500D02*
D03*
X260000Y273500D02*
D03*
Y263500D02*
D03*
Y253500D02*
D03*
Y243500D02*
D03*
Y233500D02*
D03*
Y223500D02*
D03*
Y213500D02*
D03*
Y203500D02*
D03*
Y193500D02*
D03*
Y183500D02*
D03*
Y173500D02*
D03*
Y163500D02*
D03*
Y153500D02*
D03*
Y143500D02*
D03*
D40*
X13000Y285000D02*
D03*
Y205000D02*
D03*
D41*
X260000Y325000D02*
D03*
X230000D02*
D03*
X277500Y130000D02*
D03*
Y115000D02*
D03*
Y100000D02*
D03*
X260000D02*
D03*
Y85000D02*
D03*
X277500Y67500D02*
D03*
X70000Y325000D02*
D03*
X179500Y85500D02*
D03*
X130000Y325000D02*
D03*
X90000D02*
D03*
X260000Y67500D02*
D03*
X277500Y85000D02*
D03*
X110000Y325000D02*
D03*
D42*
X140622Y32500D02*
D03*
X124874D02*
D03*
X132748D02*
D03*
X261622D02*
D03*
X245874D02*
D03*
X253748D02*
D03*
X364122Y33000D02*
D03*
X348374D02*
D03*
X356248D02*
D03*
X371996D02*
D03*
X172874Y32500D02*
D03*
X213248D02*
D03*
X205374D02*
D03*
D43*
X117000D02*
D03*
X238000D02*
D03*
X340500Y33000D02*
D03*
X165000Y32500D02*
D03*
X197500D02*
D03*
D44*
X111094Y23732D02*
D03*
X146528D02*
D03*
X232095D02*
D03*
X267528D02*
D03*
X334594Y24232D02*
D03*
X377902D02*
D03*
X178779Y23732D02*
D03*
X159095D02*
D03*
X219153D02*
D03*
X191595D02*
D03*
D45*
X85500Y72843D02*
D03*
D46*
Y53158D02*
D03*
D47*
X413610Y164000D02*
D03*
X409110Y57500D02*
D03*
X129000Y285000D02*
D03*
X160000Y273500D02*
D03*
X260000Y133500D02*
D03*
D48*
X60594Y35500D02*
D03*
D49*
X72405D02*
D03*
D50*
X52130Y18492D02*
D03*
X80870D02*
D03*
D51*
X286713Y152591D02*
D03*
X388287D02*
D03*
X337500Y301606D02*
D03*
D52*
X20000Y20000D02*
D03*
X420000D02*
D03*
X20000Y320000D02*
D03*
X420000D02*
D03*
D53*
X437500Y300000D02*
D03*
X425000Y275000D02*
D03*
X437500Y250000D02*
D03*
X425000Y225000D02*
D03*
X437500Y200000D02*
D03*
X425000Y175000D02*
D03*
X437500Y150000D02*
D03*
X425000Y125000D02*
D03*
Y75000D02*
D03*
X437500Y50000D02*
D03*
X400000Y325000D02*
D03*
X412500Y300000D02*
D03*
X400000Y275000D02*
D03*
X412500Y250000D02*
D03*
X400000Y225000D02*
D03*
X412500Y200000D02*
D03*
X400000Y175000D02*
D03*
Y25000D02*
D03*
X375000Y325000D02*
D03*
X387500Y300000D02*
D03*
X375000Y275000D02*
D03*
X387500Y250000D02*
D03*
X375000Y225000D02*
D03*
X387500Y200000D02*
D03*
X375000Y175000D02*
D03*
X387500Y100000D02*
D03*
X375000Y75000D02*
D03*
X350000Y325000D02*
D03*
X362500Y300000D02*
D03*
X350000Y275000D02*
D03*
X362500Y250000D02*
D03*
X350000Y225000D02*
D03*
X362500Y200000D02*
D03*
X350000Y175000D02*
D03*
X362500Y150000D02*
D03*
X350000Y125000D02*
D03*
Y75000D02*
D03*
Y25000D02*
D03*
X325000Y325000D02*
D03*
Y275000D02*
D03*
X337500Y250000D02*
D03*
X325000Y225000D02*
D03*
X337500Y200000D02*
D03*
X325000Y175000D02*
D03*
X337500Y150000D02*
D03*
X325000Y125000D02*
D03*
X337500Y100000D02*
D03*
X325000Y25000D02*
D03*
X300000Y325000D02*
D03*
X312500Y300000D02*
D03*
X300000Y275000D02*
D03*
X312500Y250000D02*
D03*
X300000Y225000D02*
D03*
X312500Y200000D02*
D03*
X300000Y175000D02*
D03*
X312500Y150000D02*
D03*
X300000Y125000D02*
D03*
X312500Y50000D02*
D03*
X300000Y25000D02*
D03*
X275000Y325000D02*
D03*
X287500Y300000D02*
D03*
X275000Y275000D02*
D03*
X287500Y250000D02*
D03*
X275000Y225000D02*
D03*
X287500Y200000D02*
D03*
X275000Y175000D02*
D03*
X287500Y50000D02*
D03*
X275000Y25000D02*
D03*
X262500Y300000D02*
D03*
X250000Y275000D02*
D03*
Y225000D02*
D03*
Y125000D02*
D03*
X262500Y50000D02*
D03*
X250000Y25000D02*
D03*
X237500Y300000D02*
D03*
X225000Y275000D02*
D03*
X237500Y250000D02*
D03*
X225000Y225000D02*
D03*
X237500Y200000D02*
D03*
X225000Y125000D02*
D03*
Y75000D02*
D03*
Y25000D02*
D03*
X212500Y300000D02*
D03*
X200000Y275000D02*
D03*
X212500Y250000D02*
D03*
X200000Y225000D02*
D03*
X212500Y200000D02*
D03*
X200000Y25000D02*
D03*
X187500Y300000D02*
D03*
X175000Y275000D02*
D03*
X187500Y250000D02*
D03*
X175000Y225000D02*
D03*
X187500Y200000D02*
D03*
X175000Y75000D02*
D03*
X187500Y50000D02*
D03*
X162500Y300000D02*
D03*
Y100000D02*
D03*
X137500Y300000D02*
D03*
Y250000D02*
D03*
Y200000D02*
D03*
X125000Y175000D02*
D03*
X137500Y100000D02*
D03*
X125000Y25000D02*
D03*
X100000Y325000D02*
D03*
X112500Y300000D02*
D03*
Y250000D02*
D03*
X100000Y225000D02*
D03*
Y75000D02*
D03*
Y25000D02*
D03*
X87500Y300000D02*
D03*
X75000Y275000D02*
D03*
X87500Y250000D02*
D03*
X75000Y225000D02*
D03*
X87500Y200000D02*
D03*
X75000Y75000D02*
D03*
Y25000D02*
D03*
X50000Y325000D02*
D03*
X62500Y300000D02*
D03*
X50000Y275000D02*
D03*
X62500Y250000D02*
D03*
X50000Y225000D02*
D03*
X62500Y200000D02*
D03*
X37500Y300000D02*
D03*
X25000Y275000D02*
D03*
X37500Y250000D02*
D03*
X25000Y225000D02*
D03*
X37500Y200000D02*
D03*
X247500Y100000D02*
D03*
Y122500D02*
D03*
X197000Y142000D02*
D03*
X247750Y56500D02*
D03*
Y51500D02*
D03*
X207250Y56000D02*
D03*
Y51000D02*
D03*
X189125Y131125D02*
D03*
X245000Y77500D02*
D03*
X197000Y116000D02*
D03*
X214500Y97250D02*
D03*
X75000Y127500D02*
D03*
Y106750D02*
D03*
X179500Y125000D02*
D03*
Y122500D02*
D03*
X182500Y173500D02*
D03*
Y143500D02*
D03*
X198500Y92500D02*
D03*
X229500Y186000D02*
D03*
Y166500D02*
D03*
Y148000D02*
D03*
X137500Y75500D02*
D03*
X241500Y186000D02*
D03*
Y166500D02*
D03*
Y148000D02*
D03*
X194000Y336000D02*
D03*
X158500Y326500D02*
D03*
X106500Y119500D02*
D03*
X109000Y122000D02*
D03*
X137500Y70500D02*
D03*
Y80500D02*
D03*
X304000Y68500D02*
D03*
X214500Y133500D02*
D03*
X46000Y158500D02*
D03*
X41000D02*
D03*
X422075Y112256D02*
D03*
X418925D02*
D03*
Y107744D02*
D03*
X422075D02*
D03*
X422500Y78500D02*
D03*
Y86000D02*
D03*
X410500Y107000D02*
D03*
Y109000D02*
D03*
X430000Y110000D02*
D03*
X189000Y316000D02*
D03*
Y322799D02*
D03*
X162000Y335000D02*
D03*
X3500Y155000D02*
D03*
Y157500D02*
D03*
Y160000D02*
D03*
Y162500D02*
D03*
X43000Y118500D02*
D03*
Y121000D02*
D03*
X58000Y111500D02*
D03*
X61500Y124000D02*
D03*
X50500Y120500D02*
D03*
X53650D02*
D03*
Y125012D02*
D03*
X50500D02*
D03*
D54*
X150138Y80362D02*
D03*
X154862D02*
D03*
X150138Y75638D02*
D03*
X154862D02*
D03*
X12206Y24500D02*
D03*
X15500Y27794D02*
D03*
X20000Y29000D02*
D03*
X24500Y27794D02*
D03*
X27794Y24500D02*
D03*
X29000Y20000D02*
D03*
X27794Y15500D02*
D03*
X24500Y12206D02*
D03*
X20000Y11000D02*
D03*
X15500Y12206D02*
D03*
X12206Y15500D02*
D03*
X11000Y20000D02*
D03*
X412206Y24500D02*
D03*
X415500Y27794D02*
D03*
X420000Y29000D02*
D03*
X424500Y27794D02*
D03*
X427794Y24500D02*
D03*
X429000Y20000D02*
D03*
X427794Y15500D02*
D03*
X424500Y12206D02*
D03*
X420000Y11000D02*
D03*
X415500Y12206D02*
D03*
X412206Y15500D02*
D03*
X411000Y20000D02*
D03*
X12206Y324500D02*
D03*
X15500Y327794D02*
D03*
X20000Y329000D02*
D03*
X24500Y327794D02*
D03*
X27794Y324500D02*
D03*
X29000Y320000D02*
D03*
X27794Y315500D02*
D03*
X24500Y312206D02*
D03*
X20000Y311000D02*
D03*
X15500Y312206D02*
D03*
X12206Y315500D02*
D03*
X11000Y320000D02*
D03*
X412206Y324500D02*
D03*
X415500Y327794D02*
D03*
X420000Y329000D02*
D03*
X424500Y327794D02*
D03*
X427794Y324500D02*
D03*
X429000Y320000D02*
D03*
X427794Y315500D02*
D03*
X424500Y312206D02*
D03*
X420000Y311000D02*
D03*
X415500Y312206D02*
D03*
X412206Y315500D02*
D03*
X411000Y320000D02*
D03*
M02*
